<svg width="22" height="20" viewBox="0 0 22 20" fill="none" xmlns="http://www.w3.org/2000/svg">
<path d="M3.66667 19L2.69139 19.221C2.79462 19.6766 3.19952 20 3.66667 20V19ZM18.3333 19V20C18.8005 20 19.2054 19.6766 19.3086 19.221L18.3333 19ZM11 1L11.7799 0.374131C11.5901 0.137613 11.3033 0 11 0C10.6967 0 10.4099 0.137613 10.2201 0.374131L11 1ZM20.7234 8.45175L21.6986 8.67272L20.7234 8.45175ZM1.27665 8.45175L0.30137 8.67273L1.27665 8.45175ZM0.30137 8.67273L2.69139 19.221L4.64195 18.779L2.25193 8.23077L0.30137 8.67273ZM3.66667 20H18.3333V18H3.66667V20ZM19.3086 19.221L21.6986 8.67272L19.7481 8.23077L17.3581 18.779L19.3086 19.221ZM6 6.23077H2.25193V8.23077H6V6.23077ZM10.2201 0.374131L5.22007 6.6049L6.77993 7.85664L11.7799 1.62587L10.2201 0.374131ZM19.7481 6.23077H16V8.23077H19.7481V6.23077ZM16 6.23077H6V8.23077H16V6.23077ZM10.2201 1.62587L15.2201 7.85664L16.7799 6.6049L11.7799 0.374131L10.2201 1.62587ZM21.6986 8.67272C21.9821 7.42154 21.031 6.23077 19.7481 6.23077V8.23077V8.23077L21.6986 8.67272ZM2.25193 8.23077V6.23077C0.969027 6.23077 0.017877 7.42154 0.30137 8.67273L2.25193 8.23077Z" fill="#151515"/>
</svg>
