<svg width="114" height="40" viewBox="0 0 114 40" fill="none" xmlns="http://www.w3.org/2000/svg">
<g clip-path="url(#clip0_9_40)">
<path d="M57.38 19.36C55.9143 19.36 54.8014 18.96 54.0414 18.16C53.2814 17.3333 52.9014 16.16 52.9014 14.64V13.5733H55.7514V14.8533C55.7514 16.08 56.2671 16.6933 57.3257 16.6933C57.8414 16.6933 58.2214 16.56 58.4929 16.2667C58.7643 15.9733 58.9 15.4667 58.9 14.8267C58.9 14.0267 58.71 13.36 58.3572 12.7467C57.9771 12.1333 57.2986 11.4133 56.3214 10.56C55.0729 9.49334 54.2043 8.50667 53.7157 7.65334C53.2271 6.77334 52.9829 5.78667 52.9829 4.69334C52.9829 3.2 53.3629 2.05334 54.15 1.25334C54.91 0.426669 56.05 0.0266685 57.5157 0.0266685C58.9543 0.0266685 60.0672 0.426669 60.8 1.25334C61.56 2.05334 61.94 3.22667 61.94 4.74667V5.52H59.09V4.53334C59.09 3.89334 58.9543 3.41334 58.71 3.14667C58.4657 2.85334 58.0857 2.69334 57.57 2.69334C56.5657 2.69334 56.05 3.30667 56.05 4.50667C56.05 5.2 56.24 5.81334 56.5929 6.42667C56.9729 7.01334 57.6786 7.73334 58.6557 8.58667C59.9314 9.65334 60.8 10.64 61.2614 11.52C61.7229 12.4 61.9672 13.44 61.9672 14.6133C61.9672 16.16 61.56 17.3333 60.7729 18.16C60.0129 18.96 58.8729 19.36 57.38 19.36Z" fill="#151515"/>
<path d="M66.0657 2.96H62.89V0.266666H72.2543V2.96H69.0786V19.0933H66.0657V2.96Z" fill="#151515"/>
<path d="M73.72 0.266666H81.9715V2.96H76.7329V7.94666H80.8857V10.6133H76.7329V16.4H81.9715V19.0933H73.72V0.266666Z" fill="#151515"/>
<path d="M88.16 8.74667C88.6486 8.74667 89.0286 8.61333 89.2729 8.34667C89.5172 8.08 89.6529 7.62667 89.6529 6.98667V4.74667C89.6529 4.10667 89.5172 3.65333 89.2729 3.38667C89.0286 3.12 88.6757 2.98667 88.16 2.98667H86.7215V8.77333H88.16V8.74667ZM83.7086 0.266666H88.16C89.6529 0.266666 90.7929 0.666666 91.5529 1.44C92.3129 2.21333 92.6929 3.38667 92.6929 4.90667V6.77333C92.6929 8.29333 92.3129 9.46667 91.5529 10.24C90.7929 11.04 89.68 11.4133 88.16 11.4133H86.7215V19.0667H83.6815V0.266666H83.7086Z" fill="#151515"/>
<path d="M98.7728 8.74667C99.2614 8.74667 99.6414 8.61333 99.8857 8.34667C100.13 8.08 100.266 7.62667 100.266 6.98667V4.74667C100.266 4.10667 100.13 3.65333 99.8857 3.38667C99.6414 3.12 99.2885 2.98667 98.7728 2.98667H97.3343V8.77333H98.7728V8.74667ZM94.3214 0.266666H98.7728C100.266 0.266666 101.406 0.666666 102.166 1.44C102.926 2.24 103.306 3.38667 103.306 4.90667V6.77333C103.306 8.29333 102.926 9.46667 102.166 10.24C101.406 11.04 100.293 11.4133 98.7728 11.4133H97.3343V19.0667H94.2943V0.266666H94.3214Z" fill="#151515"/>
<path d="M104.934 0.266666H113.186V2.96H107.947V7.94666H112.127V10.6133H107.947V16.4H113.186V19.0933H104.934V0.266666Z" fill="#151515"/>
<path d="M57.3257 40C55.9686 40 54.9371 39.6267 54.2314 38.88C53.5257 38.1333 53.1729 37.0667 53.1729 35.7067V26.32C53.1729 24.96 53.5257 23.8933 54.2314 23.1467C54.9371 22.4 55.9686 22.0267 57.3257 22.0267C58.6828 22.0267 59.6871 22.4 60.3928 23.1467C61.0986 23.8933 61.4786 24.96 61.4786 26.32V28.16H58.8186V26.1333C58.8186 25.04 58.3571 24.5067 57.4071 24.5067C56.4571 24.5067 55.9957 25.04 55.9957 26.1333V35.8933C55.9957 36.96 56.4571 37.4933 57.4071 37.4933C58.3571 37.4933 58.8186 36.96 58.8186 35.8933V33.2267H61.4786V35.7067C61.4786 37.0667 61.1257 38.1333 60.3928 38.88C59.6871 39.6267 58.6828 40 57.3257 40Z" fill="#151515"/>
<path d="M68.4 33.9467L67.1515 25.3067H67.0972L65.8757 33.9467H68.4ZM65.3329 22.2667H69.1329L72.0372 39.76H69.2143L68.6986 36.2933V36.3467H65.4957L64.98 39.76H62.3743L65.3329 22.2667Z" fill="#151515"/>
<path d="M77.5471 30.1333C78.0086 30.1333 78.3343 30 78.5786 29.76C78.8228 29.52 78.9314 29.0933 78.9314 28.48V26.4C78.9314 25.8133 78.8228 25.3867 78.5786 25.12C78.3614 24.88 78.0086 24.7467 77.5471 24.7467H76.2171V30.1333H77.5471ZM73.3943 22.2667H77.52C78.9043 22.2667 79.9629 22.64 80.6686 23.36C81.3743 24.08 81.7271 25.1733 81.7271 26.5867V28.32C81.7271 29.7333 81.3743 30.8 80.6686 31.5467C79.9629 32.2667 78.9314 32.64 77.52 32.64H76.19V39.76H73.3671V22.2667H73.3943Z" fill="#151515"/>
<path d="M86.0972 22.2667H83.2743V39.76H86.0972V22.2667Z" fill="#151515"/>
<path d="M90.3858 24.7733H87.4272V22.2667H96.1129V24.7733H93.1815V39.76H90.3858V24.7733Z" fill="#151515"/>
<path d="M101.541 33.9467L100.293 25.3067H100.239L99.0171 33.9467H101.541ZM98.4743 22.2667H102.274L105.179 39.76H102.356L101.84 36.2933V36.3467H98.6371L98.1214 39.76H95.5157L98.4743 22.2667Z" fill="#151515"/>
<path d="M106.563 22.2667H109.386V37.2533H114V39.76H106.563V22.2667Z" fill="#151515"/>
<path d="M40.7143 0H0V40H40.7143V0Z" fill="#5EB9E8"/>
<path fill-rule="evenodd" clip-rule="evenodd" d="M9.77143 20.7733C9.33714 21.8667 9.90714 22.8 11.6171 23.84C14.0329 25.3067 15.7157 27.2 15.7157 28.4C15.7157 29.0667 15.0371 30.0267 13.9243 30.9333C12.9471 31.7333 12.2686 32.4 12.4586 32.4C12.6486 32.4 14.4943 31.8667 16.5843 31.2267C20.3029 30.08 22.9357 28.3467 22.9357 27.0933C22.9357 25.7333 20.0857 24.24 16.4486 23.6267C14.1143 23.2533 10.9114 21.5467 10.9114 20.6933C10.9114 19.84 10.1243 19.92 9.77143 20.7733ZM19.2443 16.6133C18.6743 16.72 17.8329 17.2267 17.3714 17.7333C16.6929 18.48 16.6114 18.88 17.0729 19.8133C17.8057 21.4133 19.2986 22.0533 26.79 24.0533C35.5843 26.4 37.2671 27.7067 34.7157 30.2133C33.4943 31.4133 28.7986 33.92 25.3514 35.2267C22.9357 36.1333 21.9857 37.0933 21.9857 38.6133V39.9733H31.35H40.7143V31.28V22.64L36.5071 22.0533C31.3771 21.3333 26.5186 20.1867 24.6729 19.28C23.5871 18.7467 23.3429 18.3467 23.5329 17.44C23.75 16.4 23.6143 16.2933 22.0129 16.3467C21.0629 16.3733 19.8143 16.5067 19.2443 16.6133ZM6.43285 8.74667C3.31142 10.5867 0.841424 12.1867 0.977138 12.32C1.11285 12.4533 3.44714 11.44 6.18857 10.0533L11.1829 7.57333L15.4714 9.14667C21.66 11.3867 22.0129 11.3867 27.3057 9.25333L31.9471 7.38667L34.2814 8.66667C35.5571 9.36 37.2671 10.3467 38.0543 10.8533C40.3614 12.3467 38.95 10.7467 36.2357 8.77333C31.7843 5.54667 32.0557 5.57333 27.2243 7.49333C24.8629 8.42667 22.5014 9.2 22.0129 9.2C21.4971 9.2 19.4614 8.48 17.48 7.57333C15.4986 6.69333 13.49 5.84 13.0014 5.70667C12.4314 5.49333 10.07 6.61333 6.43285 8.74667Z" fill="#FFF217"/>
</g>
<defs>
<clipPath id="clip0_9_40">
<rect width="114" height="40" fill="white"/>
</clipPath>
</defs>
</svg>
