<svg width="136" height="48" viewBox="0 0 136 48" fill="none" xmlns="http://www.w3.org/2000/svg">
<g clip-path="url(#clip0_401_1869)">
<path d="M68.4532 23.232C66.7046 23.232 65.377 22.752 64.4704 21.792C63.5637 20.8 63.1104 19.392 63.1104 17.568V16.288H66.5104V17.824C66.5104 19.296 67.1256 20.032 68.3885 20.032C69.0037 20.032 69.457 19.872 69.7808 19.52C70.1046 19.168 70.2666 18.56 70.2666 17.792C70.2666 16.832 70.0399 16.032 69.6189 15.296C69.1656 14.56 68.3561 13.696 67.1904 12.672C65.7008 11.392 64.6646 10.208 64.0818 9.18398C63.4989 8.12798 63.2075 6.94398 63.2075 5.63198C63.2075 3.83998 63.6608 2.46398 64.5999 1.50398C65.5065 0.511982 66.8665 0.0319824 68.6151 0.0319824C70.3313 0.0319824 71.6589 0.511982 72.5332 1.50398C73.4399 2.46398 73.8932 3.87198 73.8932 5.69598V6.62398H70.4932V5.43998C70.4932 4.67198 70.3313 4.09598 70.0399 3.77598C69.7485 3.42398 69.2951 3.23198 68.6799 3.23198C67.4818 3.23198 66.8665 3.96798 66.8665 5.40798C66.8665 6.23998 67.0932 6.97598 67.5142 7.71198C67.9675 8.41598 68.8094 9.27998 69.9751 10.304C71.497 11.584 72.5332 12.768 73.0837 13.824C73.6342 14.88 73.9256 16.128 73.9256 17.536C73.9256 19.392 73.4399 20.8 72.5008 21.792C71.5942 22.752 70.2342 23.232 68.4532 23.232Z" fill="#151515"/>
<path d="M78.8149 3.55207H75.0264V0.320068H86.1978V3.55207H82.4092V22.9121H78.8149V3.55207Z" fill="#151515"/>
<path d="M87.9463 0.320068H97.7901V3.55207H91.5406V9.53607H96.4949V12.7361H91.5406V19.6801H97.7901V22.9121H87.9463V0.320068Z" fill="#151515"/>
<path d="M105.173 10.4961C105.756 10.4961 106.209 10.3361 106.501 10.0161C106.792 9.69607 106.954 9.15207 106.954 8.38407V5.69607C106.954 4.92807 106.792 4.38407 106.501 4.06407C106.209 3.74407 105.788 3.58407 105.173 3.58407H103.457V10.5281H105.173V10.4961ZM99.8625 0.320068H105.173C106.954 0.320068 108.314 0.800068 109.221 1.72807C110.127 2.65607 110.581 4.06407 110.581 5.88807V8.12807C110.581 9.95207 110.127 11.3601 109.221 12.2881C108.314 13.2481 106.986 13.6961 105.173 13.6961H103.457V22.8801H99.8301V0.320068H99.8625Z" fill="#151515"/>
<path d="M117.834 10.4961C118.417 10.4961 118.87 10.3361 119.162 10.0161C119.453 9.69607 119.615 9.15207 119.615 8.38407V5.69607C119.615 4.92807 119.453 4.38407 119.162 4.06407C118.87 3.74407 118.449 3.58407 117.834 3.58407H116.118V10.5281H117.834V10.4961ZM112.524 0.320068H117.834C119.615 0.320068 120.975 0.800068 121.882 1.72807C122.788 2.68807 123.242 4.06407 123.242 5.88807V8.12807C123.242 9.95207 122.788 11.3601 121.882 12.2881C120.975 13.2481 119.647 13.6961 117.834 13.6961H116.118V22.8801H112.491V0.320068H112.524Z" fill="#151515"/>
<path d="M125.185 0.320068H135.028V3.55207H128.779V9.53607H133.766V12.7361H128.779V19.6801H135.028V22.9121H125.185V0.320068Z" fill="#151515"/>
<path d="M68.3889 47.9999C66.7698 47.9999 65.5393 47.5519 64.6974 46.6559C63.8555 45.7599 63.4346 44.4799 63.4346 42.8479V31.5839C63.4346 29.9519 63.8555 28.6719 64.6974 27.7759C65.5393 26.8799 66.7698 26.4319 68.3889 26.4319C70.0079 26.4319 71.206 26.8799 72.0479 27.7759C72.8898 28.6719 73.3431 29.9519 73.3431 31.5839V33.7919H70.1698V31.3599C70.1698 30.0479 69.6193 29.4079 68.486 29.4079C67.3527 29.4079 66.8022 30.0479 66.8022 31.3599V43.0719C66.8022 44.3519 67.3527 44.9919 68.486 44.9919C69.6193 44.9919 70.1698 44.3519 70.1698 43.0719V39.8719H73.3431V42.8479C73.3431 44.4799 72.9222 45.7599 72.0479 46.6559C71.206 47.5519 70.0079 47.9999 68.3889 47.9999Z" fill="#151515"/>
<path d="M81.5997 40.736L80.1102 30.368H80.0454L78.5883 40.736H81.5997ZM77.9406 26.72H82.474L85.9387 47.712H82.5711L81.9559 43.552V43.616H78.1349L77.5197 47.712H74.4111L77.9406 26.72Z" fill="#151515"/>
<path d="M92.5121 36.16C93.0625 36.16 93.4511 36 93.7425 35.712C94.034 35.424 94.1635 34.912 94.1635 34.176V31.68C94.1635 30.976 94.034 30.464 93.7425 30.144C93.4835 29.856 93.0625 29.696 92.5121 29.696H90.9254V36.16H92.5121ZM87.5578 26.72H92.4797C94.1311 26.72 95.394 27.168 96.2359 28.032C97.0778 28.896 97.4987 30.208 97.4987 31.904V33.984C97.4987 35.68 97.0778 36.96 96.2359 37.856C95.394 38.72 94.1635 39.168 92.4797 39.168H90.893V47.712H87.5254V26.72H87.5578Z" fill="#151515"/>
<path d="M102.712 26.72H99.3447V47.712H102.712V26.72Z" fill="#151515"/>
<path d="M107.828 29.728H104.299V26.72H114.661V29.728H111.164V47.712H107.828V29.728Z" fill="#151515"/>
<path d="M121.137 40.736L119.647 30.368H119.583L118.125 40.736H121.137ZM117.478 26.72H122.011L125.476 47.712H122.108L121.493 43.552V43.616H117.672L117.057 47.712H113.948L117.478 26.72Z" fill="#151515"/>
<path d="M127.128 26.72H130.496V44.704H136V47.712H127.128V26.72Z" fill="#151515"/>
<path d="M48.5714 0H0V48H48.5714V0Z" fill="#5EB9E8"/>
<path fill-rule="evenodd" clip-rule="evenodd" d="M11.657 24.9281C11.1389 26.2401 11.8189 27.3601 13.8589 28.6081C16.7408 30.3681 18.7484 32.6401 18.7484 34.0801C18.7484 34.8801 17.9389 36.0321 16.6113 37.1201C15.4455 38.0801 14.636 38.8801 14.8627 38.8801C15.0894 38.8801 17.2913 38.2401 19.7846 37.4721C24.2208 36.0961 27.3617 34.0161 27.3617 32.5121C27.3617 30.8801 23.9617 29.0881 19.6227 28.3521C16.8379 27.9041 13.017 25.8561 13.017 24.8321C13.017 23.8081 12.0779 23.9041 11.657 24.9281ZM22.9579 19.9361C22.2779 20.0641 21.2741 20.6721 20.7236 21.2801C19.9141 22.1761 19.817 22.6561 20.3675 23.7761C21.2417 25.6961 23.0227 26.4641 31.9598 28.8641C42.4513 31.6801 44.4589 33.2481 41.4151 36.2561C39.9579 37.6961 34.356 40.7041 30.2436 42.2721C27.3617 43.3601 26.2284 44.5121 26.2284 46.3361V47.9681H37.3998H48.5713V37.5361V27.1681L43.5522 26.4641C37.4322 25.6001 31.636 24.2241 29.4341 23.1361C28.1389 22.4961 27.8475 22.0161 28.0741 20.9281C28.3332 19.6801 28.1713 19.5521 26.2608 19.6161C25.1275 19.6481 23.6379 19.8081 22.9579 19.9361ZM7.67412 10.4961C3.95031 12.7041 1.00364 14.6241 1.16555 14.7841C1.32745 14.9441 4.11221 13.7281 7.38269 12.0641L13.3408 9.08806L18.457 10.9761C25.8398 13.6641 26.2608 13.6641 32.5751 11.1041L38.1122 8.86406L40.897 10.4001C42.4189 11.2321 44.4589 12.4161 45.3979 13.0241C48.1503 14.8161 46.4665 12.8961 43.2284 10.5281C37.9179 6.65606 38.2417 6.68806 32.4779 8.99206C29.6608 10.1121 26.8436 11.0401 26.2608 11.0401C25.6455 11.0401 23.217 10.1761 20.8532 9.08806C18.4894 8.03206 16.0932 7.00806 15.5103 6.84806C14.8303 6.59206 12.0132 7.93606 7.67412 10.4961Z" fill="#FFF217"/>
</g>
<defs>
<clipPath id="clip0_401_1869">
<rect width="136" height="48" fill="white"/>
</clipPath>
</defs>
</svg>
