<svg width="396" height="354" viewBox="0 0 396 354" fill="none" xmlns="http://www.w3.org/2000/svg">
<path fill-rule="evenodd" clip-rule="evenodd" d="M244.552 413.544C245.32 414.888 244.361 416.04 242.059 416.04C239.756 416.04 238.797 414.888 239.565 413.544C240.332 412.2 241.483 411.048 242.059 411.048C242.634 411.048 243.785 412.2 244.552 413.544ZM257.597 405.097C255.295 407.401 258.173 411.048 262.201 411.048C264.12 411.048 265.846 409.321 265.846 407.209C265.846 403.561 260.475 402.025 257.597 405.097ZM217.695 405.097C215.393 407.401 218.271 411.048 222.299 411.048C224.218 411.048 225.944 409.321 225.944 407.209C225.944 403.561 220.765 402.025 217.695 405.097ZM297.308 397.609C294.238 400.681 295.581 403.369 300.569 403.369C303.255 403.369 305.557 401.641 305.557 399.529C305.557 395.882 300.377 394.538 297.308 397.609ZM245.128 397.418C244.361 398.185 242.059 398.377 240.332 397.609C238.414 396.842 238.989 396.266 241.867 396.074C244.552 396.074 246.087 396.65 245.128 397.418ZM177.601 398.185C175.875 400.873 182.205 406.633 184.507 404.329C185.466 403.369 186.234 401.257 186.234 399.337C186.234 395.69 179.711 394.73 177.601 398.185ZM268.916 397.801C267.573 401.449 267.957 401.641 271.026 399.145C274.095 396.65 275.822 397.418 281.193 403.561C285.606 408.553 286.565 411.048 284.071 411.048C282.153 411.048 280.618 410.089 280.618 409.129C280.618 408.169 278.316 407.017 275.438 406.825C271.218 406.441 270.834 407.017 273.328 410.089C275.822 413.16 274.863 413.736 267.573 413.736C262.777 413.736 256.83 414.504 254.528 415.272C251.075 416.616 250.691 415.848 252.226 410.856C253.952 405.673 253.569 405.289 250.308 408.169C247.622 410.281 245.895 410.473 244.744 408.745C242.634 405.289 245.32 401.065 249.732 401.065C251.842 401.065 252.61 399.529 251.842 397.225C250.691 394.346 252.61 393.386 260.475 393.386C269.108 393.578 270.45 394.154 268.916 397.801ZM232.275 397.801C231.507 399.529 232.658 401.065 234.577 401.065C238.989 401.065 241.675 405.289 239.565 408.745C238.414 410.473 236.687 410.281 234.001 408.169C230.548 405.289 230.356 405.673 232.083 410.856C233.81 416.232 233.426 416.616 228.054 415.272C224.793 414.312 219.038 413.736 215.009 413.736C209.062 413.736 208.295 413.16 210.789 410.089C213.283 407.209 212.899 406.633 208.487 406.825C205.609 407.017 203.691 408.553 204.458 410.089C205.226 411.816 203.883 412.584 201.005 411.816C196.977 410.664 196.977 410.089 202.348 404.329C206.185 400.297 209.638 398.569 212.324 399.529C215.777 400.873 215.969 400.489 213.283 397.225C210.405 393.77 211.365 393.386 221.724 393.962C230.356 394.346 233.234 395.306 232.275 397.801ZM207.336 393.578C208.103 394.922 207.144 396.074 205.226 396.074C203.116 396.074 200.813 394.922 200.046 393.578C199.279 392.234 200.238 391.082 202.156 391.082C204.075 391.082 206.377 392.042 207.336 393.578ZM266.422 390.314C263.352 390.89 257.789 390.89 253.952 390.314C250.116 389.738 252.61 389.162 259.516 389.162C266.422 389.162 269.491 389.738 266.422 390.314ZM230.356 390.314C226.52 390.89 220.381 390.89 216.736 390.314C212.899 389.738 215.969 389.354 223.642 389.354C230.932 389.162 234.001 389.738 230.356 390.314ZM194.675 391.274C196.209 392.618 195.634 393.578 193.524 393.578C191.605 393.578 192.564 394.73 195.634 396.074C202.156 398.761 201.581 405.097 194.866 403.945C191.605 403.369 190.838 404.329 191.989 407.209C193.14 410.281 192.373 411.048 189.303 410.089C187.001 409.321 181.822 407.977 177.985 407.209C172.613 405.865 171.462 404.521 172.613 400.873C173.764 397.226 173.189 396.458 169.928 397.801C166.858 398.953 166.091 398.185 166.666 394.73C167.242 391.466 169.352 390.122 173.189 390.698C176.834 391.082 178.177 390.314 177.217 388.586C175.299 384.938 191.03 387.626 194.675 391.274ZM308.434 386.858C306.132 389.546 306.9 390.122 312.079 388.97C317.451 388.01 318.41 388.586 317.642 392.426C317.067 395.114 315.34 396.842 313.614 396.458C312.079 396.074 310.736 397.034 310.736 398.377C310.736 399.721 312.271 400.873 314.381 400.873C316.3 400.873 318.602 399.721 319.561 398.377C321.479 395.306 325.7 395.114 325.7 397.993C325.7 399.913 301.912 408.361 296.157 408.361C294.622 408.361 293.279 406.441 293.279 404.329C293.279 401.065 292.512 400.873 289.634 403.369C286.565 405.865 285.606 405.673 284.263 401.833C283.304 399.337 280.81 395.882 278.699 394.154C275.246 391.466 275.246 391.082 279.083 391.082C281.385 391.082 283.495 392.042 283.495 393.578C283.495 395.114 285.989 396.074 289.059 396.074C293.279 396.074 293.855 395.498 291.553 393.002C289.059 390.506 290.402 389.354 297.883 387.05C310.161 383.019 311.696 383.019 308.434 386.858ZM334.141 383.787C331.647 388.01 337.402 392.81 340.855 389.354C343.732 386.474 342.006 381.099 338.169 381.099C336.826 380.907 335.1 382.251 334.141 383.787ZM171.27 383.403C174.532 385.514 174.34 385.898 170.887 385.898C168.585 385.898 165.899 384.746 165.132 383.403C163.021 380.331 166.283 380.331 171.27 383.403ZM141.727 384.362C138.658 388.01 140.385 390.89 145.564 390.89C149.209 390.89 150.168 384.362 146.715 382.251C145.372 381.675 143.07 382.635 141.727 384.362ZM127.723 383.403C128.491 384.746 128.107 385.898 126.764 385.898C125.421 385.898 123.503 384.746 122.736 383.403C121.968 382.059 122.352 380.907 123.695 380.907C125.038 380.907 126.764 382.059 127.723 383.403ZM343.541 372.843C342.198 376.491 342.581 376.683 345.843 373.995C348.912 371.499 350.255 371.499 352.749 374.571C355.626 378.027 354.475 379.371 349.679 378.603C346.802 378.219 347.569 382.827 350.639 384.746C352.365 385.898 350.255 388.202 345.075 391.082C334.332 396.842 330.496 396.842 330.304 391.466C330.304 387.818 329.92 387.626 328.002 390.89C326.083 393.962 325.124 393.962 322.438 391.274C319.753 388.586 320.136 387.434 323.973 384.362C327.618 381.675 327.81 380.715 325.124 380.715C323.014 380.715 320.136 381.867 318.794 383.403C317.259 384.938 315.532 385.13 314.765 383.787C313.998 382.635 318.985 379.563 325.7 377.067C332.414 374.571 338.553 371.691 339.32 370.348C341.814 366.7 345.267 368.428 343.541 372.843ZM156.499 382.827C153.046 385.706 153.046 385.706 156.883 384.362C159.185 383.595 161.295 383.787 161.487 384.938C161.679 386.09 162.062 389.546 162.446 392.426C162.83 395.306 163.789 398.953 164.556 400.297C165.515 401.833 164.172 402.409 160.911 401.449C157.65 400.681 156.691 399.529 158.609 398.377C160.528 397.226 160.336 395.69 157.842 393.578C154.964 391.082 154.005 391.274 153.43 394.346C152.662 397.609 150.936 397.418 141.344 393.002C135.205 390.122 131.56 387.242 133.287 386.666C137.123 385.13 137.507 380.715 133.67 381.483C132.136 381.867 130.409 380.715 129.642 378.987C127.915 374.379 136.356 371.883 139.042 376.107C140.768 378.987 141.152 378.987 141.344 376.299C141.344 374.379 139.234 372.459 136.548 371.691C133.862 370.923 131.176 369.004 130.601 367.276C130.025 365.548 136.356 367.66 144.989 371.883C158.226 378.603 159.952 380.139 156.499 382.827ZM368.863 363.628C366.369 367.852 372.124 372.651 375.577 369.196C378.455 366.316 376.728 360.94 372.892 360.94C371.549 360.94 369.822 362.284 368.863 363.628ZM106.813 364.396C103.744 368.044 105.47 370.924 110.65 370.924C114.295 370.924 115.254 364.396 111.801 362.284C110.458 361.708 108.348 362.476 106.813 364.396ZM400.516 339.822C401.667 345.197 406.08 345.581 407.039 340.398C407.614 337.71 406.271 335.982 403.778 335.982C401.475 335.982 400.133 337.518 400.516 339.822ZM75.3517 338.67C72.8578 342.894 78.613 347.693 82.066 344.238C84.9436 341.358 83.2171 335.982 79.3803 335.982C77.8456 335.982 76.1191 337.134 75.3517 338.67ZM49.6455 309.872C50.7965 315.248 55.2088 315.632 56.168 310.448C56.7435 307.76 55.4006 306.032 52.9067 306.032C50.6047 306.032 49.2618 307.568 49.6455 309.872ZM425.839 307.376C423.92 312.176 426.223 314.48 431.018 312.56C436.006 310.64 436.006 306.8 431.018 305.073C428.908 304.113 426.798 305.264 425.839 307.376ZM59.2374 294.705C59.2374 296.049 61.9231 300.657 65.1843 304.689C68.4456 308.72 71.3231 311.024 71.3231 309.68C71.3231 308.336 68.6374 303.729 65.3762 299.697C62.1149 295.665 59.4292 293.361 59.2374 294.705ZM39.2863 297.201C39.2863 299.313 38.9026 301.041 38.3271 301.041C37.7516 301.041 36.7924 299.313 35.8332 297.201C35.0658 295.089 35.4495 293.361 36.7924 293.361C38.1352 293.553 39.2863 295.089 39.2863 297.201ZM447.133 294.129C445.023 297.969 443.872 298.737 443.104 296.433C442.529 294.513 443.488 292.018 445.406 290.866C450.202 287.602 450.394 287.986 447.133 294.129ZM416.247 299.121C412.41 305.073 402.051 317.36 393.035 326.575C384.018 335.79 378.071 343.47 379.606 343.47C385.361 343.47 427.565 292.785 424.496 289.714C423.92 288.946 420.084 293.169 416.247 299.121ZM59.0455 285.298C79.5721 324.847 119.283 351.149 140.96 340.014C145.181 337.71 148.825 336.174 149.017 336.558C149.017 336.942 149.593 340.974 150.36 345.581C152.662 362.86 167.817 375.915 194.866 383.787C203.499 386.282 207.336 388.202 203.691 388.202C193.332 388.394 150.36 372.267 131.368 360.94C121.585 354.989 104.703 341.742 93.96 331.566C83.2171 321.391 74.3925 313.904 74.3925 315.248C74.3925 318.895 103.744 346.349 116.405 354.797C122.352 358.828 125.997 362.476 124.462 362.86C122.736 363.436 123.119 365.164 125.421 367.66C128.491 370.732 128.683 372.267 126.189 375.147C123.503 378.411 122.927 378.411 121.585 374.379C120.434 371.307 119.474 370.924 118.131 372.843C117.172 374.379 117.172 377.067 118.131 378.603C119.283 380.523 118.707 380.907 116.405 379.371C104.703 372.459 99.1396 367.276 100.291 364.204C101.058 362.284 100.482 360.748 99.1396 360.748C97.7967 360.748 96.6457 359.02 96.6457 356.909C96.6457 352.301 105.662 351.917 107.389 356.333C108.156 358.252 108.731 357.677 108.923 354.989C109.115 352.493 107.197 349.805 104.703 348.845C102.209 347.885 99.5232 345.773 98.3722 343.854C97.2212 341.934 94.5355 340.59 92.2334 340.59C88.7803 340.59 88.9722 341.166 93.0008 344.238C97.0294 347.117 97.2212 348.461 94.5355 351.149C91.8497 353.837 90.8906 353.837 88.9722 350.765C86.862 347.501 86.2865 347.501 84.1762 350.765C82.066 353.837 80.3395 353.261 73.6252 346.349C66.719 339.438 66.1435 337.71 69.2129 335.79C71.7068 334.254 71.8986 333.294 69.7884 333.294C65.3762 333.294 65.9517 328.303 70.7476 326.575C72.8578 325.807 75.7354 326.575 76.8864 328.495C78.613 331.375 78.9966 331.183 79.1885 327.727C79.1885 325.423 77.4619 322.351 75.1599 321.199C72.8578 319.855 71.7068 317.36 72.4742 315.44C73.2415 313.136 72.0905 311.984 69.4048 311.984C65.7598 311.984 65.568 312.752 67.8701 316.592C69.9803 320.047 69.7884 321.583 67.1027 323.311C62.8823 325.999 58.6619 324.079 60.9639 320.815C61.7313 319.471 61.1557 318.511 59.8129 318.511C55.7843 318.511 56.7435 325.999 60.9639 327.535C63.0741 328.303 64.6088 330.031 64.6088 331.566C64.6088 335.598 57.5108 328.687 49.4537 316.976C41.972 306.032 40.4373 302.193 44.4659 304.689C45.8087 305.456 47.5353 305.073 48.3026 303.537C49.07 302.193 48.6863 301.041 47.1516 301.041C45.6169 301.041 44.4659 299.313 44.4659 297.201C44.4659 292.018 51.1802 292.401 54.2496 297.777C56.5516 301.809 56.7435 301.809 56.9353 297.969C56.9353 295.665 55.0169 292.593 52.7149 291.25C50.4128 289.906 49.2618 287.986 50.221 287.026C51.1802 286.066 53.6741 287.218 55.7843 289.906C60.5802 296.241 60.5802 292.593 55.7843 283.378C53.6741 279.346 52.5231 276.083 53.2904 276.083C54.0578 276.083 56.3598 280.306 59.0455 285.298ZM29.3107 276.275C29.3107 282.418 35.0658 281.458 36.4087 275.315C36.7924 272.819 35.6414 271.091 33.3393 271.091C31.0373 270.899 29.3107 273.203 29.3107 276.275ZM446.557 270.131C445.598 271.091 444.831 273.203 444.831 275.123C444.831 278.771 451.161 279.73 453.272 276.275C455.19 273.587 448.859 267.827 446.557 270.131ZM34.874 263.028C34.1067 266.675 38.5189 267.059 39.6699 263.412C40.2455 261.876 43.123 266.099 46.3843 272.627C50.7965 281.65 51.1802 283.57 48.1108 281.074C44.4659 278.003 44.274 278.387 45.6169 284.338C46.9598 289.906 46.3843 291.058 42.1638 291.058C38.3271 291.058 37.3679 289.906 38.3271 286.642C39.6699 282.61 39.4781 282.61 36.2169 286.45C32.9556 290.29 32.1883 289.714 27.3923 279.538C20.8699 266.099 20.8699 265.716 26.2413 267.827C29.8862 269.171 30.0781 268.787 27.5842 265.715C25.8576 263.604 25.2821 261.108 26.2413 260.148C28.7352 257.46 35.6414 259.764 34.874 263.028ZM21.8291 260.532C21.8291 264.18 21.4454 264.18 19.3352 260.916C16.2658 256.116 16.2658 252.66 19.3352 254.58C20.678 255.54 21.8291 258.228 21.8291 260.532ZM39.2863 256.692C39.2863 257.844 38.1352 258.036 36.7924 257.076C35.4495 256.308 34.2985 253.62 34.2985 251.317C34.2985 247.669 34.6822 247.669 36.7924 250.933C38.1352 253.044 39.2863 255.732 39.2863 256.692ZM448.284 249.589C449.051 251.509 448.092 253.62 446.365 254.388C444.063 255.348 443.488 254.196 444.255 250.933C445.79 244.981 446.557 244.789 448.284 249.589ZM14.9229 237.686C15.8821 243.253 23.1719 244.021 23.1719 238.646C23.1719 236.534 21.0617 234.614 18.5678 234.038C15.3066 233.27 14.1556 234.23 14.9229 237.686ZM458.451 233.654C455.957 237.878 461.712 242.677 465.166 239.221C468.043 236.342 466.317 230.966 462.48 230.966C461.137 230.966 459.41 232.31 458.451 233.654ZM11.8535 221.175C11.8535 222.519 10.7025 223.479 9.35961 223.479C8.01675 223.479 6.86573 221.751 6.86573 219.639C6.86573 217.527 8.01675 216.375 9.35961 217.335C10.7025 218.295 11.8535 219.831 11.8535 221.175ZM474.757 217.335C474.757 219.447 473.606 220.599 472.264 219.639C470.921 218.679 470.345 216.951 471.112 215.799C473.415 212.344 474.757 212.92 474.757 217.335ZM30.6536 229.43C35.2577 246.901 35.2577 246.133 30.0781 244.213C26.4332 242.869 26.2413 243.253 28.7352 246.325C32.1883 250.549 28.927 257.652 24.7066 254.964C23.1719 254.004 22.5964 252.085 23.5556 250.549C24.5148 248.821 23.3638 248.629 20.1025 249.589C16.0739 250.933 14.7311 249.781 13.3882 244.213C12.429 240.373 11.0862 235.382 10.5106 232.886C9.55145 229.622 10.3188 228.854 13.3882 230.198C16.8413 231.542 17.225 230.774 15.8821 226.167C14.3474 221.559 14.9229 220.791 18.7597 221.559C21.4454 222.135 23.1719 224.439 22.9801 227.126C22.5964 230.582 23.3638 230.966 25.474 228.854C27.5842 226.742 27.5842 224.823 25.474 221.367C23.9393 218.871 23.1719 215.991 24.1311 215.223C26.0495 212.728 26.625 214.071 30.6536 229.43ZM8.01675 196.217C5.90654 199.673 10.7025 204.472 14.1556 202.36C15.6903 201.4 16.8413 199.097 16.8413 196.985C16.8413 192.953 10.5106 192.185 8.01675 196.217ZM225.56 177.786C227.287 178.554 229.589 178.362 230.356 177.594C231.124 176.826 229.781 176.25 227.095 176.25C224.026 176.25 223.45 176.826 225.56 177.786ZM477.251 183.738C477.251 194.681 476.676 196.025 473.606 193.529C469.386 190.073 464.782 192.185 464.782 197.561C464.782 200.248 466.317 201.016 469.77 200.056C474.374 198.905 475.141 199.673 474.566 205.24C474.566 206.2 472.839 206.776 470.921 206.392C468.619 205.816 467.851 206.968 469.002 209.848C470.153 212.92 469.386 213.687 465.933 212.919C463.247 212.344 461.329 210.04 461.521 207.736C461.712 205.432 460.753 204.088 459.41 205.048C458.068 205.816 457.492 208.696 458.259 211.192C459.027 213.879 458.451 215.991 457.3 215.991C456.149 215.991 455.19 218.487 455.382 221.559C455.574 225.399 455.957 225.975 456.725 223.095C458.068 218.103 464.206 215.223 466.317 218.679C467.084 220.023 466.892 222.327 465.933 224.055C464.782 225.975 465.549 226.55 468.235 225.399C473.223 223.479 473.223 223.479 469.578 237.302C467.659 244.981 465.741 247.861 463.439 246.901C461.329 246.133 459.986 247.285 459.986 249.781C459.986 252.085 458.643 253.428 456.917 252.852C455.19 252.277 453.847 249.205 454.039 246.325C454.231 242.677 453.08 241.333 450.778 242.101C448.092 243.061 447.708 242.101 449.051 237.878C450.01 234.806 452.888 220.983 455.19 207.352C457.684 193.529 459.602 183.738 459.794 185.466C459.986 187.193 460.945 188.537 462.288 188.537C463.439 188.537 464.015 186.234 463.247 183.546C462.288 179.706 463.247 178.554 467.276 178.554C470.153 178.554 472.455 179.706 472.455 181.05C472.455 182.394 471.304 183.546 469.77 183.546C468.235 183.546 467.851 184.698 468.619 186.042C471.304 190.457 475.333 185.658 473.798 179.898C472.647 175.098 473.798 171.067 476.484 171.067C476.868 171.067 477.251 176.826 477.251 183.738ZM460.753 177.402C458.835 182.586 457.3 182.01 457.3 175.866C457.3 172.987 458.451 171.451 459.602 172.219C461.137 172.987 461.521 175.29 460.753 177.402ZM8.01675 156.284C5.52286 160.507 11.278 165.307 14.7311 161.851C17.6086 158.972 15.8821 153.596 12.0453 153.596C10.7025 153.404 8.97594 154.748 8.01675 156.284ZM465.933 153.788C463.439 158.012 469.194 162.811 472.647 159.356C475.525 156.476 473.798 151.1 469.961 151.1C468.619 150.908 466.892 152.252 465.933 153.788ZM26.0495 150.14C25.0903 156.476 24.5148 163.963 24.5148 166.651C24.5148 170.683 23.7474 171.067 21.0617 168.571C18.1841 166.075 17.8005 166.459 18.7597 170.491C19.527 173.371 18.5678 175.866 16.0739 176.826C11.6617 178.554 8.40043 174.906 10.8943 171.067C11.6617 169.723 11.278 168.571 9.74329 168.571C4.18 168.571 7.2494 178.746 13.58 181.242C17.8005 182.778 19.527 185.082 18.5678 187.385C17.8005 189.497 18.376 191.033 19.9107 191.033C21.4454 191.033 22.0209 188.345 21.4454 184.89C20.8699 181.626 21.2535 177.402 22.4046 175.482C23.7474 173.562 24.5148 177.594 24.5148 185.85C24.5148 193.337 25.0903 202.36 25.8576 205.816C26.625 209.272 26.4332 210.616 25.6658 208.888C23.5556 204.28 20.1025 205.048 20.4862 210.04C20.678 212.344 18.7597 214.839 16.0739 215.223C12.429 215.991 11.6617 215.223 13.0045 211.96C14.1556 208.888 13.58 208.12 11.0862 209.08C6.86573 210.616 4.56368 205.816 4.56368 195.641C4.56368 190.265 5.52286 188.729 8.20859 189.881C10.3188 190.649 11.8535 190.073 11.8535 188.729C11.8535 187.385 10.127 184.506 8.20859 182.394C5.7147 179.898 4.56368 173.562 4.56368 162.043C4.56368 146.685 4.94735 145.533 9.55145 147.069C13.3882 148.22 14.1556 147.836 13.0045 144.573C11.8535 141.501 12.6209 140.733 16.0739 141.309C18.7597 141.885 20.678 144.189 20.4862 146.493C20.2944 148.796 21.2535 150.716 22.5964 150.716C23.9393 150.716 24.5148 147.836 23.9393 144.381C23.3638 140.925 23.9393 138.045 25.2821 138.045C26.625 138.429 27.0087 143.037 26.0495 150.14ZM469.194 136.701C470.345 133.246 474.757 134.973 474.757 138.813C474.757 140.157 473.798 140.733 472.455 139.965C471.304 139.197 469.578 140.349 468.619 142.653C467.468 145.341 468.235 146.301 470.537 145.341C474.374 143.805 476.868 150.332 477.059 161.659C477.059 166.651 476.1 167.995 473.415 167.035C470.729 165.883 470.153 166.651 471.304 169.915C472.455 173.179 471.88 173.946 468.235 173.179C465.549 172.603 463.631 170.299 463.823 167.995C464.015 165.691 463.247 163.771 461.904 163.771C460.561 163.771 459.602 165.115 459.41 166.843C459.027 170.491 455.382 157.052 454.998 150.716C454.806 148.028 455.957 146.877 458.259 147.836C460.753 148.796 461.521 147.836 460.561 144.189C459.794 141.309 458.068 139.389 456.725 139.581C455.382 139.965 453.655 138.813 453.08 137.085C452.312 134.781 453.847 134.781 459.986 137.085C466.508 139.197 468.427 139.005 469.194 136.701ZM10.5106 135.741C11.278 137.085 10.8943 138.813 9.35961 139.581C8.01675 140.349 6.86573 139.389 6.86573 137.277C6.86573 133.054 8.40043 132.286 10.5106 135.741ZM15.4984 116.159C13.0045 120.383 18.7597 125.182 22.2127 121.726C25.0903 118.847 23.3638 113.471 19.527 113.471C18.1841 113.471 16.4576 114.815 15.4984 116.159ZM459.027 112.703C455.574 116.159 457.492 121.15 462.48 121.15C465.933 121.15 467.468 119.807 466.892 116.927C466.125 112.319 461.712 110.015 459.027 112.703ZM28.5434 109.055C27.5842 112.511 28.3515 113.663 30.8454 112.511C33.723 111.359 34.1067 112.703 32.7638 117.887C30.4617 127.678 27.2005 135.165 27.0087 131.518C27.0087 129.79 25.6658 128.446 24.1311 128.446C22.5964 128.446 22.0209 129.406 22.7882 130.75C23.5556 131.902 22.5964 134.205 20.678 135.933C16.6494 139.389 12.8127 135.357 15.6903 130.75C16.8413 128.83 16.0739 128.254 13.3882 129.406C8.59226 131.326 8.20859 128.638 11.8535 115.391C14.1556 106.944 14.9229 106.176 18.5678 109.055C22.0209 111.935 22.4046 111.743 21.0617 108.095C20.1025 105.792 20.8699 103.488 22.4046 102.72C27.3923 100.992 29.8862 103.68 28.5434 109.055ZM458.451 103.872C457.492 105.408 458.643 105.792 461.712 104.832C465.933 103.488 466.892 105.024 469.194 114.623C471.304 124.03 471.112 125.758 468.427 124.798C466.508 124.03 464.398 124.606 463.631 125.95C462.863 127.294 463.439 128.254 464.782 128.254C466.317 128.254 467.468 129.406 467.468 130.942C467.468 132.478 465.549 133.246 463.055 132.67C460.753 132.094 458.835 129.79 459.027 127.486C459.219 124.222 458.643 123.838 456.341 125.758C454.039 127.678 452.504 126.718 450.394 121.918C446.941 114.239 446.557 107.52 450.01 109.631C451.545 110.591 451.737 109.439 450.97 106.944C450.01 104.64 450.778 101.952 452.696 100.8C456.725 98.3042 460.561 100.416 458.451 103.872ZM446.174 120.575C456.341 159.74 455.766 204.472 444.639 240.373C440.035 255.156 440.035 257.076 443.488 260.532C447.133 264.18 447.517 264.18 447.517 260.148C447.517 257.46 449.435 255.924 452.504 255.924C458.068 255.924 459.219 259.956 454.423 261.684C452.696 262.26 452.121 263.604 453.08 264.564C455.766 267.443 460.178 263.604 460.178 258.228C460.178 255.54 461.329 253.428 462.672 253.428C466.125 253.428 466.125 253.62 458.643 270.707C454.998 278.962 450.97 285.106 449.627 284.338C448.284 283.57 446.365 284.338 445.214 286.066C444.063 287.794 441.378 288.562 439.076 287.602C435.814 286.258 435.623 284.914 437.733 281.074C440.035 276.851 439.651 276.275 436.39 277.619C432.745 278.962 432.745 278.579 436.39 271.475C438.5 267.251 440.227 262.26 440.227 260.532C440.035 256.884 425.647 283.378 425.647 287.218C425.647 288.562 427.182 287.602 429.292 284.914C431.402 282.226 432.937 281.458 432.937 283.186C432.937 284.914 431.21 287.986 429.1 290.098C426.99 292.209 426.223 295.089 427.182 296.817C428.333 298.737 429.292 298.353 429.867 295.281C430.251 292.785 432.169 290.866 434.088 290.866C438.884 290.866 441.57 296.049 437.733 298.353C435.431 299.889 435.623 300.465 438.692 301.233C442.337 302.001 441.953 303.345 436.39 311.6C431.21 319.279 429.292 320.623 426.414 318.128C423.537 315.824 422.961 316.016 422.961 319.471C422.961 321.775 421.618 323.311 419.892 322.735C418.165 322.159 416.822 319.279 417.014 316.208C417.206 308.912 415.096 309.488 408.573 318.32C402.818 326.191 401.092 331.375 406.08 326.383C410.3 322.159 415.48 322.543 415.48 327.151C415.48 329.263 414.329 330.991 412.794 330.991C411.259 330.991 410.876 332.334 412.027 333.87C413.178 335.79 415.288 335.022 418.549 330.991C421.043 327.727 423.729 325.615 424.304 326.191C424.88 326.767 420.276 332.718 414.137 339.246C404.929 349.037 402.243 350.765 399.365 348.269C396.871 346.157 395.72 346.157 395.72 348.077C395.72 349.613 393.994 350.957 392.075 350.957C386.896 350.957 387.28 344.238 392.651 341.166C396.871 338.67 396.68 338.67 392.651 338.478C390.157 338.478 387.663 340.014 386.896 341.934C386.128 343.854 383.443 345.965 380.757 346.733C378.071 347.501 375.961 349.997 375.961 352.685C375.961 356.333 376.537 356.525 378.263 353.837C379.414 351.917 382.292 350.957 384.402 351.917C389.773 354.029 389.582 358.636 384.21 358.636C380.949 358.636 380.565 359.404 382.867 361.708C385.169 364.012 386.896 363.436 390.924 359.212C393.802 356.141 396.871 353.837 397.831 353.837C400.9 354.029 380.373 371.116 367.904 378.795C361.381 382.827 356.01 384.938 356.01 383.595C356.01 382.251 358.888 379.947 362.149 378.603C365.602 377.259 368.288 375.147 368.288 373.611C368.288 369.964 363.875 370.348 362.532 374.187C361.573 376.683 360.614 376.683 357.928 373.995C355.051 371.116 355.243 370.156 359.079 367.276C361.573 365.356 362.532 363.244 361.19 362.476C359.847 361.708 357.545 362.668 355.818 364.78C354.092 366.892 351.022 368.428 348.912 368.428C346.802 368.428 351.79 364.012 360.039 358.636C373.851 349.613 380.757 343.47 376.728 343.47C375.769 343.47 370.973 346.733 365.986 350.573C345.459 366.7 294.238 388.778 278.124 388.202C274.863 388.01 279.083 386.09 287.332 383.595C314.189 375.915 330.687 361.516 330.687 345.581C330.687 336.75 332.414 335.598 340.279 339.822C365.026 352.685 403.969 323.311 429.292 272.819C449.435 232.694 450.202 198.713 431.402 183.738L424.496 178.17L432.745 170.107C437.157 165.691 441.953 159.548 443.104 156.284C446.557 147.452 445.79 125.566 441.57 111.743C437.349 97.7283 436.965 95.4245 440.227 100.8C440.994 103.104 443.872 111.935 446.174 120.575ZM37.5597 103.68C36.6005 107.52 35.4495 108.095 33.5311 105.984C31.4209 103.872 31.8046 102.528 34.4903 100.8C36.6005 99.4561 38.3271 98.4962 38.5189 98.4962C38.7108 98.4962 38.3271 100.8 37.5597 103.68ZM464.782 99.4561C464.782 100.608 463.247 100.224 461.137 98.4962C459.027 96.7683 458.068 94.2725 459.027 92.9286C460.561 90.4328 464.782 95.0405 464.782 99.4561ZM20.8699 100.416C18.1841 103.104 16.8413 99.2641 18.5678 94.4645C20.2944 90.0488 20.4862 89.8569 21.2535 94.2725C21.8291 96.7683 21.6372 99.4561 20.8699 100.416ZM27.9679 78.7217C25.474 82.9454 31.2291 87.745 34.6822 84.2893C37.5597 81.4095 35.8332 76.0339 31.9964 76.0339C30.6536 76.0339 28.927 77.1858 27.9679 78.7217ZM446.557 75.266C443.488 78.3377 445.023 83.5213 448.668 83.5213C450.778 83.5213 452.312 81.9855 452.312 79.8736C452.504 75.6499 448.859 72.9621 446.557 75.266ZM52.7149 69.6984C51.9475 71.8102 50.7965 73.5381 50.221 73.5381C49.6455 73.5381 49.2618 71.8102 49.2618 69.6984C49.2618 67.5865 50.4128 65.8587 51.7557 65.8587C53.0986 66.0507 53.4822 67.7785 52.7149 69.6984ZM43.6985 72.0022C42.9312 76.4179 43.5067 77.5698 46.0006 76.6099C48.6863 75.6499 48.4945 77.3778 45.0414 85.0572C39.2863 97.7283 39.2863 97.7283 36.6005 93.5046C34.6822 90.4328 34.2985 90.6248 34.2985 94.2725C34.2985 96.9603 32.3801 98.6882 29.3107 98.6882C23.9393 98.6882 22.2127 93.6966 27.3923 93.6966C29.3107 93.6966 28.7352 92.3527 26.0495 90.2408C21.8291 86.9771 21.8291 86.4011 25.8576 77.9538C29.1189 71.0423 30.8454 69.5064 33.3393 71.8102C35.8332 73.9221 36.6005 73.5381 36.6005 70.4663C36.6005 68.1625 38.3271 66.4346 40.6291 66.4346C43.6985 66.0507 44.4659 67.5866 43.6985 72.0022ZM39.2863 58.1793C39.2863 60.8671 37.5597 63.5549 35.6414 64.3228C32.572 65.4747 32.572 64.7068 34.874 59.5232C38.1352 52.2277 39.2863 51.8438 39.2863 58.1793ZM47.919 43.7804C45.4251 48.004 51.1802 52.8037 54.6333 49.3479C57.5108 46.4682 55.7843 41.0926 51.9475 41.0926C50.6047 41.0926 48.8781 42.2445 47.919 43.7804ZM425.263 41.8605C422.194 45.5082 423.92 48.388 429.1 48.388C432.745 48.388 433.704 41.8605 430.251 39.7487C429.1 39.1727 426.798 40.1326 425.263 41.8605ZM221.916 24.1979C226.136 33.0292 226.136 33.9891 222.491 39.7487C215.585 50.3079 201.197 45.1243 204.842 33.6051C205.801 30.7254 205.418 28.4215 204.075 28.4215C200.813 28.4215 191.222 40.7086 191.222 44.7403C191.222 46.4682 193.524 50.6918 196.401 54.3396C203.115 62.9789 219.805 63.5549 228.438 55.4915L234.193 50.1159L232.467 60.2911C230.548 71.4263 238.03 115.007 241.291 111.743C245.32 107.52 250.883 69.6984 248.773 60.2911L246.663 51.0758L252.993 56.0674C266.997 67.0106 289.059 60.0991 289.059 44.7403C289.059 37.6368 282.153 28.4215 276.781 28.4215C274.095 28.4215 273.904 29.5735 276.206 33.7971C280.042 41.0926 274.095 47.2361 265.079 45.1243C257.214 43.2044 254.528 33.9891 258.94 24.5818C263.928 14.5986 268.916 12.1028 280.042 14.9826C307.667 21.894 302.487 66.0507 267.189 125.182C258.365 139.965 251.075 154.172 251.075 156.476C251.075 158.78 249.924 161.467 248.581 162.235C247.238 163.003 246.087 165.115 246.087 166.651C246.087 171.643 265.079 143.229 277.548 119.807C285.989 103.68 294.622 91.9687 308.242 78.1458C330.304 55.4915 340.855 50.8838 355.243 57.9873C371.741 66.0507 371.165 86.2092 354.283 92.1607C348.336 94.2725 346.61 93.8885 342.581 88.8969C337.018 81.9855 338.553 76.9939 347.377 73.9221L354.092 71.6182L346.994 68.7385C337.21 64.8988 333.565 65.2827 327.81 70.8503C320.52 78.1458 321.287 90.2408 329.536 98.8802C333.181 102.72 337.785 105.984 339.512 105.984C345.843 105.984 342.773 110.015 333.949 113.087C324.549 116.543 293.279 143.997 297.308 145.341C301.336 146.685 341.238 130.942 346.61 125.758C351.79 120.959 351.79 120.958 350.639 128.062C348.72 141.693 360.422 155.9 373.851 155.9C380.182 155.9 387.471 146.301 387.28 137.853V129.79L382.675 135.357C377.112 142.077 374.235 142.269 369.055 137.085C363.684 131.71 364.067 127.102 370.59 121.15C380.949 111.551 395.337 115.583 399.941 129.79C408.765 156.86 371.932 173.371 300.377 174.714C280.618 175.098 260.859 175.674 256.83 176.058L249.348 176.634L257.981 178.746C262.777 179.898 282.92 180.858 302.871 180.858C355.051 181.05 387.088 189.881 397.639 206.776C403.202 215.799 402.435 226.55 395.72 234.038C390.157 240.181 376.345 239.989 370.014 233.654C363.875 227.51 363.875 225.783 369.822 218.295L374.618 212.344L381.141 218.487L387.663 224.631V217.911C387.663 211.384 378.071 198.905 373.084 198.905C360.614 198.905 348.72 213.879 351.406 226.742L352.749 233.846L343.349 227.702C334.524 221.751 298.075 207.928 296.349 209.848C294.238 211.96 324.165 237.302 334.716 242.101C344.308 246.517 345.459 247.669 341.047 248.437C337.977 248.821 332.606 252.661 329.153 256.884C314.573 274.355 328.961 296.625 348.336 286.258C353.324 283.57 353.324 283.378 345.651 280.114C336.443 276.275 336.059 274.163 342.581 266.291C346.61 261.3 348.336 260.724 354.283 262.836C370.781 268.595 371.549 287.986 355.626 297.393C343.541 304.497 331.838 300.081 312.079 281.458C294.622 264.948 290.785 259.956 267.957 220.407C259.324 205.432 251.842 194.297 251.267 195.833C250.116 199.097 259.516 217.911 273.328 240.565C292.32 271.859 302.295 313.328 294.622 328.495C287.14 343.086 269.875 346.349 260.859 335.022C254.336 326.767 254.336 318.703 260.667 312.944C264.887 309.104 266.614 308.912 272.177 311.408C276.397 313.328 278.124 315.632 277.165 318.128C272.177 330.607 272.177 330.031 277.74 326.959C286.757 322.159 290.977 313.328 288.291 306.032C283.495 293.361 263.928 289.906 253.377 299.697L247.622 305.264L249.156 295.665C250.691 286.066 244.744 247.285 241.099 243.445C237.838 240.181 230.356 283.57 232.275 294.705L234.001 304.689L226.712 299.313C210.405 287.218 186.617 299.313 193.524 316.208C195.25 320.239 199.279 324.847 202.54 326.191C208.295 328.879 208.295 328.687 205.801 322.927C203.691 318.32 203.883 316.016 206.185 312.944C213.091 304.689 224.601 311.792 224.218 324.079C223.642 341.358 205.993 347.693 191.989 335.598C185.466 330.031 185.083 328.303 185.083 311.216C185.275 287.986 191.989 267.827 209.638 237.878C223.258 214.647 236.303 188.729 234.961 187.385C233.618 186.042 217.695 211.576 204.65 235.382C182.589 274.931 147.099 305.648 129.834 299.313C121.201 296.241 114.103 287.602 114.103 280.306C114.103 272.051 123.887 260.916 130.985 260.916C142.687 260.916 145.948 277.235 135.013 279.922C128.874 281.458 128.683 281.842 133.095 284.914C139.809 289.906 148.25 288.946 154.005 282.802C163.597 272.435 158.417 255.924 143.454 249.589L135.972 246.325L146.907 241.333C156.883 236.726 187.96 211.384 185.85 209.272C182.973 206.392 141.919 222.711 133.862 230.006C130.217 233.27 129.834 232.886 130.025 224.823C130.409 212.919 125.229 204.088 116.213 200.824C112.185 199.289 107.772 198.137 106.621 198.137C102.017 198.137 94.5355 209.656 94.5355 216.567V224.055L99.5232 218.679C102.401 215.607 105.47 213.112 106.429 213.112C110.266 213.112 114.295 219.255 114.295 225.207C114.295 238.646 93.5763 243.061 84.5599 231.542C73.6252 217.527 80.3395 202.744 102.784 192.185C119.858 184.122 140.768 180.858 177.793 180.474C217.311 180.09 229.589 177.402 203.883 174.714C193.524 173.755 178.56 173.371 170.311 174.138C162.062 174.906 150.936 174.522 145.372 173.371C139.809 172.219 131.176 170.683 125.805 169.723C112.185 167.611 93.1926 158.972 86.4783 151.676C78.4211 143.037 78.4211 127.102 86.4783 120.575C93.5763 114.815 101.25 114.623 108.731 119.807C115.446 124.606 115.254 135.165 108.348 139.389C104.703 141.693 102.976 140.925 99.1396 135.933L94.3436 129.598V137.661C94.3436 146.301 101.442 155.708 108.156 155.708C121.393 155.708 133.862 139.773 130.601 126.718L128.874 119.999L136.356 126.334C142.879 131.902 178.177 145.725 185.083 145.533C189.303 145.341 158.226 118.271 148.442 113.663C137.891 108.671 136.932 106.56 144.03 104.256C150.744 102.144 158.993 91.0088 158.993 84.2893C158.993 76.4179 149.785 65.4747 143.07 65.4747C140.001 65.4747 135.397 67.0106 132.903 68.9305C128.491 72.1942 128.683 72.3862 134.821 73.9221C139.617 75.074 141.344 77.1858 141.344 81.2175C141.344 93.8885 127.532 97.1523 119.091 86.4011C109.882 74.69 113.527 62.403 128.107 56.4514C136.356 52.9957 137.699 53.1877 150.168 59.3312C164.556 66.4346 189.687 91.9687 197.744 107.712C211.748 135.357 235.92 172.603 235.92 166.843C235.92 163.771 217.887 129.406 207.144 112.319C191.989 87.937 185.083 66.2427 184.891 43.3964C184.891 26.3097 185.275 24.5818 191.989 18.8223C197.36 14.2146 201.389 12.8707 208.103 13.4467C215.969 14.5986 217.887 16.1345 221.916 24.1979ZM74.2007 14.7906C74.2007 16.9024 75.9272 18.6303 77.8456 18.6303C79.9558 18.6303 81.4905 16.9024 81.4905 14.7906C81.4905 12.6787 79.764 10.9509 77.8456 10.9509C75.9272 10.9509 74.2007 12.6787 74.2007 14.7906ZM398.79 11.1428C396.296 15.3665 402.051 20.1662 405.504 16.7104C408.382 13.8306 406.655 8.45506 402.818 8.45506C401.475 8.45506 399.749 9.79895 398.79 11.1428ZM194.291 2.11954C177.217 9.60697 171.27 35.909 179.903 64.8988C182.013 71.6182 183.548 77.3778 183.548 77.7618C183.548 77.9538 178.177 72.7702 171.462 66.0507C144.03 38.4048 120.242 36.2929 102.209 60.0991C96.6457 67.5865 95.3028 71.6183 95.4947 82.5614C95.6865 93.5046 94.9191 96.0004 91.6579 96.0004C80.1477 96.0004 66.5272 116.159 66.5272 133.054C66.5272 152.444 80.5313 164.923 112.376 173.562L127.148 177.594L109.882 181.818C78.613 189.689 64.9925 203.896 67.1027 226.358C68.4456 240.757 74.7762 250.357 86.4783 256.308C94.3436 260.34 94.9191 261.492 95.3028 273.395C95.6865 293.169 112.376 310.832 130.985 310.832C142.495 310.832 162.254 299.505 174.34 286.066C184.507 274.739 185.275 275.315 179.903 290.866C177.793 296.625 176.258 308.336 176.258 316.784C176.258 342.51 188.728 355.757 212.516 355.757C223.258 355.757 238.605 349.613 238.605 345.389C238.605 344.43 242.634 346.349 247.622 349.613C264.312 360.94 290.977 356.333 300.761 340.398C307.283 329.839 307.283 307.184 301.144 288.946L296.54 275.891L310.928 289.714C333.181 311.024 350.639 316.016 367.328 305.84C378.839 298.737 385.361 286.834 385.361 273.011C385.361 262.068 385.937 261.108 394.761 256.692C405.12 251.317 415.288 234.614 415.288 222.711C415.288 212.728 408.382 198.905 400.708 193.913C397.255 191.609 385.553 186.81 374.618 183.354L354.859 176.826L371.741 172.603C399.557 165.691 415.096 151.1 415.096 131.71C415.096 119.807 404.929 103.104 394.569 97.7283C385.937 93.3126 385.169 92.1607 385.169 81.7935C385.169 75.6499 383.443 67.3946 381.333 63.3629C376.153 53.1877 360.998 43.3964 350.255 43.3964C338.936 43.3964 319.177 54.9155 307.091 68.1625C296.732 79.6816 296.54 79.4897 301.72 62.403C306.324 46.8521 306.516 28.2296 301.912 17.2864C294.622 -0.184292 265.079 -7.28775 248.197 4.42336L239.565 10.3749L232.467 4.42336C224.409 -2.48812 207.336 -3.44804 194.291 2.11954ZM410.684 20.3582C408.382 22.278 407.806 23.2379 409.341 22.47C410.876 21.702 412.986 22.086 413.945 23.6219C416.439 27.4616 408.19 29.5735 403.969 26.1177C401.667 24.1979 400.324 24.0059 400.324 25.7337C400.324 27.2696 402.435 29.9574 404.929 31.6853C407.422 33.4132 410.108 36.8689 411.067 39.3647C412.027 41.8605 414.137 43.7804 415.671 43.7804C417.974 43.7804 418.165 43.2044 415.671 40.7086C411.451 36.4849 412.027 31.3013 416.439 31.3013C418.549 31.3013 420.084 32.4532 420.084 33.7971C420.084 35.141 421.235 36.2929 422.578 36.2929C426.798 36.2929 425.455 29.1895 420.659 26.6937C418.357 25.3498 417.014 23.4299 417.974 22.662C419.508 21.1261 440.035 46.2762 440.035 49.7319C440.035 50.6918 438.116 51.4598 435.623 51.6518C432.937 51.8438 432.553 52.4197 434.472 53.1877C438.884 54.9155 438.308 61.443 433.704 61.443C431.594 61.443 429.1 59.5232 428.333 57.2193C426.798 53.3796 426.606 53.3796 425.263 57.4113C423.92 61.0591 422.578 60.2911 417.398 52.2277C413.945 46.8521 405.12 36.101 398.022 28.2296C387.855 16.9024 385.937 13.8307 389.582 13.6387C393.802 13.4467 393.802 13.2547 389.773 12.2948C387.471 11.7188 385.361 9.60696 385.361 7.68711C385.361 2.69549 390.541 0.19968 393.035 4.23138C394.186 6.15123 395.912 6.91917 396.68 5.95924C398.982 3.65542 395.529 -0.952232 391.5 -0.952232C389.582 -0.952232 387.855 -2.87209 387.855 -5.17591C387.855 -8.05569 392.075 -5.17591 401.475 4.03939C413.753 15.7505 414.52 17.0944 410.684 20.3582ZM367.904 -12.8553C367.904 -10.9355 368.863 -8.63165 370.206 -7.8637C372.892 -6.13584 378.455 -12.4714 376.345 -14.7752C373.084 -17.8469 367.904 -16.503 367.904 -12.8553ZM351.406 -12.6633C352.557 -9.39959 351.981 -9.39959 347.377 -11.7034C339.512 -15.9271 339.128 -16.503 344.883 -16.503C347.569 -16.503 350.447 -14.7752 351.406 -12.6633ZM105.662 -14.9672C102.209 -11.5114 103.936 -6.13584 108.348 -7.09576C110.65 -7.47974 112.76 -9.59158 112.76 -11.5114C112.76 -15.3511 108.348 -17.463 105.662 -14.9672ZM380.949 -7.47974C376.92 -4.21598 376.92 -4.024 380.757 -5.55988C383.635 -6.51981 385.169 -5.75187 385.169 -3.25605C385.169 2.31152 378.263 4.03939 375.386 -0.952232C373.084 -4.98392 372.892 -4.79194 372.892 -0.56826C372.892 1.92755 375.002 4.61534 377.879 5.38329C380.565 6.15123 382.867 8.26307 382.867 10.1829C382.867 12.2948 377.304 9.41499 369.247 3.07947C361.765 -2.6801 356.777 -7.86371 358.12 -8.43966C359.463 -9.01562 358.696 -10.7435 356.202 -12.6633C352.557 -15.3511 352.365 -16.5031 354.859 -19.1908C357.545 -21.8786 358.504 -21.8786 360.23 -18.9989C361.765 -16.695 362.724 -16.503 364.067 -18.4229C365.026 -19.9588 365.026 -22.4546 364.067 -23.9905C363.108 -25.5264 367.52 -23.2225 374.043 -18.8069C384.786 -11.5114 385.169 -10.7435 380.949 -7.47974ZM360.422 -27.6382C360.422 -24.7584 355.626 -24.7584 354.667 -27.6382C353.708 -30.134 354.475 -30.71 356.969 -29.942C358.696 -29.1741 360.422 -28.0222 360.422 -27.6382ZM270.642 -28.7901C291.361 -25.3344 308.051 -18.0389 317.642 -8.05569C326.467 0.967625 330.879 16.1345 324.932 16.1345C318.794 16.1345 313.038 24.7738 311.696 36.2929C309.777 52.6117 312.847 55.6835 324.165 48.772C335.867 41.4765 341.43 33.0292 339.512 25.1578C337.785 18.2463 341.239 16.1345 353.516 16.1345C380.182 16.1345 419.508 59.3312 434.855 105.408C440.994 124.03 441.57 148.22 436.006 159.932C431.21 170.107 427.182 171.835 418.549 167.419C414.137 165.115 409.724 164.731 404.929 166.075C396.488 168.571 382.675 176.442 382.675 178.938C382.675 182.01 403.778 191.033 410.684 191.033C414.329 191.033 419.125 189.113 421.235 187.001C425.072 183.162 425.839 183.354 431.594 189.113C453.08 210.808 434.855 274.739 395.72 315.056C380.182 330.991 366.561 338.67 353.708 338.67C341.622 338.67 338.553 336.558 338.745 327.919C338.745 320.047 332.798 312.368 322.63 307.184C312.463 301.809 310.736 302.769 310.736 313.52C310.736 327.151 314.573 335.79 322.055 339.246C327.234 341.55 328.194 343.47 327.043 348.269C324.357 358.636 318.602 365.356 305.94 372.267C262.969 395.69 176.834 387.434 158.993 358.06C153.238 348.461 152.47 338.862 157.842 338.862C163.789 338.862 169.544 327.343 169.736 315.248C169.736 308.912 169.16 303.153 168.393 302.385C166.091 300.081 149.401 311.216 144.989 317.936C142.687 321.391 141.727 326.383 142.687 329.839C144.413 336.75 140.96 338.862 127.723 338.862C103.936 338.862 74.3925 310.064 54.4414 267.635C37.5597 231.734 36.2169 202.744 50.6047 189.113C56.168 183.738 56.9353 183.738 62.4986 187.385C69.0211 191.801 79.9558 189.881 90.8906 182.586C98.9477 177.402 98.3722 175.674 87.0538 169.339C75.5436 162.811 66.1435 162.427 60.5802 167.995C56.7435 171.835 55.9761 171.643 50.221 165.883C17.225 132.286 78.4211 16.1345 128.874 16.1345C140.193 16.1345 144.797 19.2062 142.879 25.3498C140.96 31.3013 148.825 42.0525 158.993 47.4281C169.736 52.9957 171.27 52.0357 171.27 41.0926C171.27 28.2296 165.324 16.1345 158.801 16.1345C152.279 16.1345 152.279 8.07108 158.801 -2.48811C172.038 -24.3745 223.834 -36.4695 270.642 -28.7901ZM167.242 -29.3661C168.009 -28.2142 166.283 -26.4863 163.597 -25.7183C159.377 -24.5664 158.993 -24.9504 161.487 -28.0222C164.94 -32.0539 165.515 -32.2459 167.242 -29.3661ZM297.691 -28.9821C343.541 -16.1191 391.692 18.2463 416.631 56.0674C420.084 61.251 424.112 65.0907 425.839 64.5148C427.374 63.9388 429.867 65.8587 431.21 68.9305C432.553 72.0022 435.431 74.882 437.349 75.4579C440.419 76.4179 440.419 75.8419 437.925 73.1541C433.704 68.5465 434.088 63.3629 438.5 63.3629C440.61 63.3629 442.145 65.2827 442.145 67.5865C442.145 71.0423 442.721 71.2343 445.214 68.7385C447.708 66.2427 447.516 64.8988 443.872 62.211C441.186 60.0991 440.418 58.1793 441.953 57.2193C443.296 56.2594 447.9 62.211 452.121 70.6583C460.753 87.745 460.945 88.705 456.149 86.7851C453.463 85.8252 452.888 86.7851 454.039 90.6248C455.766 97.1523 448.668 97.7283 445.023 91.3927C442.721 87.3611 442.529 87.3611 442.337 91.2008C442.337 93.5046 443.296 96.1924 444.831 96.9603C446.174 97.7283 447.325 100.992 447.133 104.064C446.941 107.712 446.557 108.287 445.598 105.792C440.61 92.1607 429.676 70.2744 428.525 71.4263C427.757 72.1942 429.484 77.5698 432.361 83.3293C435.239 89.0889 437.349 94.2725 436.774 94.6565C436.39 95.0405 431.594 87.1691 426.414 76.9939C415.671 56.0674 388.814 25.3498 375.386 18.4383C361.19 11.3348 351.79 9.99094 342.006 14.2146C332.03 18.4383 330.304 17.6704 330.304 8.45506C330.304 -8.82363 308.434 -24.9504 274.287 -32.6298C269.299 -33.7817 269.299 -33.7817 274.287 -33.9737C277.357 -33.7817 287.716 -31.6699 297.691 -28.9821ZM332.989 -32.8218C332.989 -30.902 333.949 -28.5981 335.292 -27.8302C337.977 -26.1023 343.541 -32.4378 341.43 -34.7417C338.361 -37.8134 332.989 -36.6615 332.989 -32.8218ZM255.295 -34.7417C247.43 -34.1657 234.577 -34.1657 226.712 -34.7417C218.846 -35.3176 225.369 -35.7016 241.099 -35.7016C256.83 -35.7016 263.161 -35.1256 255.295 -34.7417ZM140.576 -34.7417C137.507 -31.6699 138.85 -26.4863 142.687 -26.4863C144.797 -26.4863 146.332 -28.7901 146.332 -31.4779C146.332 -36.4695 143.646 -38.0054 140.576 -34.7417ZM279.467 -38.9653C280.234 -37.6214 279.275 -36.4695 276.973 -36.4695C274.671 -36.4695 273.712 -37.6214 274.479 -38.9653C275.246 -40.3092 276.397 -41.4612 276.973 -41.4612C277.548 -41.4612 278.699 -40.3092 279.467 -38.9653ZM204.842 -38.9653C205.609 -37.6214 204.65 -36.4695 202.54 -36.4695C200.43 -36.4695 198.703 -37.6214 198.703 -38.9653C198.703 -40.3092 199.662 -41.4612 201.005 -41.4612C202.348 -41.4612 203.883 -40.3092 204.842 -38.9653ZM339.704 -38.7734C346.226 -35.8936 350.255 -33.0138 348.528 -32.2459C346.802 -31.6699 345.459 -30.134 345.459 -28.7901C345.459 -27.4462 346.802 -26.8703 348.528 -27.0622C350.255 -27.4462 351.598 -25.9103 351.598 -23.9905C351.598 -21.8786 349.296 -20.1508 346.61 -20.1508C343.924 -20.1508 340.855 -19.1908 340.087 -18.0389C339.32 -16.887 334.141 -18.2309 328.961 -21.1107C323.589 -23.9905 320.904 -26.2943 323.014 -26.4863C325.892 -26.6783 325.891 -27.2542 322.438 -29.1741C316.108 -32.8218 316.683 -39.9253 323.206 -38.1974C327.043 -37.2375 328.002 -37.8134 327.043 -40.3092C325.316 -44.9169 325.316 -44.9169 339.704 -38.7734ZM162.446 -43.957C161.679 -42.6131 159.76 -41.4612 158.609 -41.4612C157.266 -41.4612 156.307 -42.6131 156.307 -43.957C156.307 -45.3009 158.034 -46.4528 160.144 -46.4528C162.254 -46.4528 163.405 -45.3009 162.446 -43.957ZM323.014 -45.1089C323.014 -42.2291 318.218 -42.2291 317.259 -45.1089C316.3 -47.6047 317.067 -48.1806 319.561 -47.4127C321.479 -46.6448 323.014 -45.4928 323.014 -45.1089ZM176.258 -45.3009C176.258 -42.8051 177.793 -41.4612 180.671 -42.0371C185.85 -42.997 185.658 -47.4127 180.095 -48.5646C177.793 -48.9486 176.258 -47.6047 176.258 -45.3009ZM297.308 -49.7165C294.238 -46.6448 295.773 -41.4612 299.418 -41.4612C301.528 -41.4612 303.063 -42.997 303.063 -45.1089C303.063 -49.3326 299.61 -52.0204 297.308 -49.7165ZM188.728 -49.9085C188.728 -46.6448 189.495 -46.4528 192.181 -48.7566C194.675 -50.8684 196.209 -50.8684 197.36 -48.9486C199.662 -45.3009 193.715 -38.5814 190.262 -40.6932C188.536 -41.6531 188.728 -40.6932 190.646 -38.3894C193.332 -34.9336 192.756 -34.1657 187.001 -32.8218C183.164 -31.8619 178.177 -30.518 175.683 -29.942C172.613 -28.9821 171.846 -29.75 172.805 -32.4378C173.956 -35.3176 172.997 -35.8936 168.968 -34.7417C165.324 -33.7817 163.789 -34.5497 163.789 -37.4295C163.789 -39.7333 165.515 -41.4612 167.817 -41.4612C171.079 -41.4612 171.27 -42.2291 168.777 -45.1089C166.283 -48.1806 167.242 -49.1406 174.148 -51.0604C186.234 -54.7081 188.728 -54.5162 188.728 -49.9085ZM309.202 -46.0688C308.051 -42.6131 308.818 -41.8451 311.696 -42.997C314.189 -43.957 315.532 -43.189 315.532 -40.6932C315.532 -35.1256 310.928 -33.0138 306.708 -36.6615C304.022 -38.9653 303.063 -38.9653 303.063 -36.8535C303.063 -35.3176 304.789 -33.3978 306.708 -32.8218C308.818 -32.2459 312.271 -31.0939 314.573 -30.326C316.875 -29.5581 318.218 -28.5981 317.642 -28.0222C316.683 -27.0622 287.908 -34.1657 285.606 -36.0856C285.03 -36.6615 285.989 -38.0054 288.1 -39.3493C290.977 -41.2692 290.593 -41.6531 286.181 -41.6531C280.426 -41.6531 278.508 -47.6047 283.112 -50.4845C284.455 -51.2524 285.606 -50.6765 285.606 -49.1406C285.606 -47.6047 286.757 -47.0287 287.908 -47.7967C289.251 -48.5646 289.634 -50.8684 289.059 -52.5963C288.1 -55.2841 290.018 -55.4761 299.226 -53.1723C308.626 -51.0604 310.353 -49.9085 309.202 -46.0688ZM285.606 -55.4761C285.606 -54.9001 283.879 -53.9402 281.961 -52.9803C279.85 -52.2123 278.316 -52.5963 278.316 -53.9402C278.316 -55.2841 280.042 -56.436 281.961 -56.436C283.879 -56.436 285.606 -56.052 285.606 -55.4761ZM255.871 -52.9803C255.871 -51.0604 256.83 -48.7566 258.173 -47.9887C260.859 -46.2608 266.422 -52.5963 264.312 -54.9001C261.05 -57.7799 255.871 -56.628 255.871 -52.9803ZM216.352 -52.5963C217.503 -47.2207 221.916 -46.8367 222.875 -52.0204C223.45 -54.7081 222.107 -56.436 219.614 -56.436C217.311 -56.436 215.969 -54.9001 216.352 -52.5963ZM201.005 -53.9402C201.005 -52.5963 200.046 -51.4444 198.703 -51.4444C197.36 -51.4444 195.634 -52.5963 194.866 -53.9402C194.099 -55.2841 195.058 -56.436 197.169 -56.436C199.279 -56.436 201.005 -55.2841 201.005 -53.9402ZM263.928 -58.9318C271.985 -58.9318 273.52 -58.3559 271.218 -55.8601C266.997 -51.6364 267.381 -47.6047 271.601 -51.0604C274.287 -53.3643 275.438 -52.9803 276.397 -50.2925C278.124 -45.6848 274.287 -42.997 268.916 -44.9169C266.23 -46.0688 265.463 -45.3009 266.422 -42.6131C267.573 -39.5413 265.655 -38.7734 256.446 -38.7734C246.087 -38.7734 245.32 -39.1573 248.389 -42.997C250.308 -45.3009 250.691 -46.4528 249.156 -45.6848C244.744 -42.997 239.756 -47.7967 241.675 -52.7883C243.21 -56.628 243.785 -56.82 245.703 -53.7482C246.854 -51.8284 248.773 -50.8684 249.732 -51.8284C250.691 -52.7883 249.924 -55.4761 248.005 -57.7799C244.936 -61.6196 245.128 -61.8116 249.156 -60.2757C251.65 -59.6998 258.365 -58.9318 263.928 -58.9318ZM242.059 -58.9318C241.291 -57.5879 239.373 -56.436 238.222 -56.436C236.879 -56.436 235.92 -57.5879 235.92 -58.9318C235.92 -60.2757 237.646 -61.4276 239.756 -61.4276C241.867 -61.4276 243.018 -60.2757 242.059 -58.9318ZM229.589 -56.244C228.438 -52.5963 228.822 -51.4444 230.74 -52.5963C235.344 -55.4761 239.181 -51.6364 235.728 -47.6047C234.193 -45.6848 231.891 -44.7249 230.548 -45.4928C229.397 -46.2608 228.246 -45.4928 228.246 -43.957C228.246 -42.0371 230.548 -41.6531 234.385 -42.6131C237.646 -43.381 241.099 -42.997 242.059 -41.6531C243.018 -40.1173 237.454 -39.1573 227.095 -39.1573C215.969 -39.1573 211.173 -40.1173 212.324 -41.8451C213.283 -43.381 212.516 -44.3409 210.597 -43.957C203.691 -42.997 201.005 -44.149 201.005 -48.1806C201.005 -50.6765 202.348 -51.6364 204.65 -50.8684C209.446 -49.1406 211.94 -53.1723 207.911 -55.8601C205.993 -57.204 209.446 -58.5479 217.12 -59.3158C224.026 -60.0837 229.973 -61.0437 230.356 -61.2357C230.932 -61.2357 230.548 -59.1238 229.589 -56.244ZM207.528 -61.4276C171.462 -55.6681 133.478 -40.8852 104.511 -21.1107C90.5069 -11.5114 54.2496 23.2379 54.2496 27.0776C54.2496 28.6135 60.0047 23.6219 66.9109 16.1345C76.8864 5.38329 79.9558 3.27145 81.8742 6.15123C83.7926 9.223 84.5599 9.223 86.4783 5.95924C88.3967 2.88748 89.3559 2.88748 92.0416 5.57527C94.7273 8.26307 94.3436 9.41498 90.5069 12.4867C86.2865 15.7505 86.0946 16.1345 89.9314 16.1345C92.2334 16.1345 94.7273 14.5986 95.4947 12.6787C96.262 10.7589 98.9477 8.64704 101.633 7.8791C104.319 7.11116 106.429 4.61534 106.238 1.92755C106.046 -0.760246 105.47 -1.3362 104.703 0.391666C102.976 4.61535 93.96 4.42336 93.96 0.00769424C93.96 -1.91216 95.3028 -4.024 97.0294 -4.59996C99.3314 -5.3679 99.3314 -5.94385 97.0294 -7.47974C95.3028 -8.63165 93.1926 -7.47974 92.2334 -4.79194C91.0824 -2.29613 88.5885 0.00769424 86.6701 0.391666C81.4905 1.35159 102.593 -17.271 114.295 -23.7985C119.666 -26.8703 123.887 -28.2142 123.887 -26.8703C123.887 -25.5264 121.585 -23.9905 118.899 -23.2225C113.911 -21.8786 111.801 -16.503 116.405 -16.503C117.748 -16.503 118.899 -17.655 118.899 -18.9989C118.899 -20.3428 120.05 -21.4947 121.393 -21.4947C122.736 -21.4947 123.887 -19.1908 123.887 -16.503C123.887 -13.4313 122.16 -11.5114 119.666 -11.5114C116.405 -11.5114 116.213 -10.7435 118.323 -8.63165C120.625 -6.32782 122.352 -6.51981 125.613 -9.59158C128.107 -11.7034 131.944 -14.0072 134.438 -14.9672C136.74 -15.7351 138.85 -17.8469 138.85 -19.5748C138.85 -21.8786 138.083 -21.8786 135.972 -19.7668C132.327 -16.1191 126.38 -18.4229 126.38 -23.4145C126.38 -25.7183 127.723 -26.6783 130.409 -25.7183C132.903 -24.7584 133.862 -25.3344 133.287 -27.2542C132.711 -28.9821 130.793 -30.134 129.258 -29.75C124.078 -28.5981 126.38 -31.4779 133.287 -34.9336C143.07 -39.9253 151.511 -42.2291 151.128 -39.9253C150.168 -34.9337 151.703 -33.2058 153.813 -36.6615C155.54 -39.5413 156.883 -39.7333 158.993 -37.4295C162.638 -33.7817 159.952 -29.1741 154.389 -28.9821C150.744 -28.9821 150.744 -28.5981 153.813 -26.6783C158.417 -23.7985 158.417 -23.7985 140.001 -14.5832C116.98 -3.06407 76.6946 29.7654 76.6946 36.8689C76.6946 38.2128 83.7926 32.4532 92.4253 24.1979C110.65 6.5352 136.356 -10.7435 157.65 -19.7668C176.258 -27.6382 202.732 -34.7417 208.295 -33.2058C211.365 -32.4378 211.173 -32.0539 207.336 -31.8619C195.826 -31.2859 170.695 -20.5347 162.83 -13.0473C157.458 -7.8637 153.43 -0.952232 151.511 6.34321L148.442 17.6704L137.891 13.8306C128.107 10.3749 126.381 10.3749 116.213 14.2146C99.9069 20.5501 86.0946 31.6853 72.8578 49.156C50.221 79.4897 36.7924 112.511 36.7924 138.237C36.7924 156.284 42.9312 170.491 51.7557 172.795C58.0863 174.522 58.0863 180.09 51.7557 181.626C36.4087 185.658 32.1883 218.295 42.7393 249.589C46.0006 259.188 48.3026 267.443 47.919 267.827C46.5761 269.171 36.6005 240.373 32.572 223.479C26.625 198.521 27.3923 149.756 34.1067 124.606C40.2455 101.568 53.4822 72.3862 65.1843 56.0674C76.8864 39.5567 78.4211 36.4849 72.0905 42.0525C69.0211 44.7403 64.2251 50.8838 61.3476 55.4915C56.5516 63.1709 55.7843 63.7469 54.0578 59.3312C52.3312 55.1075 52.1394 55.1075 51.9475 58.9472C51.9475 61.443 50.221 63.3629 48.1108 63.3629C43.123 63.3629 40.4373 58.1793 44.274 55.8755C46.5761 54.3396 46.3843 53.7636 43.3149 52.9957C39.6699 52.2277 40.0536 50.6918 45.8087 42.2445C49.4537 36.8689 52.9067 33.7971 53.4822 35.333C54.8251 39.5567 59.0455 39.1727 59.0455 34.5651C59.0455 32.4532 60.1966 30.7254 61.5394 30.7254C65.7598 30.7254 67.2945 38.0208 63.8415 42.0525C61.5394 44.7403 61.5394 45.7002 63.6496 45.7002C65.1843 45.7002 67.2945 43.7804 68.0619 41.2846C68.8292 38.7887 71.7068 35.525 74.2007 33.6051C76.6946 31.8773 78.8048 29.1895 78.8048 27.6536C78.8048 25.9257 77.4619 26.1177 75.1599 28.0376C70.9395 31.4933 62.6904 29.3815 65.1843 25.5418C66.1435 24.1979 67.8701 23.6219 69.0211 24.3898C70.3639 25.1578 71.3231 24.5818 71.3231 23.2379C71.3231 19.2062 64.417 20.1662 61.9231 24.5818C60.7721 26.6937 57.7027 28.8055 55.2088 29.1895C43.6985 30.9174 16.8413 81.7935 8.01675 119.423C-0.0404238 153.404 -1.76696 175.29 1.68611 201.976C7.44124 243.445 21.8291 282.61 42.5475 313.52C51.372 326.575 88.7803 365.932 92.4253 365.932C93.7681 365.932 92.8089 363.628 90.315 360.94C86.2865 356.525 86.2865 355.949 89.9314 355.949C93.5763 355.949 95.3028 360.364 94.3436 366.7C93.7681 370.54 131.944 393.386 151.511 400.873C185.85 414.12 201.389 417 240.907 417C280.618 417 297.308 413.928 330.112 400.873C387.28 377.835 438.308 327.151 462.288 269.747C483.966 217.527 485.884 153.02 467.276 98.4962C441.57 23.0459 375.194 -37.6214 298.075 -56.436C273.712 -62.3876 229.014 -64.8834 207.528 -61.4276Z" fill="#F8F8F8"/>
</svg>
