<svg width="396" height="318" viewBox="0 0 396 318" fill="none" xmlns="http://www.w3.org/2000/svg">
<path opacity="0.2" fill-rule="evenodd" clip-rule="evenodd" d="M244.552 395.544C245.32 396.888 244.361 398.04 242.059 398.04C239.756 398.04 238.797 396.888 239.565 395.544C240.332 394.2 241.483 393.048 242.059 393.048C242.634 393.048 243.785 394.2 244.552 395.544ZM257.597 387.097C255.295 389.401 258.173 393.048 262.201 393.048C264.12 393.048 265.846 391.321 265.846 389.209C265.846 385.561 260.475 384.025 257.597 387.097ZM217.695 387.097C215.393 389.401 218.271 393.048 222.299 393.048C224.218 393.048 225.944 391.321 225.944 389.209C225.944 385.561 220.765 384.025 217.695 387.097ZM297.308 379.609C294.238 382.681 295.581 385.369 300.569 385.369C303.255 385.369 305.557 383.641 305.557 381.529C305.557 377.882 300.377 376.538 297.308 379.609ZM245.128 379.418C244.361 380.185 242.059 380.377 240.332 379.609C238.414 378.842 238.989 378.266 241.867 378.074C244.552 378.074 246.087 378.65 245.128 379.418ZM177.601 380.185C175.875 382.873 182.205 388.633 184.507 386.329C185.466 385.369 186.234 383.257 186.234 381.337C186.234 377.69 179.711 376.73 177.601 380.185ZM268.916 379.801C267.573 383.449 267.957 383.641 271.026 381.145C274.095 378.65 275.822 379.418 281.193 385.561C285.606 390.553 286.565 393.048 284.071 393.048C282.153 393.048 280.618 392.089 280.618 391.129C280.618 390.169 278.316 389.017 275.438 388.825C271.218 388.441 270.834 389.017 273.328 392.089C275.822 395.16 274.863 395.736 267.573 395.736C262.777 395.736 256.83 396.504 254.528 397.272C251.075 398.616 250.691 397.848 252.226 392.856C253.952 387.673 253.569 387.289 250.308 390.169C247.622 392.281 245.895 392.473 244.744 390.745C242.634 387.289 245.32 383.065 249.732 383.065C251.842 383.065 252.61 381.529 251.842 379.225C250.691 376.346 252.61 375.386 260.475 375.386C269.108 375.578 270.45 376.154 268.916 379.801ZM232.275 379.801C231.507 381.529 232.658 383.065 234.577 383.065C238.989 383.065 241.675 387.289 239.565 390.745C238.414 392.473 236.687 392.281 234.001 390.169C230.548 387.289 230.356 387.673 232.083 392.856C233.81 398.232 233.426 398.616 228.054 397.272C224.793 396.312 219.038 395.736 215.009 395.736C209.062 395.736 208.295 395.16 210.789 392.089C213.283 389.209 212.899 388.633 208.487 388.825C205.609 389.017 203.691 390.553 204.458 392.089C205.226 393.816 203.883 394.584 201.005 393.816C196.977 392.664 196.977 392.089 202.348 386.329C206.185 382.297 209.638 380.569 212.324 381.529C215.777 382.873 215.969 382.489 213.283 379.225C210.405 375.77 211.365 375.386 221.724 375.962C230.356 376.346 233.234 377.306 232.275 379.801ZM207.336 375.578C208.103 376.922 207.144 378.074 205.226 378.074C203.116 378.074 200.813 376.922 200.046 375.578C199.279 374.234 200.238 373.082 202.156 373.082C204.075 373.082 206.377 374.042 207.336 375.578ZM266.422 372.314C263.352 372.89 257.789 372.89 253.952 372.314C250.116 371.738 252.61 371.162 259.516 371.162C266.422 371.162 269.491 371.738 266.422 372.314ZM230.356 372.314C226.52 372.89 220.381 372.89 216.736 372.314C212.899 371.738 215.969 371.354 223.642 371.354C230.932 371.162 234.001 371.738 230.356 372.314ZM194.675 373.274C196.209 374.618 195.634 375.578 193.524 375.578C191.605 375.578 192.564 376.73 195.634 378.074C202.156 380.761 201.581 387.097 194.866 385.945C191.605 385.369 190.838 386.329 191.989 389.209C193.14 392.281 192.373 393.048 189.303 392.089C187.001 391.321 181.822 389.977 177.985 389.209C172.613 387.865 171.462 386.521 172.613 382.873C173.764 379.226 173.189 378.458 169.928 379.801C166.858 380.953 166.091 380.185 166.666 376.73C167.242 373.466 169.352 372.122 173.189 372.698C176.834 373.082 178.177 372.314 177.217 370.586C175.299 366.938 191.03 369.626 194.675 373.274ZM308.434 368.858C306.132 371.546 306.9 372.122 312.079 370.97C317.451 370.01 318.41 370.586 317.642 374.426C317.067 377.114 315.34 378.842 313.614 378.458C312.079 378.074 310.736 379.034 310.736 380.377C310.736 381.721 312.271 382.873 314.381 382.873C316.3 382.873 318.602 381.721 319.561 380.377C321.479 377.306 325.7 377.114 325.7 379.993C325.7 381.913 301.912 390.361 296.157 390.361C294.622 390.361 293.279 388.441 293.279 386.329C293.279 383.065 292.512 382.873 289.634 385.369C286.565 387.865 285.606 387.673 284.263 383.833C283.304 381.337 280.81 377.882 278.699 376.154C275.246 373.466 275.246 373.082 279.083 373.082C281.385 373.082 283.495 374.042 283.495 375.578C283.495 377.114 285.989 378.074 289.059 378.074C293.279 378.074 293.855 377.498 291.553 375.002C289.059 372.506 290.402 371.354 297.883 369.05C310.161 365.019 311.696 365.019 308.434 368.858ZM334.141 365.787C331.647 370.01 337.402 374.81 340.855 371.354C343.732 368.474 342.006 363.099 338.169 363.099C336.826 362.907 335.1 364.251 334.141 365.787ZM171.27 365.403C174.532 367.514 174.34 367.898 170.887 367.898C168.585 367.898 165.899 366.746 165.132 365.403C163.021 362.331 166.283 362.331 171.27 365.403ZM141.727 366.362C138.658 370.01 140.385 372.89 145.564 372.89C149.209 372.89 150.168 366.362 146.715 364.251C145.372 363.675 143.07 364.635 141.727 366.362ZM127.723 365.403C128.491 366.746 128.107 367.898 126.764 367.898C125.421 367.898 123.503 366.746 122.736 365.403C121.968 364.059 122.352 362.907 123.695 362.907C125.038 362.907 126.764 364.059 127.723 365.403ZM343.541 354.843C342.198 358.491 342.581 358.683 345.843 355.995C348.912 353.499 350.255 353.499 352.749 356.571C355.626 360.027 354.475 361.371 349.679 360.603C346.802 360.219 347.569 364.827 350.639 366.746C352.365 367.898 350.255 370.202 345.075 373.082C334.332 378.842 330.496 378.842 330.304 373.466C330.304 369.818 329.92 369.626 328.002 372.89C326.083 375.962 325.124 375.962 322.438 373.274C319.753 370.586 320.136 369.434 323.973 366.362C327.618 363.675 327.81 362.715 325.124 362.715C323.014 362.715 320.136 363.867 318.794 365.403C317.259 366.938 315.532 367.13 314.765 365.787C313.998 364.635 318.985 361.563 325.7 359.067C332.414 356.571 338.553 353.691 339.32 352.348C341.814 348.7 345.267 350.428 343.541 354.843ZM156.499 364.827C153.046 367.706 153.046 367.706 156.883 366.362C159.185 365.595 161.295 365.787 161.487 366.938C161.679 368.09 162.062 371.546 162.446 374.426C162.83 377.306 163.789 380.953 164.556 382.297C165.515 383.833 164.172 384.409 160.911 383.449C157.65 382.681 156.691 381.529 158.609 380.377C160.528 379.226 160.336 377.69 157.842 375.578C154.964 373.082 154.005 373.274 153.43 376.346C152.662 379.609 150.936 379.418 141.344 375.002C135.205 372.122 131.56 369.242 133.287 368.666C137.123 367.13 137.507 362.715 133.67 363.483C132.136 363.867 130.409 362.715 129.642 360.987C127.915 356.379 136.356 353.883 139.042 358.107C140.768 360.987 141.152 360.987 141.344 358.299C141.344 356.379 139.234 354.459 136.548 353.691C133.862 352.923 131.176 351.004 130.601 349.276C130.025 347.548 136.356 349.66 144.989 353.883C158.226 360.603 159.952 362.139 156.499 364.827ZM368.863 345.628C366.369 349.852 372.124 354.651 375.577 351.196C378.455 348.316 376.728 342.94 372.892 342.94C371.549 342.94 369.822 344.284 368.863 345.628ZM106.813 346.396C103.744 350.044 105.47 352.924 110.65 352.924C114.295 352.924 115.254 346.396 111.801 344.284C110.458 343.708 108.348 344.476 106.813 346.396ZM400.516 321.822C401.667 327.197 406.08 327.581 407.039 322.398C407.614 319.71 406.271 317.982 403.778 317.982C401.475 317.982 400.133 319.518 400.516 321.822ZM75.3517 320.67C72.8578 324.894 78.613 329.693 82.066 326.238C84.9436 323.358 83.2171 317.982 79.3803 317.982C77.8456 317.982 76.1191 319.134 75.3517 320.67ZM49.6455 291.872C50.7965 297.248 55.2088 297.632 56.168 292.448C56.7435 289.76 55.4006 288.032 52.9067 288.032C50.6047 288.032 49.2618 289.568 49.6455 291.872ZM425.839 289.376C423.92 294.176 426.223 296.48 431.018 294.56C436.006 292.64 436.006 288.8 431.018 287.073C428.908 286.113 426.798 287.264 425.839 289.376ZM59.2374 276.705C59.2374 278.049 61.9231 282.657 65.1843 286.689C68.4456 290.72 71.3231 293.024 71.3231 291.68C71.3231 290.336 68.6374 285.729 65.3762 281.697C62.1149 277.665 59.4292 275.361 59.2374 276.705ZM39.2863 279.201C39.2863 281.313 38.9026 283.041 38.3271 283.041C37.7516 283.041 36.7924 281.313 35.8332 279.201C35.0658 277.089 35.4495 275.361 36.7924 275.361C38.1352 275.553 39.2863 277.089 39.2863 279.201ZM447.133 276.129C445.023 279.969 443.872 280.737 443.104 278.433C442.529 276.513 443.488 274.018 445.406 272.866C450.202 269.602 450.394 269.986 447.133 276.129ZM416.247 281.121C412.41 287.073 402.051 299.36 393.035 308.575C384.018 317.79 378.071 325.47 379.606 325.47C385.361 325.47 427.565 274.785 424.496 271.714C423.92 270.946 420.084 275.169 416.247 281.121ZM59.0455 267.298C79.5721 306.847 119.283 333.149 140.96 322.014C145.181 319.71 148.825 318.174 149.017 318.558C149.017 318.942 149.593 322.974 150.36 327.581C152.662 344.86 167.817 357.915 194.866 365.787C203.499 368.282 207.336 370.202 203.691 370.202C193.332 370.394 150.36 354.267 131.368 342.94C121.585 336.989 104.703 323.742 93.96 313.566C83.2171 303.391 74.3925 295.904 74.3925 297.248C74.3925 300.895 103.744 328.349 116.405 336.797C122.352 340.828 125.997 344.476 124.462 344.86C122.736 345.436 123.119 347.164 125.421 349.66C128.491 352.732 128.683 354.267 126.189 357.147C123.503 360.411 122.927 360.411 121.585 356.379C120.434 353.307 119.474 352.924 118.131 354.843C117.172 356.379 117.172 359.067 118.131 360.603C119.283 362.523 118.707 362.907 116.405 361.371C104.703 354.459 99.1396 349.276 100.291 346.204C101.058 344.284 100.482 342.748 99.1396 342.748C97.7967 342.748 96.6457 341.02 96.6457 338.909C96.6457 334.301 105.662 333.917 107.389 338.333C108.156 340.252 108.731 339.677 108.923 336.989C109.115 334.493 107.197 331.805 104.703 330.845C102.209 329.885 99.5232 327.773 98.3722 325.854C97.2212 323.934 94.5355 322.59 92.2334 322.59C88.7803 322.59 88.9722 323.166 93.0008 326.238C97.0294 329.117 97.2212 330.461 94.5355 333.149C91.8497 335.837 90.8906 335.837 88.9722 332.765C86.862 329.501 86.2865 329.501 84.1762 332.765C82.066 335.837 80.3395 335.261 73.6252 328.349C66.719 321.438 66.1435 319.71 69.2129 317.79C71.7068 316.254 71.8986 315.294 69.7884 315.294C65.3762 315.294 65.9517 310.303 70.7476 308.575C72.8578 307.807 75.7354 308.575 76.8864 310.495C78.613 313.375 78.9966 313.183 79.1885 309.727C79.1885 307.423 77.4619 304.351 75.1599 303.199C72.8578 301.855 71.7068 299.36 72.4742 297.44C73.2415 295.136 72.0905 293.984 69.4048 293.984C65.7598 293.984 65.568 294.752 67.8701 298.592C69.9803 302.047 69.7884 303.583 67.1027 305.311C62.8823 307.999 58.6619 306.079 60.9639 302.815C61.7313 301.471 61.1557 300.511 59.8129 300.511C55.7843 300.511 56.7435 307.999 60.9639 309.535C63.0741 310.303 64.6088 312.031 64.6088 313.566C64.6088 317.598 57.5108 310.687 49.4537 298.976C41.972 288.032 40.4373 284.193 44.4659 286.689C45.8087 287.456 47.5353 287.073 48.3026 285.537C49.07 284.193 48.6863 283.041 47.1516 283.041C45.6169 283.041 44.4659 281.313 44.4659 279.201C44.4659 274.018 51.1802 274.401 54.2496 279.777C56.5516 283.809 56.7435 283.809 56.9353 279.969C56.9353 277.665 55.0169 274.593 52.7149 273.25C50.4128 271.906 49.2618 269.986 50.221 269.026C51.1802 268.066 53.6741 269.218 55.7843 271.906C60.5802 278.241 60.5802 274.593 55.7843 265.378C53.6741 261.346 52.5231 258.083 53.2904 258.083C54.0578 258.083 56.3598 262.306 59.0455 267.298ZM29.3107 258.275C29.3107 264.418 35.0658 263.458 36.4087 257.315C36.7924 254.819 35.6414 253.091 33.3393 253.091C31.0373 252.899 29.3107 255.203 29.3107 258.275ZM446.557 252.131C445.598 253.091 444.831 255.203 444.831 257.123C444.831 260.771 451.161 261.73 453.272 258.275C455.19 255.587 448.859 249.827 446.557 252.131ZM34.874 245.028C34.1067 248.675 38.5189 249.059 39.6699 245.412C40.2455 243.876 43.123 248.099 46.3843 254.627C50.7965 263.65 51.1802 265.57 48.1108 263.074C44.4659 260.003 44.274 260.387 45.6169 266.338C46.9598 271.906 46.3843 273.058 42.1638 273.058C38.3271 273.058 37.3679 271.906 38.3271 268.642C39.6699 264.61 39.4781 264.61 36.2169 268.45C32.9556 272.29 32.1883 271.714 27.3923 261.538C20.8699 248.099 20.8699 247.716 26.2413 249.827C29.8862 251.171 30.0781 250.787 27.5842 247.715C25.8576 245.604 25.2821 243.108 26.2413 242.148C28.7352 239.46 35.6414 241.764 34.874 245.028ZM21.8291 242.532C21.8291 246.18 21.4454 246.18 19.3352 242.916C16.2658 238.116 16.2658 234.66 19.3352 236.58C20.678 237.54 21.8291 240.228 21.8291 242.532ZM39.2863 238.692C39.2863 239.844 38.1352 240.036 36.7924 239.076C35.4495 238.308 34.2985 235.62 34.2985 233.317C34.2985 229.669 34.6822 229.669 36.7924 232.933C38.1352 235.044 39.2863 237.732 39.2863 238.692ZM448.284 231.589C449.051 233.509 448.092 235.62 446.365 236.388C444.063 237.348 443.488 236.196 444.255 232.933C445.79 226.981 446.557 226.789 448.284 231.589ZM14.9229 219.686C15.8821 225.253 23.1719 226.021 23.1719 220.646C23.1719 218.534 21.0617 216.614 18.5678 216.038C15.3066 215.27 14.1556 216.23 14.9229 219.686ZM458.451 215.654C455.957 219.878 461.712 224.677 465.166 221.221C468.043 218.342 466.317 212.966 462.48 212.966C461.137 212.966 459.41 214.31 458.451 215.654ZM11.8535 203.175C11.8535 204.519 10.7025 205.479 9.35961 205.479C8.01675 205.479 6.86573 203.751 6.86573 201.639C6.86573 199.527 8.01675 198.375 9.35961 199.335C10.7025 200.295 11.8535 201.831 11.8535 203.175ZM474.757 199.335C474.757 201.447 473.606 202.599 472.264 201.639C470.921 200.679 470.345 198.951 471.112 197.799C473.415 194.344 474.757 194.92 474.757 199.335ZM30.6536 211.43C35.2577 228.901 35.2577 228.133 30.0781 226.213C26.4332 224.869 26.2413 225.253 28.7352 228.325C32.1883 232.549 28.927 239.652 24.7066 236.964C23.1719 236.004 22.5964 234.085 23.5556 232.549C24.5148 230.821 23.3638 230.629 20.1025 231.589C16.0739 232.933 14.7311 231.781 13.3882 226.213C12.429 222.373 11.0862 217.382 10.5106 214.886C9.55145 211.622 10.3188 210.854 13.3882 212.198C16.8413 213.542 17.225 212.774 15.8821 208.167C14.3474 203.559 14.9229 202.791 18.7597 203.559C21.4454 204.135 23.1719 206.439 22.9801 209.126C22.5964 212.582 23.3638 212.966 25.474 210.854C27.5842 208.742 27.5842 206.823 25.474 203.367C23.9393 200.871 23.1719 197.991 24.1311 197.223C26.0495 194.728 26.625 196.071 30.6536 211.43ZM8.01675 178.217C5.90654 181.673 10.7025 186.472 14.1556 184.36C15.6903 183.4 16.8413 181.097 16.8413 178.985C16.8413 174.953 10.5106 174.185 8.01675 178.217ZM225.56 159.786C227.287 160.554 229.589 160.362 230.356 159.594C231.124 158.826 229.781 158.25 227.095 158.25C224.026 158.25 223.45 158.826 225.56 159.786ZM477.251 165.738C477.251 176.681 476.676 178.025 473.606 175.529C469.386 172.073 464.782 174.185 464.782 179.561C464.782 182.248 466.317 183.016 469.77 182.056C474.374 180.905 475.141 181.673 474.566 187.24C474.566 188.2 472.839 188.776 470.921 188.392C468.619 187.816 467.851 188.968 469.002 191.848C470.153 194.92 469.386 195.687 465.933 194.919C463.247 194.344 461.329 192.04 461.521 189.736C461.712 187.432 460.753 186.088 459.41 187.048C458.068 187.816 457.492 190.696 458.259 193.192C459.027 195.879 458.451 197.991 457.3 197.991C456.149 197.991 455.19 200.487 455.382 203.559C455.574 207.399 455.957 207.975 456.725 205.095C458.068 200.103 464.206 197.223 466.317 200.679C467.084 202.023 466.892 204.327 465.933 206.055C464.782 207.975 465.549 208.55 468.235 207.399C473.223 205.479 473.223 205.479 469.578 219.302C467.659 226.981 465.741 229.861 463.439 228.901C461.329 228.133 459.986 229.285 459.986 231.781C459.986 234.085 458.643 235.428 456.917 234.852C455.19 234.277 453.847 231.205 454.039 228.325C454.231 224.677 453.08 223.333 450.778 224.101C448.092 225.061 447.708 224.101 449.051 219.878C450.01 216.806 452.888 202.983 455.19 189.352C457.684 175.529 459.602 165.738 459.794 167.466C459.986 169.193 460.945 170.537 462.288 170.537C463.439 170.537 464.015 168.234 463.247 165.546C462.288 161.706 463.247 160.554 467.276 160.554C470.153 160.554 472.455 161.706 472.455 163.05C472.455 164.394 471.304 165.546 469.77 165.546C468.235 165.546 467.851 166.698 468.619 168.042C471.304 172.457 475.333 167.658 473.798 161.898C472.647 157.098 473.798 153.067 476.484 153.067C476.868 153.067 477.251 158.826 477.251 165.738ZM460.753 159.402C458.835 164.586 457.3 164.01 457.3 157.866C457.3 154.987 458.451 153.451 459.602 154.219C461.137 154.987 461.521 157.29 460.753 159.402ZM8.01675 138.284C5.52286 142.507 11.278 147.307 14.7311 143.851C17.6086 140.972 15.8821 135.596 12.0453 135.596C10.7025 135.404 8.97594 136.748 8.01675 138.284ZM465.933 135.788C463.439 140.012 469.194 144.811 472.647 141.356C475.525 138.476 473.798 133.1 469.961 133.1C468.619 132.908 466.892 134.252 465.933 135.788ZM26.0495 132.14C25.0903 138.476 24.5148 145.963 24.5148 148.651C24.5148 152.683 23.7474 153.067 21.0617 150.571C18.1841 148.075 17.8005 148.459 18.7597 152.491C19.527 155.371 18.5678 157.866 16.0739 158.826C11.6617 160.554 8.40043 156.906 10.8943 153.067C11.6617 151.723 11.278 150.571 9.74329 150.571C4.18 150.571 7.2494 160.746 13.58 163.242C17.8005 164.778 19.527 167.082 18.5678 169.385C17.8005 171.497 18.376 173.033 19.9107 173.033C21.4454 173.033 22.0209 170.345 21.4454 166.89C20.8699 163.626 21.2535 159.402 22.4046 157.482C23.7474 155.562 24.5148 159.594 24.5148 167.85C24.5148 175.337 25.0903 184.36 25.8576 187.816C26.625 191.272 26.4332 192.616 25.6658 190.888C23.5556 186.28 20.1025 187.048 20.4862 192.04C20.678 194.344 18.7597 196.839 16.0739 197.223C12.429 197.991 11.6617 197.223 13.0045 193.96C14.1556 190.888 13.58 190.12 11.0862 191.08C6.86573 192.616 4.56368 187.816 4.56368 177.641C4.56368 172.265 5.52286 170.729 8.20859 171.881C10.3188 172.649 11.8535 172.073 11.8535 170.729C11.8535 169.385 10.127 166.506 8.20859 164.394C5.7147 161.898 4.56368 155.562 4.56368 144.043C4.56368 128.685 4.94735 127.533 9.55145 129.069C13.3882 130.22 14.1556 129.836 13.0045 126.573C11.8535 123.501 12.6209 122.733 16.0739 123.309C18.7597 123.885 20.678 126.189 20.4862 128.493C20.2944 130.796 21.2535 132.716 22.5964 132.716C23.9393 132.716 24.5148 129.836 23.9393 126.381C23.3638 122.925 23.9393 120.045 25.2821 120.045C26.625 120.429 27.0087 125.037 26.0495 132.14ZM469.194 118.701C470.345 115.246 474.757 116.973 474.757 120.813C474.757 122.157 473.798 122.733 472.455 121.965C471.304 121.197 469.578 122.349 468.619 124.653C467.468 127.341 468.235 128.301 470.537 127.341C474.374 125.805 476.868 132.332 477.059 143.659C477.059 148.651 476.1 149.995 473.415 149.035C470.729 147.883 470.153 148.651 471.304 151.915C472.455 155.179 471.88 155.946 468.235 155.179C465.549 154.603 463.631 152.299 463.823 149.995C464.015 147.691 463.247 145.771 461.904 145.771C460.561 145.771 459.602 147.115 459.41 148.843C459.027 152.491 455.382 139.052 454.998 132.716C454.806 130.028 455.957 128.877 458.259 129.836C460.753 130.796 461.521 129.836 460.561 126.189C459.794 123.309 458.068 121.389 456.725 121.581C455.382 121.965 453.655 120.813 453.08 119.085C452.312 116.781 453.847 116.781 459.986 119.085C466.508 121.197 468.427 121.005 469.194 118.701ZM10.5106 117.741C11.278 119.085 10.8943 120.813 9.35961 121.581C8.01675 122.349 6.86573 121.389 6.86573 119.277C6.86573 115.054 8.40043 114.286 10.5106 117.741ZM15.4984 98.1589C13.0045 102.383 18.7597 107.182 22.2127 103.726C25.0903 100.847 23.3638 95.4711 19.527 95.4711C18.1841 95.4711 16.4576 96.815 15.4984 98.1589ZM459.027 94.7031C455.574 98.1589 457.492 103.15 462.48 103.15C465.933 103.15 467.468 101.807 466.892 98.9268C466.125 94.3192 461.712 92.0153 459.027 94.7031ZM28.5434 91.0554C27.5842 94.5111 28.3515 95.6631 30.8454 94.5111C33.723 93.3592 34.1067 94.7031 32.7638 99.8867C30.4617 109.678 27.2005 117.165 27.0087 113.518C27.0087 111.79 25.6658 110.446 24.1311 110.446C22.5964 110.446 22.0209 111.406 22.7882 112.75C23.5556 113.902 22.5964 116.205 20.678 117.933C16.6494 121.389 12.8127 117.357 15.6903 112.75C16.8413 110.83 16.0739 110.254 13.3882 111.406C8.59226 113.326 8.20859 110.638 11.8535 97.3909C14.1556 88.9436 14.9229 88.1756 18.5678 91.0554C22.0209 93.9352 22.4046 93.7432 21.0617 90.0955C20.1025 87.7917 20.8699 85.4878 22.4046 84.7199C27.3923 82.992 29.8862 85.6798 28.5434 91.0554ZM458.451 85.8718C457.492 87.4077 458.643 87.7917 461.712 86.8317C465.933 85.4878 466.892 87.0237 469.194 96.623C471.304 106.03 471.112 107.758 468.427 106.798C466.508 106.03 464.398 106.606 463.631 107.95C462.863 109.294 463.439 110.254 464.782 110.254C466.317 110.254 467.468 111.406 467.468 112.942C467.468 114.478 465.549 115.246 463.055 114.67C460.753 114.094 458.835 111.79 459.027 109.486C459.219 106.222 458.643 105.838 456.341 107.758C454.039 109.678 452.504 108.718 450.394 103.918C446.941 96.239 446.557 89.5195 450.01 91.6314C451.545 92.5913 451.737 91.4394 450.97 88.9436C450.01 86.6397 450.778 83.952 452.696 82.8C456.725 80.3042 460.561 82.4161 458.451 85.8718ZM446.174 102.575C456.341 141.74 455.766 186.472 444.639 222.373C440.035 237.156 440.035 239.076 443.488 242.532C447.133 246.18 447.517 246.18 447.517 242.148C447.517 239.46 449.435 237.924 452.504 237.924C458.068 237.924 459.219 241.956 454.423 243.684C452.696 244.26 452.121 245.604 453.08 246.564C455.766 249.443 460.178 245.604 460.178 240.228C460.178 237.54 461.329 235.428 462.672 235.428C466.125 235.428 466.125 235.62 458.643 252.707C454.998 260.962 450.97 267.106 449.627 266.338C448.284 265.57 446.365 266.338 445.214 268.066C444.063 269.794 441.378 270.562 439.076 269.602C435.814 268.258 435.623 266.914 437.733 263.074C440.035 258.851 439.651 258.275 436.39 259.619C432.745 260.962 432.745 260.579 436.39 253.475C438.5 249.251 440.227 244.26 440.227 242.532C440.035 238.884 425.647 265.378 425.647 269.218C425.647 270.562 427.182 269.602 429.292 266.914C431.402 264.226 432.937 263.458 432.937 265.186C432.937 266.914 431.21 269.986 429.1 272.098C426.99 274.209 426.223 277.089 427.182 278.817C428.333 280.737 429.292 280.353 429.867 277.281C430.251 274.785 432.169 272.866 434.088 272.866C438.884 272.866 441.57 278.049 437.733 280.353C435.431 281.889 435.623 282.465 438.692 283.233C442.337 284.001 441.953 285.345 436.39 293.6C431.21 301.279 429.292 302.623 426.414 300.128C423.537 297.824 422.961 298.016 422.961 301.471C422.961 303.775 421.618 305.311 419.892 304.735C418.165 304.159 416.822 301.279 417.014 298.208C417.206 290.912 415.096 291.488 408.573 300.32C402.818 308.191 401.092 313.375 406.08 308.383C410.3 304.159 415.48 304.543 415.48 309.151C415.48 311.263 414.329 312.991 412.794 312.991C411.259 312.991 410.876 314.334 412.027 315.87C413.178 317.79 415.288 317.022 418.549 312.991C421.043 309.727 423.729 307.615 424.304 308.191C424.88 308.767 420.276 314.718 414.137 321.246C404.929 331.037 402.243 332.765 399.365 330.269C396.871 328.157 395.72 328.157 395.72 330.077C395.72 331.613 393.994 332.957 392.075 332.957C386.896 332.957 387.28 326.238 392.651 323.166C396.871 320.67 396.68 320.67 392.651 320.478C390.157 320.478 387.663 322.014 386.896 323.934C386.128 325.854 383.443 327.965 380.757 328.733C378.071 329.501 375.961 331.997 375.961 334.685C375.961 338.333 376.537 338.525 378.263 335.837C379.414 333.917 382.292 332.957 384.402 333.917C389.773 336.029 389.582 340.636 384.21 340.636C380.949 340.636 380.565 341.404 382.867 343.708C385.169 346.012 386.896 345.436 390.924 341.212C393.802 338.141 396.871 335.837 397.831 335.837C400.9 336.029 380.373 353.116 367.904 360.795C361.381 364.827 356.01 366.938 356.01 365.595C356.01 364.251 358.888 361.947 362.149 360.603C365.602 359.259 368.288 357.147 368.288 355.611C368.288 351.964 363.875 352.348 362.532 356.187C361.573 358.683 360.614 358.683 357.928 355.995C355.051 353.116 355.243 352.156 359.079 349.276C361.573 347.356 362.532 345.244 361.19 344.476C359.847 343.708 357.545 344.668 355.818 346.78C354.092 348.892 351.022 350.428 348.912 350.428C346.802 350.428 351.79 346.012 360.039 340.636C373.851 331.613 380.757 325.47 376.728 325.47C375.769 325.47 370.973 328.733 365.986 332.573C345.459 348.7 294.238 370.778 278.124 370.202C274.863 370.01 279.083 368.09 287.332 365.595C314.189 357.915 330.687 343.516 330.687 327.581C330.687 318.75 332.414 317.598 340.279 321.822C365.026 334.685 403.969 305.311 429.292 254.819C449.435 214.694 450.202 180.713 431.402 165.738L424.496 160.17L432.745 152.107C437.157 147.691 441.953 141.548 443.104 138.284C446.557 129.452 445.79 107.566 441.57 93.7432C437.349 79.7283 436.965 77.4245 440.227 82.8C440.994 85.1039 443.872 93.9352 446.174 102.575ZM37.5597 85.6798C36.6005 89.5195 35.4495 90.0955 33.5311 87.9836C31.4209 85.8718 31.8046 84.5279 34.4903 82.8C36.6005 81.4561 38.3271 80.4962 38.5189 80.4962C38.7108 80.4962 38.3271 82.8 37.5597 85.6798ZM464.782 81.4561C464.782 82.608 463.247 82.2241 461.137 80.4962C459.027 78.7683 458.068 76.2725 459.027 74.9286C460.561 72.4328 464.782 77.0405 464.782 81.4561ZM20.8699 82.4161C18.1841 85.1039 16.8413 81.2641 18.5678 76.4645C20.2944 72.0488 20.4862 71.8569 21.2535 76.2725C21.8291 78.7683 21.6372 81.4561 20.8699 82.4161ZM27.9679 60.7217C25.474 64.9454 31.2291 69.745 34.6822 66.2893C37.5597 63.4095 35.8332 58.0339 31.9964 58.0339C30.6536 58.0339 28.927 59.1858 27.9679 60.7217ZM446.557 57.266C443.488 60.3377 445.023 65.5213 448.668 65.5213C450.778 65.5213 452.312 63.9855 452.312 61.8736C452.504 57.6499 448.859 54.9621 446.557 57.266ZM52.7149 51.6984C51.9475 53.8102 50.7965 55.5381 50.221 55.5381C49.6455 55.5381 49.2618 53.8102 49.2618 51.6984C49.2618 49.5865 50.4128 47.8587 51.7557 47.8587C53.0986 48.0507 53.4822 49.7785 52.7149 51.6984ZM43.6985 54.0022C42.9312 58.4179 43.5067 59.5698 46.0006 58.6099C48.6863 57.6499 48.4945 59.3778 45.0414 67.0572C39.2863 79.7283 39.2863 79.7283 36.6005 75.5046C34.6822 72.4328 34.2985 72.6248 34.2985 76.2725C34.2985 78.9603 32.3801 80.6882 29.3107 80.6882C23.9393 80.6882 22.2127 75.6966 27.3923 75.6966C29.3107 75.6966 28.7352 74.3527 26.0495 72.2408C21.8291 68.9771 21.8291 68.4011 25.8576 59.9538C29.1189 53.0423 30.8454 51.5064 33.3393 53.8102C35.8332 55.9221 36.6005 55.5381 36.6005 52.4663C36.6005 50.1625 38.3271 48.4346 40.6291 48.4346C43.6985 48.0507 44.4659 49.5866 43.6985 54.0022ZM39.2863 40.1793C39.2863 42.8671 37.5597 45.5549 35.6414 46.3228C32.572 47.4747 32.572 46.7068 34.874 41.5232C38.1352 34.2277 39.2863 33.8438 39.2863 40.1793ZM47.919 25.7804C45.4251 30.004 51.1802 34.8037 54.6333 31.3479C57.5108 28.4682 55.7843 23.0926 51.9475 23.0926C50.6047 23.0926 48.8781 24.2445 47.919 25.7804ZM425.263 23.8605C422.194 27.5082 423.92 30.388 429.1 30.388C432.745 30.388 433.704 23.8605 430.251 21.7487C429.1 21.1727 426.798 22.1326 425.263 23.8605ZM221.916 6.19786C226.136 15.0292 226.136 15.9891 222.491 21.7487C215.585 32.3079 201.197 27.1243 204.842 15.6051C205.801 12.7254 205.418 10.4215 204.075 10.4215C200.813 10.4215 191.222 22.7086 191.222 26.7403C191.222 28.4682 193.524 32.6918 196.401 36.3396C203.115 44.9789 219.805 45.5549 228.438 37.4915L234.193 32.1159L232.467 42.2911C230.548 53.4263 238.03 97.007 241.291 93.7432C245.32 89.5195 250.883 51.6984 248.773 42.2911L246.663 33.0758L252.993 38.0674C266.997 49.0106 289.059 42.0991 289.059 26.7403C289.059 19.6368 282.153 10.4215 276.781 10.4215C274.095 10.4215 273.904 11.5735 276.206 15.7971C280.042 23.0926 274.095 29.2361 265.079 27.1243C257.214 25.2044 254.528 15.9891 258.94 6.58183C263.928 -3.40141 268.916 -5.89722 280.042 -3.01745C307.667 3.89403 302.487 48.0507 267.189 107.182C258.365 121.965 251.075 136.172 251.075 138.476C251.075 140.78 249.924 143.467 248.581 144.235C247.238 145.003 246.087 147.115 246.087 148.651C246.087 153.643 265.079 125.229 277.548 101.807C285.989 85.6798 294.622 73.9687 308.242 60.1458C330.304 37.4915 340.855 32.8838 355.243 39.9873C371.741 48.0507 371.165 68.2092 354.283 74.1607C348.336 76.2725 346.61 75.8885 342.581 70.8969C337.018 63.9855 338.553 58.9939 347.377 55.9221L354.092 53.6182L346.994 50.7385C337.21 46.8988 333.565 47.2827 327.81 52.8503C320.52 60.1458 321.287 72.2408 329.536 80.8802C333.181 84.7199 337.785 87.9836 339.512 87.9836C345.843 87.9836 342.773 92.0153 333.949 95.0871C324.549 98.5428 293.279 125.997 297.308 127.341C301.336 128.685 341.238 112.942 346.61 107.758C351.79 102.959 351.79 102.958 350.639 110.062C348.72 123.693 360.422 137.9 373.851 137.9C380.182 137.9 387.471 128.301 387.28 119.853V111.79L382.675 117.357C377.112 124.077 374.235 124.269 369.055 119.085C363.684 113.71 364.067 109.102 370.59 103.15C380.949 93.5512 395.337 97.5829 399.941 111.79C408.765 138.86 371.932 155.371 300.377 156.714C280.618 157.098 260.859 157.674 256.83 158.058L249.348 158.634L257.981 160.746C262.777 161.898 282.92 162.858 302.871 162.858C355.051 163.05 387.088 171.881 397.639 188.776C403.202 197.799 402.435 208.55 395.72 216.038C390.157 222.181 376.345 221.989 370.014 215.654C363.875 209.51 363.875 207.783 369.822 200.295L374.618 194.344L381.141 200.487L387.663 206.631V199.911C387.663 193.384 378.071 180.905 373.084 180.905C360.614 180.905 348.72 195.879 351.406 208.742L352.749 215.846L343.349 209.702C334.524 203.751 298.075 189.928 296.349 191.848C294.238 193.96 324.165 219.302 334.716 224.101C344.308 228.517 345.459 229.669 341.047 230.437C337.977 230.821 332.606 234.661 329.153 238.884C314.573 256.355 328.961 278.625 348.336 268.258C353.324 265.57 353.324 265.378 345.651 262.114C336.443 258.275 336.059 256.163 342.581 248.291C346.61 243.3 348.336 242.724 354.283 244.836C370.781 250.595 371.549 269.986 355.626 279.393C343.541 286.497 331.838 282.081 312.079 263.458C294.622 246.948 290.785 241.956 267.957 202.407C259.324 187.432 251.842 176.297 251.267 177.833C250.116 181.097 259.516 199.911 273.328 222.565C292.32 253.859 302.295 295.328 294.622 310.495C287.14 325.086 269.875 328.349 260.859 317.022C254.336 308.767 254.336 300.703 260.667 294.944C264.887 291.104 266.614 290.912 272.177 293.408C276.397 295.328 278.124 297.632 277.165 300.128C272.177 312.607 272.177 312.031 277.74 308.959C286.757 304.159 290.977 295.328 288.291 288.032C283.495 275.361 263.928 271.906 253.377 281.697L247.622 287.264L249.156 277.665C250.691 268.066 244.744 229.285 241.099 225.445C237.838 222.181 230.356 265.57 232.275 276.705L234.001 286.689L226.712 281.313C210.405 269.218 186.617 281.313 193.524 298.208C195.25 302.239 199.279 306.847 202.54 308.191C208.295 310.879 208.295 310.687 205.801 304.927C203.691 300.32 203.883 298.016 206.185 294.944C213.091 286.689 224.601 293.792 224.218 306.079C223.642 323.358 205.993 329.693 191.989 317.598C185.466 312.031 185.083 310.303 185.083 293.216C185.275 269.986 191.989 249.827 209.638 219.878C223.258 196.647 236.303 170.729 234.961 169.385C233.618 168.042 217.695 193.576 204.65 217.382C182.589 256.931 147.099 287.648 129.834 281.313C121.201 278.241 114.103 269.602 114.103 262.306C114.103 254.051 123.887 242.916 130.985 242.916C142.687 242.916 145.948 259.235 135.013 261.922C128.874 263.458 128.683 263.842 133.095 266.914C139.809 271.906 148.25 270.946 154.005 264.802C163.597 254.435 158.417 237.924 143.454 231.589L135.972 228.325L146.907 223.333C156.883 218.726 187.96 193.384 185.85 191.272C182.973 188.392 141.919 204.711 133.862 212.006C130.217 215.27 129.834 214.886 130.025 206.823C130.409 194.919 125.229 186.088 116.213 182.824C112.185 181.289 107.772 180.137 106.621 180.137C102.017 180.137 94.5355 191.656 94.5355 198.567V206.055L99.5232 200.679C102.401 197.607 105.47 195.112 106.429 195.112C110.266 195.112 114.295 201.255 114.295 207.207C114.295 220.646 93.5763 225.061 84.5599 213.542C73.6252 199.527 80.3395 184.744 102.784 174.185C119.858 166.122 140.768 162.858 177.793 162.474C217.311 162.09 229.589 159.402 203.883 156.714C193.524 155.755 178.56 155.371 170.311 156.138C162.062 156.906 150.936 156.522 145.372 155.371C139.809 154.219 131.176 152.683 125.805 151.723C112.185 149.611 93.1926 140.972 86.4783 133.676C78.4211 125.037 78.4211 109.102 86.4783 102.575C93.5763 96.815 101.25 96.623 108.731 101.807C115.446 106.606 115.254 117.165 108.348 121.389C104.703 123.693 102.976 122.925 99.1396 117.933L94.3436 111.598V119.661C94.3436 128.301 101.442 137.708 108.156 137.708C121.393 137.708 133.862 121.773 130.601 108.718L128.874 101.999L136.356 108.334C142.879 113.902 178.177 127.725 185.083 127.533C189.303 127.341 158.226 100.271 148.442 95.6631C137.891 90.6714 136.932 88.5596 144.03 86.2558C150.744 84.1439 158.993 73.0088 158.993 66.2893C158.993 58.4179 149.785 47.4747 143.07 47.4747C140.001 47.4747 135.397 49.0106 132.903 50.9305C128.491 54.1942 128.683 54.3862 134.821 55.9221C139.617 57.074 141.344 59.1858 141.344 63.2175C141.344 75.8885 127.532 79.1523 119.091 68.4011C109.882 56.69 113.527 44.403 128.107 38.4514C136.356 34.9957 137.699 35.1877 150.168 41.3312C164.556 48.4346 189.687 73.9687 197.744 89.7115C211.748 117.357 235.92 154.603 235.92 148.843C235.92 145.771 217.887 111.406 207.144 94.3192C191.989 69.937 185.083 48.2427 184.891 25.3964C184.891 8.3097 185.275 6.58183 191.989 0.822266C197.36 -3.78539 201.389 -5.12928 208.103 -4.55333C215.969 -3.40141 217.887 -1.86552 221.916 6.19786ZM74.2007 -3.20943C74.2007 -1.09759 75.9272 0.63028 77.8456 0.63028C79.9558 0.63028 81.4905 -1.09759 81.4905 -3.20943C81.4905 -5.32127 79.764 -7.04913 77.8456 -7.04913C75.9272 -7.04913 74.2007 -5.32127 74.2007 -3.20943ZM398.79 -6.85715C396.296 -2.63348 402.051 2.16616 405.504 -1.28957C408.382 -4.16936 406.655 -9.54494 402.818 -9.54494C401.475 -9.54494 399.749 -8.20105 398.79 -6.85715ZM194.291 -15.8805C177.217 -8.39303 171.27 17.909 179.903 46.8988C182.013 53.6182 183.548 59.3778 183.548 59.7618C183.548 59.9538 178.177 54.7702 171.462 48.0507C144.03 20.4048 120.242 18.2929 102.209 42.0991C96.6457 49.5865 95.3028 53.6183 95.4947 64.5614C95.6865 75.5046 94.9191 78.0004 91.6579 78.0004C80.1477 78.0004 66.5272 98.1589 66.5272 115.054C66.5272 134.444 80.5313 146.923 112.376 155.562L127.148 159.594L109.882 163.818C78.613 171.689 64.9925 185.896 67.1027 208.358C68.4456 222.757 74.7762 232.357 86.4783 238.308C94.3436 242.34 94.9191 243.492 95.3028 255.395C95.6865 275.169 112.376 292.832 130.985 292.832C142.495 292.832 162.254 281.505 174.34 268.066C184.507 256.739 185.275 257.315 179.903 272.866C177.793 278.625 176.258 290.336 176.258 298.784C176.258 324.51 188.728 337.757 212.516 337.757C223.258 337.757 238.605 331.613 238.605 327.389C238.605 326.43 242.634 328.349 247.622 331.613C264.312 342.94 290.977 338.333 300.761 322.398C307.283 311.839 307.283 289.184 301.144 270.946L296.54 257.891L310.928 271.714C333.181 293.024 350.639 298.016 367.328 287.84C378.839 280.737 385.361 268.834 385.361 255.011C385.361 244.068 385.937 243.108 394.761 238.692C405.12 233.317 415.288 216.614 415.288 204.711C415.288 194.728 408.382 180.905 400.708 175.913C397.255 173.609 385.553 168.81 374.618 165.354L354.859 158.826L371.741 154.603C399.557 147.691 415.096 133.1 415.096 113.71C415.096 101.807 404.929 85.1039 394.569 79.7283C385.937 75.3126 385.169 74.1607 385.169 63.7935C385.169 57.6499 383.443 49.3946 381.333 45.3629C376.153 35.1877 360.998 25.3964 350.255 25.3964C338.936 25.3964 319.177 36.9155 307.091 50.1625C296.732 61.6816 296.54 61.4897 301.72 44.403C306.324 28.8521 306.516 10.2296 301.912 -0.713615C294.622 -18.1843 265.079 -25.2878 248.197 -13.5766L239.565 -7.62509L232.467 -13.5766C224.409 -20.4881 207.336 -21.448 194.291 -15.8805ZM410.684 2.35815C408.382 4.27801 407.806 5.23793 409.341 4.46999C410.876 3.70205 412.986 4.08601 413.945 5.6219C416.439 9.46161 408.19 11.5735 403.969 8.11771C401.667 6.19786 400.324 6.00587 400.324 7.73374C400.324 9.26962 402.435 11.9574 404.929 13.6853C407.422 15.4132 410.108 18.8689 411.067 21.3647C412.027 23.8605 414.137 25.7804 415.671 25.7804C417.974 25.7804 418.165 25.2044 415.671 22.7086C411.451 18.4849 412.027 13.3013 416.439 13.3013C418.549 13.3013 420.084 14.4532 420.084 15.7971C420.084 17.141 421.235 18.2929 422.578 18.2929C426.798 18.2929 425.455 11.1895 420.659 8.69367C418.357 7.34977 417.014 5.42992 417.974 4.66197C419.508 3.12609 440.035 28.2762 440.035 31.7319C440.035 32.6918 438.116 33.4598 435.623 33.6518C432.937 33.8438 432.553 34.4197 434.472 35.1877C438.884 36.9155 438.308 43.443 433.704 43.443C431.594 43.443 429.1 41.5232 428.333 39.2193C426.798 35.3796 426.606 35.3796 425.263 39.4113C423.92 43.0591 422.578 42.2911 417.398 34.2277C413.945 28.8521 405.12 18.101 398.022 10.2296C387.855 -1.09759 385.937 -4.16935 389.582 -4.36134C393.802 -4.55332 393.802 -4.74531 389.773 -5.70524C387.471 -6.28119 385.361 -8.39304 385.361 -10.3129C385.361 -15.3045 390.541 -17.8003 393.035 -13.7686C394.186 -11.8488 395.912 -11.0808 396.68 -12.0408C398.982 -14.3446 395.529 -18.9522 391.5 -18.9522C389.582 -18.9522 387.855 -20.8721 387.855 -23.1759C387.855 -26.0557 392.075 -23.1759 401.475 -13.9606C413.753 -2.2495 414.52 -0.905602 410.684 2.35815ZM367.904 -30.8553C367.904 -28.9355 368.863 -26.6316 370.206 -25.8637C372.892 -24.1358 378.455 -30.4714 376.345 -32.7752C373.084 -35.8469 367.904 -34.503 367.904 -30.8553ZM351.406 -30.6633C352.557 -27.3996 351.981 -27.3996 347.377 -29.7034C339.512 -33.9271 339.128 -34.503 344.883 -34.503C347.569 -34.503 350.447 -32.7752 351.406 -30.6633ZM105.662 -32.9672C102.209 -29.5114 103.936 -24.1358 108.348 -25.0958C110.65 -25.4797 112.76 -27.5916 112.76 -29.5114C112.76 -33.3511 108.348 -35.463 105.662 -32.9672ZM380.949 -25.4797C376.92 -22.216 376.92 -22.024 380.757 -23.5599C383.635 -24.5198 385.169 -23.7519 385.169 -21.2561C385.169 -15.6885 378.263 -13.9606 375.386 -18.9522C373.084 -22.9839 372.892 -22.7919 372.892 -18.5683C372.892 -16.0724 375.002 -13.3847 377.879 -12.6167C380.565 -11.8488 382.867 -9.73693 382.867 -7.81708C382.867 -5.70524 377.304 -8.58501 369.247 -14.9205C361.765 -20.6801 356.777 -25.8637 358.12 -26.4397C359.463 -27.0156 358.696 -28.7435 356.202 -30.6633C352.557 -33.3511 352.365 -34.5031 354.859 -37.1908C357.545 -39.8786 358.504 -39.8786 360.23 -36.9989C361.765 -34.695 362.724 -34.503 364.067 -36.4229C365.026 -37.9588 365.026 -40.4546 364.067 -41.9905C363.108 -43.5264 367.52 -41.2225 374.043 -36.8069C384.786 -29.5114 385.169 -28.7435 380.949 -25.4797ZM360.422 -45.6382C360.422 -42.7584 355.626 -42.7584 354.667 -45.6382C353.708 -48.134 354.475 -48.71 356.969 -47.942C358.696 -47.1741 360.422 -46.0222 360.422 -45.6382ZM270.642 -46.7901C291.361 -43.3344 308.051 -36.0389 317.642 -26.0557C326.467 -17.0324 330.879 -1.86552 324.932 -1.86552C318.794 -1.86552 313.038 6.77382 311.696 18.2929C309.777 34.6117 312.847 37.6835 324.165 30.772C335.867 23.4765 341.43 15.0292 339.512 7.15779C337.785 0.246315 341.239 -1.86552 353.516 -1.86552C380.182 -1.86552 419.508 41.3312 434.855 87.4077C440.994 106.03 441.57 130.22 436.006 141.932C431.21 152.107 427.182 153.835 418.549 149.419C414.137 147.115 409.724 146.731 404.929 148.075C396.488 150.571 382.675 158.442 382.675 160.938C382.675 164.01 403.778 173.033 410.684 173.033C414.329 173.033 419.125 171.113 421.235 169.001C425.072 165.162 425.839 165.354 431.594 171.113C453.08 192.808 434.855 256.739 395.72 297.056C380.182 312.991 366.561 320.67 353.708 320.67C341.622 320.67 338.553 318.558 338.745 309.919C338.745 302.047 332.798 294.368 322.63 289.184C312.463 283.809 310.736 284.769 310.736 295.52C310.736 309.151 314.573 317.79 322.055 321.246C327.234 323.55 328.194 325.47 327.043 330.269C324.357 340.636 318.602 347.356 305.94 354.267C262.969 377.69 176.834 369.434 158.993 340.06C153.238 330.461 152.47 320.862 157.842 320.862C163.789 320.862 169.544 309.343 169.736 297.248C169.736 290.912 169.16 285.153 168.393 284.385C166.091 282.081 149.401 293.216 144.989 299.936C142.687 303.391 141.727 308.383 142.687 311.839C144.413 318.75 140.96 320.862 127.723 320.862C103.936 320.862 74.3925 292.064 54.4414 249.635C37.5597 213.734 36.2169 184.744 50.6047 171.113C56.168 165.738 56.9353 165.738 62.4986 169.385C69.0211 173.801 79.9558 171.881 90.8906 164.586C98.9477 159.402 98.3722 157.674 87.0538 151.339C75.5436 144.811 66.1435 144.427 60.5802 149.995C56.7435 153.835 55.9761 153.643 50.221 147.883C17.225 114.286 78.4211 -1.86552 128.874 -1.86552C140.193 -1.86552 144.797 1.20624 142.879 7.34977C140.96 13.3013 148.825 24.0525 158.993 29.4281C169.736 34.9957 171.27 34.0357 171.27 23.0926C171.27 10.2296 165.324 -1.86552 158.801 -1.86552C152.279 -1.86552 152.279 -9.92892 158.801 -20.4881C172.038 -42.3745 223.834 -54.4695 270.642 -46.7901ZM167.242 -47.3661C168.009 -46.2142 166.283 -44.4863 163.597 -43.7183C159.377 -42.5664 158.993 -42.9504 161.487 -46.0222C164.94 -50.0539 165.515 -50.2459 167.242 -47.3661ZM297.691 -46.9821C343.541 -34.1191 391.692 0.246307 416.631 38.0674C420.084 43.251 424.112 47.0907 425.839 46.5148C427.374 45.9388 429.867 47.8587 431.21 50.9305C432.553 54.0022 435.431 56.882 437.349 57.4579C440.419 58.4179 440.419 57.8419 437.925 55.1541C433.704 50.5465 434.088 45.3629 438.5 45.3629C440.61 45.3629 442.145 47.2827 442.145 49.5865C442.145 53.0423 442.721 53.2343 445.214 50.7385C447.708 48.2427 447.516 46.8988 443.872 44.211C441.186 42.0991 440.418 40.1793 441.953 39.2193C443.296 38.2594 447.9 44.211 452.121 52.6583C460.753 69.745 460.945 70.705 456.149 68.7851C453.463 67.8252 452.888 68.7851 454.039 72.6248C455.766 79.1523 448.668 79.7283 445.023 73.3927C442.721 69.3611 442.529 69.3611 442.337 73.2008C442.337 75.5046 443.296 78.1924 444.831 78.9603C446.174 79.7283 447.325 82.992 447.133 86.0638C446.941 89.7115 446.557 90.2875 445.598 87.7917C440.61 74.1607 429.676 52.2744 428.525 53.4263C427.757 54.1942 429.484 59.5698 432.361 65.3293C435.239 71.0889 437.349 76.2725 436.774 76.6565C436.39 77.0405 431.594 69.1691 426.414 58.9939C415.671 38.0674 388.814 7.34978 375.386 0.438301C361.19 -6.66516 351.79 -8.00906 342.006 -3.78539C332.03 0.438301 330.304 -0.329643 330.304 -9.54494C330.304 -26.8236 308.434 -42.9504 274.287 -50.6298C269.299 -51.7817 269.299 -51.7817 274.287 -51.9737C277.357 -51.7817 287.716 -49.6699 297.691 -46.9821ZM332.989 -50.8218C332.989 -48.902 333.949 -46.5981 335.292 -45.8302C337.977 -44.1023 343.541 -50.4378 341.43 -52.7417C338.361 -55.8134 332.989 -54.6615 332.989 -50.8218ZM255.295 -52.7417C247.43 -52.1657 234.577 -52.1657 226.712 -52.7417C218.846 -53.3176 225.369 -53.7016 241.099 -53.7016C256.83 -53.7016 263.161 -53.1256 255.295 -52.7417ZM140.576 -52.7417C137.507 -49.6699 138.85 -44.4863 142.687 -44.4863C144.797 -44.4863 146.332 -46.7901 146.332 -49.4779C146.332 -54.4695 143.646 -56.0054 140.576 -52.7417ZM279.467 -56.9653C280.234 -55.6214 279.275 -54.4695 276.973 -54.4695C274.671 -54.4695 273.712 -55.6214 274.479 -56.9653C275.246 -58.3092 276.397 -59.4612 276.973 -59.4612C277.548 -59.4612 278.699 -58.3092 279.467 -56.9653ZM204.842 -56.9653C205.609 -55.6214 204.65 -54.4695 202.54 -54.4695C200.43 -54.4695 198.703 -55.6214 198.703 -56.9653C198.703 -58.3092 199.662 -59.4612 201.005 -59.4612C202.348 -59.4612 203.883 -58.3092 204.842 -56.9653ZM339.704 -56.7734C346.226 -53.8936 350.255 -51.0138 348.528 -50.2459C346.802 -49.6699 345.459 -48.134 345.459 -46.7901C345.459 -45.4462 346.802 -44.8703 348.528 -45.0622C350.255 -45.4462 351.598 -43.9103 351.598 -41.9905C351.598 -39.8786 349.296 -38.1508 346.61 -38.1508C343.924 -38.1508 340.855 -37.1908 340.087 -36.0389C339.32 -34.887 334.141 -36.2309 328.961 -39.1107C323.589 -41.9905 320.904 -44.2943 323.014 -44.4863C325.892 -44.6783 325.891 -45.2542 322.438 -47.1741C316.108 -50.8218 316.683 -57.9253 323.206 -56.1974C327.043 -55.2375 328.002 -55.8134 327.043 -58.3092C325.316 -62.9169 325.316 -62.9169 339.704 -56.7734ZM162.446 -61.957C161.679 -60.6131 159.76 -59.4612 158.609 -59.4612C157.266 -59.4612 156.307 -60.6131 156.307 -61.957C156.307 -63.3009 158.034 -64.4528 160.144 -64.4528C162.254 -64.4528 163.405 -63.3009 162.446 -61.957ZM323.014 -63.1089C323.014 -60.2291 318.218 -60.2291 317.259 -63.1089C316.3 -65.6047 317.067 -66.1806 319.561 -65.4127C321.479 -64.6448 323.014 -63.4928 323.014 -63.1089ZM176.258 -63.3009C176.258 -60.8051 177.793 -59.4612 180.671 -60.0371C185.85 -60.997 185.658 -65.4127 180.095 -66.5646C177.793 -66.9486 176.258 -65.6047 176.258 -63.3009ZM297.308 -67.7165C294.238 -64.6448 295.773 -59.4612 299.418 -59.4612C301.528 -59.4612 303.063 -60.997 303.063 -63.1089C303.063 -67.3326 299.61 -70.0204 297.308 -67.7165ZM188.728 -67.9085C188.728 -64.6448 189.495 -64.4528 192.181 -66.7566C194.675 -68.8684 196.209 -68.8684 197.36 -66.9486C199.662 -63.3009 193.715 -56.5814 190.262 -58.6932C188.536 -59.6531 188.728 -58.6932 190.646 -56.3894C193.332 -52.9336 192.756 -52.1657 187.001 -50.8218C183.164 -49.8619 178.177 -48.518 175.683 -47.942C172.613 -46.9821 171.846 -47.75 172.805 -50.4378C173.956 -53.3176 172.997 -53.8936 168.968 -52.7417C165.324 -51.7817 163.789 -52.5497 163.789 -55.4295C163.789 -57.7333 165.515 -59.4612 167.817 -59.4612C171.079 -59.4612 171.27 -60.2291 168.777 -63.1089C166.283 -66.1806 167.242 -67.1406 174.148 -69.0604C186.234 -72.7081 188.728 -72.5162 188.728 -67.9085ZM309.202 -64.0688C308.051 -60.6131 308.818 -59.8451 311.696 -60.997C314.189 -61.957 315.532 -61.189 315.532 -58.6932C315.532 -53.1256 310.928 -51.0138 306.708 -54.6615C304.022 -56.9653 303.063 -56.9653 303.063 -54.8535C303.063 -53.3176 304.789 -51.3978 306.708 -50.8218C308.818 -50.2459 312.271 -49.0939 314.573 -48.326C316.875 -47.5581 318.218 -46.5981 317.642 -46.0222C316.683 -45.0622 287.908 -52.1657 285.606 -54.0856C285.03 -54.6615 285.989 -56.0054 288.1 -57.3493C290.977 -59.2692 290.593 -59.6531 286.181 -59.6531C280.426 -59.6531 278.508 -65.6047 283.112 -68.4845C284.455 -69.2524 285.606 -68.6765 285.606 -67.1406C285.606 -65.6047 286.757 -65.0287 287.908 -65.7967C289.251 -66.5646 289.634 -68.8684 289.059 -70.5963C288.1 -73.2841 290.018 -73.4761 299.226 -71.1723C308.626 -69.0604 310.353 -67.9085 309.202 -64.0688ZM285.606 -73.4761C285.606 -72.9001 283.879 -71.9402 281.961 -70.9803C279.85 -70.2123 278.316 -70.5963 278.316 -71.9402C278.316 -73.2841 280.042 -74.436 281.961 -74.436C283.879 -74.436 285.606 -74.052 285.606 -73.4761ZM255.871 -70.9803C255.871 -69.0604 256.83 -66.7566 258.173 -65.9887C260.859 -64.2608 266.422 -70.5963 264.312 -72.9001C261.05 -75.7799 255.871 -74.628 255.871 -70.9803ZM216.352 -70.5963C217.503 -65.2207 221.916 -64.8367 222.875 -70.0204C223.45 -72.7081 222.107 -74.436 219.614 -74.436C217.311 -74.436 215.969 -72.9001 216.352 -70.5963ZM201.005 -71.9402C201.005 -70.5963 200.046 -69.4444 198.703 -69.4444C197.36 -69.4444 195.634 -70.5963 194.866 -71.9402C194.099 -73.2841 195.058 -74.436 197.169 -74.436C199.279 -74.436 201.005 -73.2841 201.005 -71.9402ZM263.928 -76.9318C271.985 -76.9318 273.52 -76.3559 271.218 -73.8601C266.997 -69.6364 267.381 -65.6047 271.601 -69.0604C274.287 -71.3643 275.438 -70.9803 276.397 -68.2925C278.124 -63.6848 274.287 -60.997 268.916 -62.9169C266.23 -64.0688 265.463 -63.3009 266.422 -60.6131C267.573 -57.5413 265.655 -56.7734 256.446 -56.7734C246.087 -56.7734 245.32 -57.1573 248.389 -60.997C250.308 -63.3009 250.691 -64.4528 249.156 -63.6848C244.744 -60.997 239.756 -65.7967 241.675 -70.7883C243.21 -74.628 243.785 -74.82 245.703 -71.7482C246.854 -69.8284 248.773 -68.8684 249.732 -69.8284C250.691 -70.7883 249.924 -73.4761 248.005 -75.7799C244.936 -79.6196 245.128 -79.8116 249.156 -78.2757C251.65 -77.6998 258.365 -76.9318 263.928 -76.9318ZM242.059 -76.9318C241.291 -75.5879 239.373 -74.436 238.222 -74.436C236.879 -74.436 235.92 -75.5879 235.92 -76.9318C235.92 -78.2757 237.646 -79.4276 239.756 -79.4276C241.867 -79.4276 243.018 -78.2757 242.059 -76.9318ZM229.589 -74.244C228.438 -70.5963 228.822 -69.4444 230.74 -70.5963C235.344 -73.4761 239.181 -69.6364 235.728 -65.6047C234.193 -63.6848 231.891 -62.7249 230.548 -63.4928C229.397 -64.2608 228.246 -63.4928 228.246 -61.957C228.246 -60.0371 230.548 -59.6531 234.385 -60.6131C237.646 -61.381 241.099 -60.997 242.059 -59.6531C243.018 -58.1173 237.454 -57.1573 227.095 -57.1573C215.969 -57.1573 211.173 -58.1173 212.324 -59.8451C213.283 -61.381 212.516 -62.3409 210.597 -61.957C203.691 -60.997 201.005 -62.149 201.005 -66.1806C201.005 -68.6765 202.348 -69.6364 204.65 -68.8684C209.446 -67.1406 211.94 -71.1723 207.911 -73.8601C205.993 -75.204 209.446 -76.5479 217.12 -77.3158C224.026 -78.0837 229.973 -79.0437 230.356 -79.2357C230.932 -79.2357 230.548 -77.1238 229.589 -74.244ZM207.528 -79.4276C171.462 -73.6681 133.478 -58.8852 104.511 -39.1107C90.5069 -29.5114 54.2496 5.23793 54.2496 9.07764C54.2496 10.6135 60.0047 5.6219 66.9109 -1.86552C76.8864 -12.6167 79.9558 -14.7286 81.8742 -11.8488C83.7926 -8.777 84.5599 -8.777 86.4783 -12.0408C88.3967 -15.1125 89.3559 -15.1125 92.0416 -12.4247C94.7273 -9.73693 94.3436 -8.58502 90.5069 -5.51325C86.2865 -2.2495 86.0946 -1.86552 89.9314 -1.86552C92.2334 -1.86552 94.7273 -3.40141 95.4947 -5.32127C96.262 -7.24112 98.9477 -9.35296 101.633 -10.1209C104.319 -10.8888 106.429 -13.3847 106.238 -16.0724C106.046 -18.7602 105.47 -19.3362 104.703 -17.6083C102.976 -13.3847 93.96 -13.5766 93.96 -17.9923C93.96 -19.9122 95.3028 -22.024 97.0294 -22.6C99.3314 -23.3679 99.3314 -23.9439 97.0294 -25.4797C95.3028 -26.6316 93.1926 -25.4797 92.2334 -22.7919C91.0824 -20.2961 88.5885 -17.9923 86.6701 -17.6083C81.4905 -16.6484 102.593 -35.271 114.295 -41.7985C119.666 -44.8703 123.887 -46.2142 123.887 -44.8703C123.887 -43.5264 121.585 -41.9905 118.899 -41.2225C113.911 -39.8786 111.801 -34.503 116.405 -34.503C117.748 -34.503 118.899 -35.655 118.899 -36.9989C118.899 -38.3428 120.05 -39.4947 121.393 -39.4947C122.736 -39.4947 123.887 -37.1908 123.887 -34.503C123.887 -31.4313 122.16 -29.5114 119.666 -29.5114C116.405 -29.5114 116.213 -28.7435 118.323 -26.6316C120.625 -24.3278 122.352 -24.5198 125.613 -27.5916C128.107 -29.7034 131.944 -32.0072 134.438 -32.9672C136.74 -33.7351 138.85 -35.8469 138.85 -37.5748C138.85 -39.8786 138.083 -39.8786 135.972 -37.7668C132.327 -34.1191 126.38 -36.4229 126.38 -41.4145C126.38 -43.7183 127.723 -44.6783 130.409 -43.7183C132.903 -42.7584 133.862 -43.3344 133.287 -45.2542C132.711 -46.9821 130.793 -48.134 129.258 -47.75C124.078 -46.5981 126.38 -49.4779 133.287 -52.9336C143.07 -57.9253 151.511 -60.2291 151.128 -57.9253C150.168 -52.9337 151.703 -51.2058 153.813 -54.6615C155.54 -57.5413 156.883 -57.7333 158.993 -55.4295C162.638 -51.7817 159.952 -47.1741 154.389 -46.9821C150.744 -46.9821 150.744 -46.5981 153.813 -44.6783C158.417 -41.7985 158.417 -41.7985 140.001 -32.5832C116.98 -21.0641 76.6946 11.7654 76.6946 18.8689C76.6946 20.2128 83.7926 14.4532 92.4253 6.19786C110.65 -11.4648 136.356 -28.7435 157.65 -37.7668C176.258 -45.6382 202.732 -52.7417 208.295 -51.2058C211.365 -50.4378 211.173 -50.0539 207.336 -49.8619C195.826 -49.2859 170.695 -38.5347 162.83 -31.0473C157.458 -25.8637 153.43 -18.9522 151.511 -11.6568L148.442 -0.329643L137.891 -4.16936C128.107 -7.62509 126.381 -7.62509 116.213 -3.78539C99.9069 2.55014 86.0946 13.6853 72.8578 31.156C50.221 61.4897 36.7924 94.5112 36.7924 120.237C36.7924 138.284 42.9312 152.491 51.7557 154.795C58.0863 156.522 58.0863 162.09 51.7557 163.626C36.4087 167.658 32.1883 200.295 42.7393 231.589C46.0006 241.188 48.3026 249.443 47.919 249.827C46.5761 251.171 36.6005 222.373 32.572 205.479C26.625 180.521 27.3923 131.756 34.1067 106.606C40.2455 83.568 53.4822 54.3862 65.1843 38.0674C76.8864 21.5567 78.4211 18.4849 72.0905 24.0525C69.0211 26.7403 64.2251 32.8838 61.3476 37.4915C56.5516 45.1709 55.7843 45.7469 54.0578 41.3312C52.3312 37.1075 52.1394 37.1075 51.9475 40.9472C51.9475 43.443 50.221 45.3629 48.1108 45.3629C43.123 45.3629 40.4373 40.1793 44.274 37.8755C46.5761 36.3396 46.3843 35.7636 43.3149 34.9957C39.6699 34.2277 40.0536 32.6918 45.8087 24.2445C49.4537 18.8689 52.9067 15.7971 53.4822 17.333C54.8251 21.5567 59.0455 21.1727 59.0455 16.5651C59.0455 14.4532 60.1966 12.7254 61.5394 12.7254C65.7598 12.7254 67.2945 20.0208 63.8415 24.0525C61.5394 26.7403 61.5394 27.7002 63.6496 27.7002C65.1843 27.7002 67.2945 25.7804 68.0619 23.2846C68.8292 20.7887 71.7068 17.525 74.2007 15.6051C76.6946 13.8773 78.8048 11.1895 78.8048 9.65359C78.8048 7.92573 77.4619 8.11771 75.1599 10.0376C70.9395 13.4933 62.6904 11.3815 65.1843 7.54176C66.1435 6.19785 67.8701 5.6219 69.0211 6.38985C70.3639 7.15778 71.3231 6.58183 71.3231 5.23793C71.3231 1.20624 64.417 2.16616 61.9231 6.58183C60.7721 8.69366 57.7027 10.8055 55.2088 11.1895C43.6985 12.9174 16.8413 63.7935 8.01675 101.423C-0.0404238 135.404 -1.76696 157.29 1.68611 183.976C7.44124 225.445 21.8291 264.61 42.5475 295.52C51.372 308.575 88.7803 347.932 92.4253 347.932C93.7681 347.932 92.8089 345.628 90.315 342.94C86.2865 338.525 86.2865 337.949 89.9314 337.949C93.5763 337.949 95.3028 342.364 94.3436 348.7C93.7681 352.54 131.944 375.386 151.511 382.873C185.85 396.12 201.389 399 240.907 399C280.618 399 297.308 395.928 330.112 382.873C387.28 359.835 438.308 309.151 462.288 251.747C483.966 199.527 485.884 135.02 467.276 80.4962C441.57 5.04594 375.194 -55.6214 298.075 -74.436C273.712 -80.3876 229.014 -82.8834 207.528 -79.4276Z" fill="#F8F8F8"/>
</svg>
