<svg width="211" height="274" viewBox="0 0 211 274" fill="none" xmlns="http://www.w3.org/2000/svg">
<g clip-path="url(#clip0_353_3569)">
<path opacity="0.2" fill-rule="evenodd" clip-rule="evenodd" d="M147.599 334.027C148.037 334.794 147.489 335.452 146.175 335.452C144.861 335.452 144.313 334.794 144.751 334.027C145.189 333.26 145.847 332.603 146.175 332.603C146.504 332.603 147.161 333.26 147.599 334.027ZM155.045 329.205C153.731 330.52 155.374 332.603 157.673 332.603C158.768 332.603 159.754 331.616 159.754 330.411C159.754 328.329 156.688 327.452 155.045 329.205ZM132.268 329.205C130.954 330.52 132.596 332.603 134.896 332.603C135.991 332.603 136.976 331.616 136.976 330.411C136.976 328.329 134.02 327.452 132.268 329.205ZM177.713 324.931C175.961 326.685 176.728 328.219 179.575 328.219C181.108 328.219 182.422 327.233 182.422 326.027C182.422 323.945 179.465 323.178 177.713 324.931ZM147.927 324.822C147.489 325.26 146.175 325.37 145.189 324.931C144.094 324.493 144.423 324.164 146.066 324.055C147.599 324.055 148.475 324.383 147.927 324.822ZM109.381 325.26C108.395 326.794 112.009 330.082 113.323 328.767C113.87 328.219 114.308 327.013 114.308 325.918C114.308 323.835 110.585 323.287 109.381 325.26ZM161.506 325.041C160.74 327.123 160.959 327.233 162.711 325.808C164.463 324.383 165.448 324.822 168.515 328.329C171.033 331.178 171.581 332.603 170.157 332.603C169.062 332.603 168.186 332.055 168.186 331.507C168.186 330.959 166.872 330.301 165.229 330.192C162.82 329.972 162.601 330.301 164.025 332.055C165.448 333.808 164.901 334.137 160.74 334.137C158.002 334.137 154.607 334.575 153.293 335.014C151.322 335.781 151.103 335.342 151.979 332.493C152.965 329.534 152.746 329.315 150.884 330.959C149.351 332.164 148.365 332.274 147.708 331.288C146.504 329.315 148.037 326.904 150.555 326.904C151.76 326.904 152.198 326.027 151.76 324.712C151.103 323.068 152.198 322.52 156.688 322.52C161.616 322.63 162.382 322.959 161.506 325.041ZM140.59 325.041C140.152 326.027 140.809 326.904 141.904 326.904C144.423 326.904 145.956 329.315 144.751 331.288C144.094 332.274 143.109 332.164 141.576 330.959C139.605 329.315 139.495 329.534 140.481 332.493C141.466 335.562 141.247 335.781 138.181 335.014C136.319 334.466 133.034 334.137 130.735 334.137C127.34 334.137 126.902 333.808 128.325 332.055C129.749 330.411 129.53 330.082 127.011 330.192C125.369 330.301 124.274 331.178 124.712 332.055C125.15 333.041 124.383 333.479 122.741 333.041C120.441 332.383 120.441 332.055 123.507 328.767C125.697 326.466 127.668 325.479 129.201 326.027C131.173 326.794 131.282 326.575 129.749 324.712C128.106 322.739 128.654 322.52 134.567 322.849C139.495 323.068 141.138 323.616 140.59 325.041ZM126.354 322.63C126.792 323.397 126.245 324.055 125.15 324.055C123.945 324.055 122.631 323.397 122.193 322.63C121.755 321.863 122.302 321.205 123.398 321.205C124.493 321.205 125.807 321.753 126.354 322.63ZM160.082 320.767C158.33 321.096 155.155 321.096 152.965 320.767C150.774 320.438 152.198 320.109 156.14 320.109C160.083 320.109 161.835 320.438 160.082 320.767ZM139.495 320.767C137.305 321.096 133.801 321.096 131.72 320.767C129.53 320.438 131.282 320.219 135.662 320.219C139.824 320.109 141.576 320.438 139.495 320.767ZM119.127 321.315C120.003 322.082 119.674 322.63 118.47 322.63C117.375 322.63 117.922 323.287 119.674 324.055C123.398 325.589 123.069 329.205 119.236 328.548C117.375 328.219 116.937 328.767 117.594 330.411C118.251 332.164 117.813 332.603 116.061 332.055C114.746 331.616 111.79 330.849 109.6 330.411C106.533 329.644 105.876 328.877 106.533 326.794C107.19 324.712 106.862 324.274 105 325.041C103.248 325.698 102.81 325.26 103.139 323.287C103.467 321.424 104.672 320.657 106.862 320.986C108.943 321.205 109.709 320.767 109.162 319.78C108.067 317.698 117.046 319.232 119.127 321.315ZM184.065 318.794C182.751 320.328 183.189 320.657 186.145 320C189.211 319.452 189.759 319.78 189.321 321.972C188.992 323.507 188.007 324.493 187.021 324.274C186.145 324.055 185.379 324.602 185.379 325.37C185.379 326.137 186.255 326.794 187.459 326.794C188.554 326.794 189.868 326.137 190.416 325.37C191.511 323.616 193.92 323.507 193.92 325.15C193.92 326.246 180.341 331.068 177.056 331.068C176.18 331.068 175.413 329.972 175.413 328.767C175.413 326.904 174.975 326.794 173.333 328.219C171.581 329.644 171.033 329.534 170.267 327.342C169.719 325.918 168.296 323.945 167.091 322.959C165.12 321.424 165.12 321.205 167.31 321.205C168.624 321.205 169.829 321.753 169.829 322.63C169.829 323.507 171.252 324.055 173.004 324.055C175.414 324.055 175.742 323.726 174.428 322.301C173.004 320.876 173.771 320.219 178.042 318.904C185.05 316.602 185.926 316.602 184.065 318.794ZM198.739 317.041C197.315 319.452 200.6 322.191 202.571 320.219C204.214 318.575 203.228 315.506 201.038 315.506C200.272 315.397 199.286 316.164 198.739 317.041ZM105.767 316.821C107.629 318.027 107.519 318.246 105.548 318.246C104.234 318.246 102.701 317.589 102.263 316.821C101.058 315.068 102.92 315.068 105.767 316.821ZM88.9028 317.369C87.1507 319.452 88.1362 321.096 91.0929 321.096C93.1736 321.096 93.7211 317.369 91.75 316.164C90.9834 315.835 89.6693 316.383 88.9028 317.369ZM80.9088 316.821C81.3468 317.589 81.1278 318.246 80.3612 318.246C79.5947 318.246 78.4996 317.589 78.0616 316.821C77.6235 316.054 77.8426 315.397 78.6091 315.397C79.3756 315.397 80.3612 316.054 80.9088 316.821ZM204.104 310.794C203.338 312.876 203.557 312.986 205.419 311.451C207.171 310.027 207.937 310.027 209.361 311.78C211.003 313.753 210.346 314.52 207.609 314.082C205.966 313.862 206.404 316.493 208.156 317.589C209.142 318.246 207.937 319.561 204.98 321.205C198.848 324.493 196.658 324.493 196.548 321.424C196.548 319.342 196.329 319.232 195.234 321.096C194.139 322.849 193.592 322.849 192.059 321.315C190.525 319.78 190.745 319.123 192.935 317.369C195.015 315.835 195.125 315.287 193.592 315.287C192.387 315.287 190.745 315.945 189.978 316.821C189.102 317.698 188.116 317.808 187.678 317.041C187.24 316.383 190.087 314.63 193.92 313.205C197.753 311.78 201.257 310.136 201.695 309.369C203.119 307.287 205.09 308.273 204.104 310.794ZM97.3348 316.493C95.3637 318.137 95.3637 318.137 97.5538 317.369C98.8679 316.931 100.073 317.041 100.182 317.698C100.292 318.356 100.511 320.328 100.73 321.972C100.949 323.616 101.496 325.698 101.934 326.466C102.482 327.342 101.715 327.671 99.8535 327.123C97.9919 326.685 97.4443 326.027 98.5394 325.37C99.6345 324.712 99.525 323.835 98.1014 322.63C96.4588 321.205 95.9112 321.315 95.5827 323.068C95.1447 324.931 94.1591 324.822 88.6838 322.301C85.1795 320.657 83.0989 319.013 84.0845 318.685C86.2746 317.808 86.4936 315.287 84.3035 315.726C83.4274 315.945 82.4419 315.287 82.0038 314.301C81.0183 311.671 85.8366 310.246 87.3697 312.657C88.3552 314.301 88.5743 314.301 88.6838 312.767C88.6838 311.671 87.4792 310.575 85.9461 310.136C84.413 309.698 82.8799 308.602 82.5514 307.616C82.2228 306.629 85.8366 307.835 90.7644 310.246C98.3204 314.082 99.306 314.958 97.3348 316.493ZM218.559 305.534C217.136 307.945 220.421 310.684 222.392 308.712C224.035 307.068 223.049 303.999 220.859 303.999C220.092 303.999 219.107 304.766 218.559 305.534ZM68.9725 305.972C67.2203 308.054 68.2059 309.698 71.1626 309.698C73.2432 309.698 73.7908 305.972 71.8196 304.766C71.0531 304.438 69.8485 304.876 68.9725 305.972ZM236.628 291.944C237.285 295.013 239.804 295.232 240.351 292.273C240.68 290.739 239.913 289.752 238.49 289.752C237.176 289.752 236.409 290.629 236.628 291.944ZM51.0133 291.287C49.5897 293.698 52.8749 296.437 54.846 294.465C56.4886 292.821 55.5031 289.752 53.3129 289.752C52.4369 289.752 51.4513 290.41 51.0133 291.287ZM36.3393 274.848C36.9963 277.916 39.515 278.136 40.0625 275.177C40.3911 273.642 39.6245 272.656 38.2009 272.656C36.8868 272.656 36.1203 273.533 36.3393 274.848ZM251.083 273.423C249.988 276.163 251.302 277.478 254.04 276.382C256.887 275.286 256.887 273.094 254.04 272.108C252.835 271.56 251.631 272.218 251.083 273.423ZM41.8147 266.19C41.8147 266.957 43.3478 269.587 45.2094 271.889C47.071 274.19 48.7136 275.505 48.7136 274.738C48.7136 273.971 47.1805 271.341 45.3189 269.039C43.4573 266.738 41.9242 265.423 41.8147 266.19ZM30.4259 267.615C30.4259 268.82 30.2069 269.807 29.8784 269.807C29.5499 269.807 29.0023 268.82 28.4548 267.615C28.0168 266.409 28.2358 265.423 29.0023 265.423C29.7689 265.533 30.4259 266.409 30.4259 267.615ZM263.238 265.861C262.034 268.053 261.377 268.492 260.939 267.176C260.61 266.081 261.158 264.656 262.253 263.998C264.99 262.135 265.1 262.354 263.238 265.861ZM245.608 268.711C243.418 272.108 237.504 279.122 232.357 284.382C227.21 289.643 223.816 294.026 224.692 294.026C227.977 294.026 252.069 265.094 250.316 263.341C249.988 262.902 247.798 265.313 245.608 268.711ZM41.7052 260.82C53.4224 283.396 76.0904 298.41 88.4648 292.054C90.8739 290.739 92.9545 289.862 93.0641 290.081C93.0641 290.3 93.3926 292.602 93.8306 295.232C95.1447 305.095 103.796 312.547 119.236 317.041C124.164 318.465 126.354 319.561 124.274 319.561C118.36 319.671 93.8306 310.465 82.9894 303.999C77.4045 300.602 67.7679 293.04 61.6355 287.232C55.5031 281.423 50.4657 277.149 50.4657 277.916C50.4657 279.999 67.2203 295.67 74.4478 300.492C77.8426 302.794 79.9232 304.876 79.0471 305.095C78.0616 305.424 78.2806 306.41 79.5947 307.835C81.3468 309.588 81.4563 310.465 80.0327 312.109C78.4996 313.972 78.1711 313.972 77.4045 311.671C76.7475 309.917 76.1999 309.698 75.4334 310.794C74.8859 311.671 74.8859 313.205 75.4334 314.082C76.0904 315.178 75.7619 315.397 74.4478 314.52C67.7679 310.575 64.5922 307.616 65.2492 305.862C65.6872 304.766 65.3587 303.89 64.5922 303.89C63.8256 303.89 63.1686 302.903 63.1686 301.698C63.1686 299.068 68.3154 298.848 69.301 301.369C69.739 302.465 70.0675 302.136 70.177 300.602C70.2865 299.177 69.1915 297.643 67.7679 297.095C66.3443 296.547 64.8112 295.341 64.1541 294.246C63.4971 293.15 61.964 292.383 60.6499 292.383C58.6788 292.383 58.7883 292.711 61.0879 294.465C63.3876 296.109 63.4971 296.876 61.964 298.41C60.4309 299.944 59.8834 299.944 58.7883 298.191C57.5837 296.328 57.2552 296.328 56.0506 298.191C54.846 299.944 53.8605 299.616 50.0277 295.67C46.0854 291.725 45.7569 290.739 47.509 289.643C48.9326 288.766 49.0421 288.218 47.8376 288.218C45.3189 288.218 45.6474 285.369 48.3851 284.382C49.5897 283.944 51.2323 284.382 51.8893 285.478C52.8749 287.122 53.0939 287.013 53.2034 285.04C53.2034 283.725 52.2179 281.971 50.9038 281.314C49.5897 280.547 48.9326 279.122 49.3707 278.026C49.8087 276.711 49.1516 276.053 47.6185 276.053C45.5379 276.053 45.4284 276.492 46.7425 278.684C47.9471 280.656 47.8376 281.533 46.3045 282.519C43.8953 284.054 41.4861 282.958 42.8002 281.095C43.2383 280.327 42.9097 279.779 42.1432 279.779C39.8435 279.779 40.3911 284.054 42.8002 284.93C44.0048 285.369 44.8809 286.355 44.8809 287.232C44.8809 289.533 40.8291 285.588 36.2298 278.903C31.959 272.656 31.083 270.464 33.3826 271.889C34.1492 272.327 35.1347 272.108 35.5728 271.231C36.0108 270.464 35.7918 269.807 34.9157 269.807C34.0396 269.807 33.3826 268.82 33.3826 267.615C33.3826 264.656 37.2154 264.875 38.9675 267.944C40.2816 270.245 40.3911 270.245 40.5006 268.053C40.5006 266.738 39.4055 264.985 38.0914 264.217C36.7773 263.45 36.1203 262.354 36.6678 261.806C37.2154 261.258 38.639 261.916 39.8435 263.45C42.5812 267.067 42.5812 264.985 39.8435 259.724C38.639 257.423 37.9819 255.56 38.4199 255.56C38.858 255.56 40.1721 257.971 41.7052 260.82ZM24.7315 255.669C24.7315 259.176 28.0168 258.628 28.7833 255.121C29.0023 253.697 28.3453 252.71 27.0312 252.71C25.7171 252.601 24.7315 253.916 24.7315 255.669ZM262.91 252.162C262.362 252.71 261.924 253.916 261.924 255.012C261.924 257.094 265.538 257.642 266.743 255.669C267.838 254.135 264.224 250.847 262.91 252.162ZM27.9072 248.107C27.4692 250.19 29.9879 250.409 30.6449 248.327C30.9734 247.45 32.6161 249.861 34.4777 253.587C36.9963 258.738 37.2154 259.834 35.4632 258.409C33.3826 256.656 33.2731 256.875 34.0397 260.272C34.8062 263.45 34.4777 264.108 32.0685 264.108C29.8784 264.108 29.3308 263.45 29.8784 261.587C30.6449 259.286 30.5354 259.286 28.6738 261.478C26.8122 263.669 26.3741 263.341 23.6365 257.532C19.9132 249.861 19.9132 249.642 22.9794 250.847C25.0601 251.614 25.1696 251.395 23.746 249.642C22.7604 248.436 22.4319 247.012 22.9794 246.464C24.403 244.929 28.3453 246.244 27.9072 248.107ZM20.4608 246.683C20.4608 248.765 20.2417 248.765 19.0372 246.902C17.285 244.162 17.285 242.19 19.0372 243.285C19.8037 243.833 20.4608 245.368 20.4608 246.683ZM30.4259 244.491C30.4259 245.149 29.7689 245.258 29.0023 244.71C28.2358 244.272 27.5787 242.737 27.5787 241.422C27.5787 239.34 27.7977 239.34 29.0023 241.203C29.7689 242.409 30.4259 243.943 30.4259 244.491ZM263.895 240.436C264.333 241.532 263.786 242.737 262.8 243.176C261.486 243.724 261.158 243.066 261.596 241.203C262.472 237.806 262.91 237.696 263.895 240.436ZM16.5185 233.641C17.066 236.82 21.2273 237.258 21.2273 234.189C21.2273 232.984 20.0227 231.888 18.5991 231.559C16.7375 231.121 16.0805 231.669 16.5185 233.641ZM269.699 231.34C268.276 233.751 271.561 236.491 273.532 234.518C275.175 232.874 274.189 229.806 271.999 229.806C271.232 229.806 270.247 230.573 269.699 231.34ZM14.7664 224.216C14.7664 224.984 14.1093 225.532 13.3428 225.532C12.5762 225.532 11.9192 224.545 11.9192 223.34C11.9192 222.134 12.5762 221.477 13.3428 222.025C14.1093 222.573 14.7664 223.449 14.7664 224.216ZM279.007 222.025C279.007 223.23 278.35 223.888 277.584 223.34C276.817 222.792 276.489 221.805 276.927 221.148C278.241 219.175 279.007 219.504 279.007 222.025ZM25.4981 228.929C28.1263 238.902 28.1263 238.463 25.1696 237.367C23.0889 236.6 22.9794 236.82 24.403 238.573C26.3741 240.984 24.5125 245.039 22.1034 243.505C21.2273 242.957 20.8988 241.861 21.4463 240.984C21.9939 239.998 21.3368 239.888 19.4752 240.436C17.1755 241.203 16.409 240.546 15.6424 237.367C15.0949 235.176 14.3283 232.326 13.9998 230.902C13.4523 229.039 13.8903 228.6 15.6424 229.367C17.6136 230.134 17.8326 229.696 17.066 227.066C16.19 224.436 16.5185 223.997 18.7086 224.436C20.2417 224.764 21.2273 226.08 21.1178 227.614C20.8988 229.587 21.3368 229.806 22.5414 228.6C23.746 227.395 23.746 226.299 22.5414 224.326C21.6653 222.901 21.2273 221.258 21.7748 220.819C22.8699 219.394 23.1984 220.162 25.4981 228.929ZM12.5762 209.97C11.3716 211.942 14.1093 214.682 16.0805 213.477C16.9565 212.929 17.6136 211.613 17.6136 210.408C17.6136 208.107 13.9998 207.668 12.5762 209.97ZM136.757 199.449C137.743 199.887 139.057 199.778 139.495 199.339C139.933 198.901 139.167 198.572 137.633 198.572C135.881 198.572 135.553 198.901 136.757 199.449ZM280.431 202.846C280.431 209.093 280.102 209.86 278.35 208.435C275.941 206.463 273.313 207.668 273.313 210.737C273.313 212.271 274.189 212.709 276.16 212.161C278.788 211.504 279.226 211.942 278.898 215.12C278.898 215.668 277.912 215.997 276.817 215.778C275.503 215.449 275.065 216.107 275.722 217.751C276.379 219.504 275.941 219.942 273.97 219.504C272.437 219.175 271.342 217.86 271.451 216.545C271.561 215.23 271.013 214.463 270.247 215.011C269.48 215.449 269.152 217.093 269.59 218.518C270.028 220.052 269.699 221.258 269.042 221.258C268.385 221.258 267.838 222.682 267.947 224.436C268.057 226.628 268.276 226.956 268.714 225.312C269.48 222.463 272.984 220.819 274.189 222.792C274.627 223.559 274.518 224.874 273.97 225.86C273.313 226.956 273.751 227.285 275.284 226.628C278.131 225.532 278.131 225.532 276.051 233.422C274.956 237.806 273.861 239.45 272.546 238.902C271.342 238.463 270.575 239.121 270.575 240.546C270.575 241.861 269.809 242.628 268.823 242.299C267.838 241.97 267.071 240.217 267.181 238.573C267.29 236.491 266.633 235.724 265.319 236.162C263.786 236.71 263.567 236.162 264.333 233.751C264.881 231.997 266.524 224.107 267.838 216.326C269.261 208.435 270.356 202.846 270.466 203.832C270.575 204.819 271.123 205.586 271.889 205.586C272.546 205.586 272.875 204.271 272.437 202.737C271.889 200.545 272.437 199.887 274.737 199.887C276.379 199.887 277.693 200.545 277.693 201.312C277.693 202.079 277.036 202.737 276.16 202.737C275.284 202.737 275.065 203.394 275.503 204.161C277.036 206.682 279.336 203.942 278.46 200.654C277.803 197.914 278.46 195.613 279.993 195.613C280.212 195.613 280.431 198.901 280.431 202.846ZM271.013 199.23C269.918 202.189 269.042 201.86 269.042 198.353C269.042 196.709 269.699 195.832 270.356 196.271C271.232 196.709 271.451 198.024 271.013 199.23ZM12.5762 187.175C11.1526 189.586 14.4379 192.325 16.409 190.353C18.0516 188.709 17.066 185.64 14.8759 185.64C14.1093 185.531 13.1238 186.298 12.5762 187.175ZM273.97 185.75C272.546 188.161 275.832 190.901 277.803 188.928C279.445 187.284 278.46 184.216 276.27 184.216C275.503 184.106 274.518 184.873 273.97 185.75ZM22.8699 183.668C22.3224 187.284 21.9939 191.558 21.9939 193.092C21.9939 195.394 21.5558 195.613 20.0227 194.188C18.3801 192.764 18.1611 192.983 18.7086 195.284C19.1467 196.928 18.5991 198.353 17.1755 198.901C14.6569 199.887 12.7952 197.805 14.2188 195.613C14.6569 194.846 14.4379 194.188 13.5618 194.188C10.3861 194.188 12.1382 199.997 15.7519 201.421C18.1611 202.298 19.1467 203.613 18.5991 204.928C18.1611 206.134 18.4896 207.011 19.3657 207.011C20.2417 207.011 20.5703 205.476 20.2417 203.504C19.9132 201.641 20.1322 199.23 20.7893 198.134C21.5558 197.038 21.9939 199.339 21.9939 204.052C21.9939 208.326 22.3224 213.477 22.7604 215.449C23.1984 217.422 23.0889 218.189 22.6509 217.203C21.4463 214.572 19.4752 215.011 19.6942 217.86C19.8037 219.175 18.7086 220.6 17.1755 220.819C15.0949 221.258 14.6569 220.819 15.4234 218.956C16.0805 217.203 15.7519 216.764 14.3283 217.312C11.9192 218.189 10.6051 215.449 10.6051 209.641C10.6051 206.572 11.1526 205.695 12.6857 206.353C13.8903 206.791 14.7664 206.463 14.7664 205.696C14.7664 204.928 13.7808 203.284 12.6857 202.079C11.2621 200.654 10.6051 197.038 10.6051 190.462C10.6051 181.695 10.8241 181.037 13.4523 181.914C15.6424 182.572 16.0805 182.352 15.4234 180.489C14.7664 178.736 15.2044 178.298 17.1755 178.626C18.7086 178.955 19.8037 180.27 19.6942 181.585C19.5847 182.9 20.1322 183.996 20.8988 183.996C21.6653 183.996 21.9939 182.352 21.6653 180.38C21.3368 178.407 21.6653 176.763 22.4319 176.763C23.1984 176.982 23.4174 179.613 22.8699 183.668ZM275.832 175.996C276.489 174.024 279.007 175.01 279.007 177.202C279.007 177.969 278.46 178.298 277.693 177.859C277.036 177.421 276.051 178.078 275.503 179.394C274.846 180.928 275.284 181.476 276.598 180.928C278.788 180.051 280.212 183.777 280.321 190.243C280.321 193.092 279.774 193.86 278.241 193.312C276.708 192.654 276.379 193.092 277.036 194.956C277.693 196.819 277.365 197.257 275.284 196.819C273.751 196.49 272.656 195.175 272.765 193.86C272.875 192.545 272.437 191.449 271.67 191.449C270.904 191.449 270.356 192.216 270.247 193.202C270.028 195.284 267.947 187.613 267.728 183.996C267.619 182.462 268.276 181.805 269.59 182.352C271.013 182.9 271.451 182.352 270.904 180.27C270.466 178.626 269.48 177.53 268.714 177.64C267.947 177.859 266.962 177.202 266.633 176.215C266.195 174.9 267.071 174.9 270.575 176.215C274.299 177.421 275.394 177.311 275.832 175.996ZM13.9998 175.448C14.4379 176.215 14.2188 177.202 13.3428 177.64C12.5762 178.078 11.9192 177.53 11.9192 176.325C11.9192 173.914 12.7952 173.476 13.9998 175.448ZM16.847 164.27C15.4234 166.681 18.7086 169.421 20.6798 167.448C22.3224 165.804 21.3368 162.736 19.1467 162.736C18.3801 162.736 17.3945 163.503 16.847 164.27ZM270.028 162.297C268.057 164.27 269.152 167.119 271.999 167.119C273.97 167.119 274.846 166.352 274.518 164.708C274.08 162.078 271.561 160.763 270.028 162.297ZM24.2935 160.215C23.746 162.188 24.184 162.845 25.6076 162.188C27.2502 161.53 27.4692 162.297 26.7027 165.256C25.3886 170.845 23.527 175.119 23.4174 173.037C23.4174 172.051 22.6509 171.284 21.7748 171.284C20.8988 171.284 20.5703 171.832 21.0083 172.599C21.4463 173.256 20.8988 174.571 19.8037 175.558C17.5041 177.53 15.3139 175.229 16.9565 172.599C17.6136 171.503 17.1755 171.174 15.6424 171.832C12.9048 172.928 12.6857 171.393 14.7664 163.831C16.0805 159.009 16.5185 158.571 18.5991 160.215C20.5703 161.859 20.7893 161.749 20.0227 159.667C19.4752 158.352 19.9132 157.037 20.7893 156.598C23.6365 155.612 25.0601 157.146 24.2935 160.215ZM269.699 157.256C269.152 158.133 269.809 158.352 271.561 157.804C273.97 157.037 274.518 157.914 275.832 163.393C277.036 168.763 276.927 169.749 275.394 169.201C274.299 168.763 273.094 169.092 272.656 169.859C272.218 170.626 272.546 171.174 273.313 171.174C274.189 171.174 274.846 171.832 274.846 172.708C274.846 173.585 273.751 174.024 272.327 173.695C271.013 173.366 269.918 172.051 270.028 170.736C270.137 168.873 269.809 168.654 268.495 169.749C267.181 170.845 266.305 170.297 265.1 167.558C263.129 163.174 262.91 159.338 264.881 160.544C265.757 161.092 265.866 160.434 265.428 159.009C264.881 157.694 265.319 156.16 266.414 155.503C268.714 154.078 270.904 155.283 269.699 157.256ZM262.691 166.79C268.495 189.147 268.166 214.682 261.815 235.176C259.187 243.614 259.187 244.71 261.158 246.683C263.238 248.765 263.457 248.765 263.457 246.464C263.457 244.929 264.552 244.053 266.305 244.053C269.48 244.053 270.137 246.354 267.4 247.34C266.414 247.669 266.086 248.436 266.633 248.984C268.166 250.628 270.685 248.436 270.685 245.368C270.685 243.833 271.342 242.628 272.108 242.628C274.08 242.628 274.08 242.737 269.809 252.491C267.728 257.204 265.428 260.711 264.662 260.272C263.895 259.834 262.8 260.272 262.143 261.258C261.486 262.245 259.953 262.683 258.639 262.135C256.777 261.368 256.668 260.601 257.872 258.409C259.187 255.998 258.968 255.669 257.106 256.436C255.025 257.204 255.025 256.984 257.106 252.93C258.311 250.518 259.296 247.669 259.296 246.683C259.187 244.601 250.974 259.724 250.974 261.916C250.974 262.683 251.85 262.135 253.054 260.601C254.259 259.067 255.135 258.628 255.135 259.615C255.135 260.601 254.149 262.354 252.945 263.56C251.74 264.765 251.302 266.409 251.85 267.396C252.507 268.492 253.054 268.272 253.383 266.519C253.602 265.094 254.697 263.998 255.792 263.998C258.53 263.998 260.063 266.957 257.872 268.272C256.558 269.149 256.668 269.478 258.42 269.916C260.501 270.355 260.282 271.122 257.106 275.834C254.149 280.218 253.054 280.985 251.412 279.56C249.769 278.245 249.44 278.355 249.44 280.327C249.44 281.643 248.674 282.519 247.688 282.19C246.703 281.862 245.936 280.218 246.046 278.464C246.155 274.3 244.951 274.629 241.227 279.67C237.942 284.163 236.957 287.122 239.804 284.273C242.213 281.862 245.17 282.081 245.17 284.711C245.17 285.917 244.513 286.903 243.637 286.903C242.76 286.903 242.541 287.67 243.199 288.547C243.856 289.643 245.06 289.204 246.922 286.903C248.345 285.04 249.878 283.834 250.207 284.163C250.535 284.492 247.907 287.889 244.403 291.615C239.147 297.205 237.614 298.191 235.971 296.766C234.547 295.561 233.89 295.561 233.89 296.657C233.89 297.533 232.905 298.3 231.81 298.3C228.853 298.3 229.072 294.465 232.138 292.711C234.547 291.287 234.438 291.287 232.138 291.177C230.715 291.177 229.291 292.054 228.853 293.15C228.415 294.246 226.882 295.451 225.349 295.889C223.816 296.328 222.611 297.753 222.611 299.287C222.611 301.369 222.94 301.479 223.925 299.944C224.582 298.848 226.225 298.3 227.429 298.848C230.496 300.054 230.386 302.684 227.32 302.684C225.458 302.684 225.239 303.122 226.553 304.438C227.867 305.753 228.853 305.424 231.153 303.013C232.795 301.259 234.547 299.944 235.095 299.944C236.847 300.054 225.13 309.808 218.012 314.191C214.289 316.493 211.222 317.698 211.222 316.931C211.222 316.164 212.865 314.849 214.727 314.082C216.698 313.315 218.231 312.109 218.231 311.232C218.231 309.15 215.712 309.369 214.946 311.561C214.398 312.986 213.851 312.986 212.317 311.451C210.675 309.808 210.784 309.26 212.974 307.616C214.398 306.52 214.946 305.314 214.179 304.876C213.413 304.438 212.098 304.986 211.113 306.191C210.127 307.397 208.375 308.273 207.171 308.273C205.966 308.273 208.813 305.753 213.522 302.684C221.407 297.533 225.349 294.026 223.049 294.026C222.502 294.026 219.764 295.889 216.917 298.081C205.199 307.287 175.961 319.89 166.762 319.561C164.901 319.452 167.31 318.356 172.019 316.931C187.35 312.547 196.767 304.328 196.767 295.232C196.767 290.191 197.753 289.533 202.243 291.944C216.369 299.287 238.599 282.519 253.054 253.697C264.552 230.792 264.99 211.394 254.259 202.846L250.316 199.668L255.025 195.065C257.544 192.545 260.282 189.038 260.939 187.175C262.91 182.133 262.472 169.64 260.063 161.749C257.653 153.749 257.434 152.434 259.296 155.503C259.734 156.818 261.377 161.859 262.691 166.79ZM29.4403 157.146C28.8928 159.338 28.2358 159.667 27.1407 158.461C25.9361 157.256 26.1551 156.489 27.6882 155.503C28.8928 154.735 29.8784 154.187 29.9879 154.187C30.0974 154.187 29.8784 155.503 29.4403 157.146ZM273.313 154.735C273.313 155.393 272.437 155.174 271.232 154.187C270.028 153.201 269.48 151.776 270.028 151.009C270.904 149.585 273.313 152.215 273.313 154.735ZM19.9132 155.283C18.3801 156.818 17.6136 154.626 18.5991 151.886C19.5847 149.365 19.6942 149.256 20.1322 151.776C20.4608 153.201 20.3512 154.735 19.9132 155.283ZM23.965 142.899C22.5414 145.31 25.8266 148.05 27.7977 146.078C29.4403 144.434 28.4548 141.365 26.2646 141.365C25.4981 141.365 24.5125 142.023 23.965 142.899ZM262.91 140.927C261.158 142.68 262.034 145.639 264.114 145.639C265.319 145.639 266.195 144.763 266.195 143.557C266.305 141.146 264.224 139.612 262.91 140.927ZM38.0914 137.749C37.6534 138.954 36.9963 139.94 36.6678 139.94C36.3393 139.94 36.1203 138.954 36.1203 137.749C36.1203 136.543 36.7773 135.557 37.5439 135.557C38.3104 135.666 38.5294 136.653 38.0914 137.749ZM32.9446 139.064C32.5065 141.584 32.8351 142.242 34.2587 141.694C35.7918 141.146 35.6823 142.132 33.7111 146.516C30.4259 153.749 30.4259 153.749 28.8928 151.338C27.7977 149.585 27.5787 149.694 27.5787 151.776C27.5787 153.311 26.4837 154.297 24.7315 154.297C21.6653 154.297 20.6798 151.448 23.6365 151.448C24.7315 151.448 24.403 150.68 22.8699 149.475C20.4608 147.612 20.4608 147.283 22.7604 142.461C24.622 138.516 25.6076 137.639 27.0312 138.954C28.4548 140.16 28.8928 139.94 28.8928 138.187C28.8928 136.872 29.8784 135.886 31.1925 135.886C32.9446 135.666 33.3826 136.543 32.9446 139.064ZM30.4259 131.173C30.4259 132.707 29.4403 134.242 28.3453 134.68C26.5932 135.338 26.5932 134.899 27.9072 131.94C29.7689 127.776 30.4259 127.557 30.4259 131.173ZM35.3537 122.954C33.9301 125.365 37.2154 128.105 39.1865 126.132C40.8291 124.488 39.8435 121.42 37.6534 121.42C36.8868 121.42 35.9013 122.077 35.3537 122.954ZM250.755 121.858C249.002 123.94 249.988 125.584 252.945 125.584C255.025 125.584 255.573 121.858 253.602 120.652C252.945 120.324 251.631 120.872 250.755 121.858ZM134.677 111.775C137.086 116.817 137.086 117.365 135.005 120.652C131.063 126.68 122.85 123.721 124.931 117.145C125.478 115.502 125.259 114.186 124.493 114.186C122.631 114.186 117.156 121.2 117.156 123.502C117.156 124.488 118.47 126.899 120.112 128.981C123.945 133.913 133.472 134.242 138.4 129.639L141.685 126.57L140.7 132.379C139.605 138.735 143.875 163.612 145.737 161.749C148.037 159.338 151.212 137.749 150.008 132.379L148.803 127.118L152.417 129.968C160.411 136.214 173.004 132.269 173.004 123.502C173.004 119.447 169.062 114.186 165.996 114.186C164.463 114.186 164.353 114.844 165.667 117.255C167.858 121.42 164.463 124.926 159.316 123.721C154.826 122.625 153.293 117.365 155.812 111.995C158.659 106.296 161.506 104.871 167.858 106.515C183.627 110.46 180.67 135.666 160.521 169.421C155.483 177.859 151.322 185.969 151.322 187.284C151.322 188.599 150.665 190.133 149.898 190.572C149.132 191.01 148.475 192.216 148.475 193.092C148.475 195.942 159.316 179.722 166.434 166.352C171.252 157.146 176.18 150.461 183.955 142.571C196.548 129.639 202.571 127.009 210.784 131.064C220.202 135.666 219.873 147.174 210.237 150.571C206.842 151.776 205.857 151.557 203.557 148.708C200.381 144.763 201.257 141.913 206.295 140.16L210.127 138.845L206.076 137.201C200.491 135.009 198.41 135.228 195.125 138.406C190.964 142.571 191.402 149.475 196.11 154.407C198.191 156.598 200.819 158.461 201.805 158.461C205.419 158.461 203.666 160.763 198.629 162.516C193.263 164.489 175.414 180.161 177.713 180.928C180.013 181.695 202.79 172.708 205.857 169.749C208.813 167.01 208.813 167.01 208.156 171.065C207.061 178.846 213.741 186.955 221.407 186.955C225.02 186.955 229.182 181.476 229.072 176.654V172.051L226.444 175.229C223.268 179.065 221.626 179.174 218.669 176.215C215.603 173.147 215.822 170.517 219.545 167.119C225.458 161.64 233.671 163.941 236.3 172.051C241.337 187.503 220.311 196.928 179.465 197.695C168.186 197.915 156.907 198.243 154.607 198.462L150.336 198.791L155.264 199.997C158.002 200.654 169.5 201.202 180.889 201.202C210.675 201.312 228.963 206.353 234.985 215.997C238.161 221.148 237.723 227.285 233.89 231.559C230.715 235.066 222.83 234.956 219.216 231.34C215.712 227.833 215.712 226.847 219.107 222.573L221.845 219.175L225.568 222.682L229.291 226.189V222.353C229.291 218.627 223.816 211.504 220.969 211.504C213.851 211.504 207.061 220.052 208.594 227.395L209.361 231.45L203.995 227.943C198.958 224.545 178.151 216.655 177.166 217.751C175.961 218.956 193.044 233.422 199.067 236.162C204.542 238.683 205.199 239.34 202.681 239.779C200.929 239.998 197.862 242.19 195.891 244.601C187.569 254.573 195.782 267.286 206.842 261.368C209.689 259.834 209.689 259.724 205.309 257.861C200.053 255.669 199.834 254.464 203.557 249.971C205.857 247.121 206.842 246.792 210.237 247.998C219.654 251.286 220.092 262.354 211.003 267.724C204.104 271.779 197.424 269.259 186.145 258.628C176.18 249.203 173.99 246.354 160.959 223.778C156.031 215.23 151.76 208.874 151.431 209.75C150.774 211.613 156.14 222.353 164.025 235.285C174.866 253.149 180.56 276.82 176.18 285.478C171.909 293.807 162.054 295.67 156.907 289.204C153.184 284.492 153.184 279.889 156.797 276.601C159.206 274.409 160.192 274.3 163.368 275.725C165.777 276.82 166.762 278.136 166.215 279.56C163.368 286.684 163.368 286.355 166.543 284.602C171.69 281.862 174.099 276.82 172.566 272.656C169.829 265.423 158.659 263.45 152.636 269.039L149.351 272.218L150.227 266.738C151.103 261.258 147.708 239.121 145.628 236.929C143.766 235.066 139.495 259.834 140.59 266.19L141.576 271.889L137.414 268.82C128.106 261.916 114.527 268.82 118.47 278.464C119.455 280.766 121.755 283.396 123.617 284.163C126.902 285.697 126.902 285.588 125.478 282.3C124.274 279.67 124.383 278.355 125.697 276.601C129.639 271.889 136.21 275.944 135.991 282.958C135.662 292.821 125.588 296.437 117.594 289.533C113.87 286.355 113.651 285.369 113.651 275.615C113.761 262.354 117.594 250.847 127.668 233.751C135.443 220.49 142.89 205.695 142.123 204.928C141.357 204.161 132.268 218.737 124.821 232.326C112.228 254.902 91.969 272.437 82.1133 268.82C77.1855 267.067 73.1337 262.135 73.1337 257.971C73.1337 253.258 78.7186 246.902 82.7704 246.902C89.4503 246.902 91.3119 256.217 85.07 257.752C81.5658 258.628 81.4563 258.847 83.975 260.601C87.8077 263.45 92.626 262.902 95.9112 259.395C101.387 253.477 98.4299 244.053 89.8883 240.436L85.6176 238.573L91.8595 235.724C97.5539 233.093 115.294 218.627 114.089 217.422C112.447 215.778 89.0123 225.093 84.413 229.258C82.3323 231.121 82.1133 230.902 82.2228 226.299C82.4418 219.504 79.4852 214.463 74.3383 212.6C72.0387 211.723 69.52 211.065 68.863 211.065C66.2348 211.065 61.964 217.641 61.964 221.586V225.86L64.8112 222.792C66.4538 221.038 68.2059 219.614 68.7534 219.614C70.9436 219.614 73.2432 223.121 73.2432 226.518C73.2432 234.189 61.4165 236.71 56.2696 230.134C50.0277 222.134 53.8605 213.696 66.6728 207.668C76.419 203.065 88.3552 201.202 109.49 200.983C132.049 200.764 139.057 199.23 124.383 197.695C118.47 197.147 109.928 196.928 105.219 197.367C100.511 197.805 94.1591 197.586 90.9834 196.928C87.8077 196.271 82.8799 195.394 79.8137 194.846C72.0387 193.64 61.1974 188.709 57.3647 184.544C52.7654 179.613 52.7654 170.517 57.3647 166.79C61.4165 163.503 65.7968 163.393 70.0675 166.352C73.9003 169.092 73.7908 175.119 69.8485 177.53C67.7679 178.846 66.7823 178.407 64.5922 175.558L61.8545 171.941V176.544C61.8545 181.476 65.9063 186.846 69.739 186.846C77.295 186.846 84.413 177.75 82.5514 170.297L81.5658 166.462L85.8366 170.078C89.5598 173.256 109.709 181.147 113.651 181.037C116.061 180.928 98.3204 165.475 92.7355 162.845C86.7126 159.996 86.1651 158.79 90.2169 157.475C94.0496 156.27 98.7584 149.913 98.7584 146.078C98.7584 141.584 93.5021 135.338 89.6693 135.338C87.9172 135.338 85.289 136.214 83.8654 137.31C81.3468 139.173 81.4563 139.283 84.9605 140.16C87.6982 140.817 88.6838 142.023 88.6838 144.324C88.6838 151.557 80.7992 153.42 75.9809 147.283C70.7246 140.598 72.8052 133.584 81.1278 130.187C85.8366 128.214 86.6031 128.324 93.7211 131.831C101.934 135.886 116.28 150.461 120.879 159.448C128.873 175.229 142.671 196.49 142.671 193.202C142.671 191.449 132.377 171.832 126.245 162.078C117.594 148.16 113.651 135.776 113.542 122.735C113.542 112.981 113.761 111.995 117.594 108.707C120.66 106.077 122.96 105.31 126.792 105.638C131.282 106.296 132.377 107.173 134.677 111.775ZM50.3562 106.405C50.3562 107.611 51.3418 108.597 52.4369 108.597C53.6414 108.597 54.5175 107.611 54.5175 106.405C54.5175 105.2 53.5319 104.214 52.4369 104.214C51.3418 104.214 50.3562 105.2 50.3562 106.405ZM235.642 104.323C234.219 106.734 237.504 109.474 239.475 107.501C241.118 105.857 240.132 102.789 237.942 102.789C237.176 102.789 236.19 103.556 235.642 104.323ZM118.908 99.1724C109.162 103.446 105.767 118.461 110.695 135.009C111.899 138.845 112.775 142.132 112.775 142.352C112.775 142.461 109.709 139.502 105.876 135.666C90.2169 119.885 76.638 118.68 66.3443 132.269C63.1686 136.543 62.402 138.845 62.5115 145.091C62.621 151.338 62.183 152.763 60.3214 152.763C53.751 152.763 45.9759 164.27 45.9759 173.914C45.9759 184.983 53.97 192.106 72.1482 197.038L80.5802 199.339L70.7246 201.75C52.8749 206.243 45.0999 214.353 46.3045 227.175C47.071 235.395 50.6848 240.874 57.3647 244.272C61.8545 246.573 62.183 247.231 62.402 254.025C62.621 265.313 72.1482 275.396 82.7704 275.396C89.3408 275.396 100.62 268.93 107.519 261.258C113.323 254.793 113.761 255.121 110.695 263.998C109.49 267.286 108.614 273.971 108.614 278.793C108.614 293.478 115.732 301.04 129.311 301.04C135.443 301.04 144.204 297.533 144.204 295.122C144.204 294.574 146.504 295.67 149.351 297.533C158.878 303.999 174.099 301.369 179.684 292.273C183.408 286.245 183.408 273.314 179.903 262.902L177.275 255.45L185.488 263.341C198.191 275.505 208.156 278.355 217.683 272.546C224.254 268.492 227.977 261.697 227.977 253.806C227.977 247.56 228.306 247.012 233.343 244.491C239.256 241.422 245.06 231.888 245.06 225.093C245.06 219.394 241.118 211.504 236.738 208.654C234.766 207.339 228.087 204.6 221.845 202.627L210.565 198.901L220.202 196.49C236.081 192.544 244.951 184.216 244.951 173.147C244.951 166.352 239.147 156.818 233.233 153.749C228.306 151.228 227.867 150.571 227.867 144.653C227.867 141.146 226.882 136.434 225.677 134.132C222.721 128.324 214.07 122.735 207.937 122.735C201.476 122.735 190.197 129.31 183.298 136.872C177.385 143.447 177.275 143.338 180.232 133.584C182.86 124.707 182.969 114.077 180.341 107.83C176.18 97.8573 159.316 93.8024 149.679 100.487L144.751 103.885L140.7 100.487C136.1 96.5422 126.354 95.9942 118.908 99.1724ZM242.432 109.584C241.118 110.68 240.789 111.227 241.665 110.789C242.541 110.351 243.746 110.57 244.294 111.447C245.717 113.639 241.008 114.844 238.599 112.871C237.285 111.775 236.519 111.666 236.519 112.652C236.519 113.529 237.723 115.063 239.147 116.05C240.57 117.036 242.103 119.008 242.651 120.433C243.199 121.858 244.403 122.954 245.279 122.954C246.593 122.954 246.703 122.625 245.279 121.2C242.87 118.789 243.198 115.83 245.717 115.83C246.922 115.83 247.798 116.488 247.798 117.255C247.798 118.022 248.455 118.68 249.221 118.68C251.631 118.68 250.864 114.625 248.126 113.2C246.812 112.433 246.046 111.337 246.593 110.899C247.469 110.022 259.187 124.378 259.187 126.351C259.187 126.899 258.091 127.337 256.668 127.447C255.135 127.557 254.916 127.885 256.011 128.324C258.53 129.31 258.201 133.036 255.573 133.036C254.368 133.036 252.945 131.94 252.507 130.625C251.631 128.433 251.521 128.433 250.755 130.735C249.988 132.817 249.221 132.379 246.265 127.776C244.294 124.707 239.256 118.57 235.204 114.077C229.401 107.611 228.305 105.857 230.386 105.748C232.795 105.638 232.795 105.529 230.496 104.981C229.182 104.652 227.977 103.446 227.977 102.351C227.977 99.5012 230.934 98.0765 232.357 100.378C233.014 101.474 234 101.912 234.438 101.364C235.752 100.049 233.781 97.4189 231.481 97.4189C230.386 97.4189 229.401 96.323 229.401 95.0079C229.401 93.364 231.81 95.0079 237.176 100.268C244.184 106.953 244.622 107.721 242.432 109.584ZM218.012 90.6243C218.012 91.7202 218.559 93.0353 219.326 93.4736C220.859 94.46 224.035 90.8434 222.83 89.5283C220.969 87.7749 218.012 88.542 218.012 90.6243ZM208.594 90.7338C209.251 92.5969 208.923 92.5969 206.295 91.2818C201.805 88.8708 201.586 88.542 204.871 88.542C206.404 88.542 208.047 89.5283 208.594 90.7338ZM68.3154 89.4187C66.3443 91.3914 67.3299 94.46 69.8485 93.912C71.1626 93.6928 72.3672 92.4873 72.3672 91.3914C72.3672 89.1996 69.8485 87.9941 68.3154 89.4187ZM225.458 93.6928C223.159 95.5559 223.159 95.6655 225.349 94.7887C226.991 94.2408 227.867 94.6791 227.867 96.1038C227.867 99.282 223.925 100.268 222.283 97.4189C220.969 95.1175 220.859 95.2271 220.859 97.6381C220.859 99.0628 222.064 100.597 223.706 101.035C225.239 101.474 226.553 102.679 226.553 103.775C226.553 104.981 223.378 103.337 218.778 99.7204C214.508 96.4326 211.66 93.4736 212.427 93.1449C213.194 92.8161 212.755 91.8298 211.332 90.7338C209.251 89.1996 209.142 88.542 210.565 87.0077C212.098 85.4734 212.646 85.4734 213.632 87.1173C214.508 88.4324 215.055 88.542 215.822 87.4461C216.369 86.5694 216.369 85.1447 215.822 84.2679C215.274 83.3912 217.793 84.7063 221.516 87.2269C227.648 91.3914 227.867 91.8298 225.458 93.6928ZM213.741 82.1857C213.741 83.8296 211.003 83.8296 210.456 82.1857C209.908 80.761 210.346 80.4322 211.77 80.8706C212.755 81.309 213.741 81.9665 213.741 82.1857ZM162.492 81.5281C174.318 83.5008 183.846 87.6653 189.321 93.364C194.358 98.5149 196.877 107.173 193.482 107.173C189.978 107.173 186.693 112.104 185.926 118.68C184.831 127.995 186.583 129.748 193.044 125.803C199.724 121.639 202.9 116.817 201.805 112.323C200.819 108.378 202.79 107.173 209.799 107.173C225.02 107.173 247.469 131.831 256.23 158.133C259.734 168.763 260.063 182.572 256.887 189.257C254.149 195.065 251.85 196.051 246.922 193.531C244.403 192.216 241.884 191.997 239.147 192.764C234.328 194.188 226.444 198.682 226.444 200.106C226.444 201.86 238.49 207.011 242.432 207.011C244.513 207.011 247.25 205.915 248.455 204.709C250.645 202.517 251.083 202.627 254.368 205.915C266.633 218.299 256.23 254.793 233.89 277.807C225.02 286.903 217.245 291.287 209.908 291.287C203.009 291.287 201.257 290.081 201.367 285.149C201.367 280.656 197.972 276.273 192.168 273.314C186.364 270.245 185.379 270.793 185.379 276.93C185.379 284.711 187.569 289.643 191.84 291.615C194.796 292.93 195.344 294.026 194.687 296.766C193.154 302.684 189.868 306.52 182.641 310.465C158.111 323.835 108.943 319.123 98.7584 302.355C95.4732 296.876 95.0352 291.396 98.1014 291.396C101.496 291.396 104.781 284.821 104.891 277.916C104.891 274.3 104.562 271.012 104.124 270.574C102.81 269.259 93.2831 275.615 90.7644 279.451C89.4503 281.423 88.9028 284.273 89.4503 286.245C90.4359 290.191 88.4648 291.396 80.9088 291.396C67.3299 291.396 50.4657 274.957 39.077 250.738C29.4403 230.244 28.6738 213.696 36.8868 205.915C40.0625 202.846 40.5006 202.846 43.6763 204.928C47.3995 207.449 53.6414 206.353 59.8834 202.189C64.4827 199.23 64.1541 198.243 57.6932 194.627C51.1228 190.901 45.7569 190.681 42.5812 193.86C40.3911 196.051 39.953 195.942 36.6678 192.654C17.8326 173.476 52.7654 107.173 81.5658 107.173C88.0267 107.173 90.6549 108.926 89.5598 112.433C88.4648 115.83 92.9545 121.967 98.7584 125.036C104.891 128.214 105.767 127.666 105.767 121.42C105.767 114.077 102.372 107.173 98.6489 107.173C94.9257 107.173 94.9257 102.57 98.6489 96.5422C106.205 84.0487 135.772 77.1445 162.492 81.5281ZM103.467 81.1994C103.905 81.8569 102.92 82.8432 101.387 83.2816C98.9774 83.9392 98.7584 83.72 100.182 81.9665C102.153 79.6651 102.482 79.5555 103.467 81.1994ZM177.932 81.4186C204.104 88.7612 231.591 108.378 245.827 129.968C247.798 132.927 250.097 135.118 251.083 134.79C251.959 134.461 253.383 135.557 254.149 137.31C254.916 139.064 256.558 140.708 257.653 141.036C259.406 141.584 259.406 141.256 257.982 139.721C255.573 137.091 255.792 134.132 258.31 134.132C259.515 134.132 260.391 135.228 260.391 136.543C260.391 138.516 260.72 138.625 262.143 137.201C263.567 135.776 263.457 135.009 261.377 133.475C259.844 132.269 259.406 131.173 260.282 130.625C261.048 130.077 263.676 133.475 266.086 138.297C271.013 148.05 271.123 148.598 268.385 147.502C266.852 146.954 266.524 147.502 267.181 149.694C268.166 153.42 264.114 153.749 262.034 150.133C260.72 147.831 260.61 147.831 260.501 150.023C260.501 151.338 261.048 152.872 261.924 153.311C262.691 153.749 263.348 155.612 263.238 157.366C263.129 159.448 262.91 159.777 262.362 158.352C259.515 150.571 253.273 138.077 252.616 138.735C252.178 139.173 253.164 142.242 254.806 145.53C256.449 148.817 257.653 151.776 257.325 151.996C257.106 152.215 254.368 147.722 251.412 141.913C245.279 129.968 229.948 112.433 222.283 108.488C214.179 104.433 208.813 103.666 203.228 106.077C197.534 108.488 196.548 108.049 196.548 102.789C196.548 92.9257 184.065 83.72 164.572 79.3363C161.725 78.6788 161.725 78.6788 164.572 78.5692C166.324 78.6788 172.238 79.8843 177.932 81.4186ZM198.081 79.2267C198.081 80.3226 198.629 81.6377 199.396 82.0761C200.929 83.0624 204.104 79.4459 202.9 78.1308C201.148 76.3773 198.081 77.0349 198.081 79.2267ZM153.731 78.1308C149.241 78.4596 141.904 78.4596 137.414 78.1308C132.925 77.802 136.648 77.5828 145.628 77.5828C154.607 77.5828 158.221 77.9116 153.731 78.1308ZM88.2457 78.1308C86.4936 79.8843 87.2602 82.8432 89.4503 82.8432C90.6549 82.8432 91.531 81.5281 91.531 79.9939C91.531 77.1445 89.9978 76.2677 88.2457 78.1308ZM167.529 75.7198C167.967 76.4869 167.419 77.1445 166.105 77.1445C164.791 77.1445 164.244 76.4869 164.682 75.7198C165.12 74.9526 165.777 74.2951 166.105 74.2951C166.434 74.2951 167.091 74.9526 167.529 75.7198ZM124.931 75.7198C125.369 76.4869 124.821 77.1445 123.617 77.1445C122.412 77.1445 121.426 76.4869 121.426 75.7198C121.426 74.9526 121.974 74.2951 122.741 74.2951C123.507 74.2951 124.383 74.9526 124.931 75.7198ZM201.914 75.8294C205.637 77.4733 207.937 79.1171 206.952 79.5555C205.966 79.8843 205.199 80.761 205.199 81.5281C205.199 82.2953 205.966 82.6241 206.952 82.5145C207.937 82.2953 208.704 83.172 208.704 84.2679C208.704 85.4734 207.39 86.4598 205.857 86.4598C204.323 86.4598 202.571 87.0077 202.133 87.6653C201.695 88.3228 198.739 87.5557 195.782 85.9118C192.716 84.2679 191.183 82.9528 192.387 82.8432C194.03 82.7337 194.03 82.4049 192.059 81.309C188.445 79.2267 188.773 75.1718 192.497 76.1581C194.687 76.7061 195.234 76.3773 194.687 74.9526C193.701 72.3224 193.701 72.3224 201.914 75.8294ZM100.73 72.8704C100.292 73.6375 99.1965 74.2951 98.5394 74.2951C97.7729 74.2951 97.2253 73.6375 97.2253 72.8704C97.2253 72.1033 98.2109 71.4457 99.4155 71.4457C100.62 71.4457 101.277 72.1033 100.73 72.8704ZM192.387 72.2128C192.387 73.8567 189.649 73.8567 189.102 72.2128C188.554 70.7882 188.992 70.4594 190.416 70.8977C191.511 71.3361 192.387 71.9937 192.387 72.2128ZM108.614 72.1033C108.614 73.5279 109.49 74.2951 111.133 73.9663C114.089 73.4184 113.98 70.8977 110.804 70.2402C109.49 70.021 108.614 70.7882 108.614 72.1033ZM177.713 69.5826C175.961 71.3361 176.837 74.2951 178.918 74.2951C180.122 74.2951 180.998 73.4184 180.998 72.2128C180.998 69.8018 179.027 68.2675 177.713 69.5826ZM115.732 69.4731C115.732 71.3361 116.17 71.4457 117.703 70.1306C119.127 68.9251 120.003 68.9251 120.66 70.021C121.974 72.1033 118.579 75.939 116.608 74.7335C115.623 74.1855 115.732 74.7335 116.827 76.0486C118.36 78.0212 118.032 78.4596 114.746 79.2267C112.556 79.7747 109.709 80.5418 108.286 80.8706C106.533 81.4186 106.095 80.9802 106.643 79.4459C107.3 77.802 106.752 77.4732 104.453 78.1308C102.372 78.6788 101.496 78.2404 101.496 76.5965C101.496 75.2814 102.482 74.2951 103.796 74.2951C105.657 74.2951 105.767 73.8567 104.343 72.2128C102.92 70.4594 103.467 69.9114 107.41 68.8155C114.308 66.7333 115.732 66.8429 115.732 69.4731ZM184.503 71.6649C183.846 73.6375 184.284 74.0759 185.926 73.4184C187.35 72.8704 188.116 73.3088 188.116 74.7335C188.116 77.9116 185.488 79.1171 183.079 77.0349C181.546 75.7198 180.998 75.7198 180.998 76.9253C180.998 77.802 181.984 78.8979 183.079 79.2267C184.284 79.5555 186.255 80.213 187.569 80.6514C188.883 81.0898 189.649 81.6377 189.321 81.9665C188.773 82.5145 172.347 78.4596 171.033 77.3637C170.705 77.0349 171.252 76.2677 172.457 75.5006C174.099 74.4047 173.88 74.1855 171.362 74.1855C168.077 74.1855 166.981 70.7882 169.61 69.1443C170.376 68.7059 171.033 69.0347 171.033 69.9114C171.033 70.7882 171.69 71.1169 172.347 70.6786C173.114 70.2402 173.333 68.9251 173.004 67.9388C172.457 66.4045 173.552 66.2949 178.808 67.61C184.174 68.8155 185.16 69.4731 184.503 71.6649ZM171.033 66.2949C171.033 66.6237 170.048 67.1716 168.953 67.7196C167.748 68.158 166.872 67.9388 166.872 67.1716C166.872 66.4045 167.858 65.7469 168.953 65.7469C170.048 65.7469 171.033 65.9661 171.033 66.2949ZM154.06 67.7196C154.06 68.8155 154.607 70.1306 155.374 70.569C156.907 71.5553 160.083 67.9388 158.878 66.6237C157.016 64.9798 154.06 65.6373 154.06 67.7196ZM131.501 67.9388C132.158 71.0073 134.677 71.2265 135.224 68.2675C135.553 66.7333 134.786 65.7469 133.363 65.7469C132.049 65.7469 131.282 66.6237 131.501 67.9388ZM122.741 67.1716C122.741 67.9388 122.193 68.5963 121.426 68.5963C120.66 68.5963 119.674 67.9388 119.236 67.1716C118.798 66.4045 119.346 65.7469 120.55 65.7469C121.755 65.7469 122.741 66.4045 122.741 67.1716ZM158.659 64.3222C163.258 64.3222 164.134 64.651 162.82 66.0757C160.411 68.4867 160.63 70.7882 163.039 68.8155C164.572 67.5004 165.229 67.7196 165.777 69.2539C166.762 71.8841 164.572 73.4184 161.506 72.3224C159.973 71.6649 159.535 72.1033 160.082 73.6375C160.74 75.391 159.644 75.8294 154.388 75.8294C148.475 75.8294 148.037 75.6102 149.789 73.4184C150.884 72.1033 151.103 71.4457 150.227 71.8841C147.708 73.4184 144.861 70.6786 145.956 67.8292C146.832 65.6373 147.161 65.5278 148.256 67.2812C148.913 68.3771 150.008 68.9251 150.555 68.3771C151.103 67.8292 150.665 66.2949 149.57 64.9798C147.818 62.788 147.927 62.6784 150.227 63.5551C151.65 63.8839 155.483 64.3222 158.659 64.3222ZM146.175 64.3222C145.737 65.0894 144.642 65.7469 143.985 65.7469C143.218 65.7469 142.671 65.0894 142.671 64.3222C142.671 63.5551 143.656 62.8976 144.861 62.8976C146.066 62.8976 146.723 63.5551 146.175 64.3222ZM139.057 65.8565C138.4 67.9388 138.619 68.5963 139.714 67.9388C142.342 66.2949 144.532 68.4867 142.561 70.7882C141.685 71.8841 140.371 72.432 139.605 71.9937C138.948 71.5553 138.291 71.9937 138.291 72.8704C138.291 73.9663 139.605 74.1855 141.795 73.6375C143.656 73.1992 145.628 73.4184 146.175 74.1855C146.723 75.0622 143.547 75.6102 137.633 75.6102C131.282 75.6102 128.544 75.0622 129.201 74.0759C129.749 73.1992 129.311 72.6512 128.216 72.8704C124.274 73.4184 122.741 72.7608 122.741 70.4594C122.741 69.0347 123.507 68.4867 124.821 68.9251C127.559 69.9114 128.982 67.61 126.683 66.0757C125.588 65.3086 127.559 64.5414 131.939 64.1031C135.881 63.6647 139.276 63.1167 139.495 63.0071C139.824 63.0071 139.605 64.2127 139.057 65.8565ZM126.464 62.8976C105.876 66.1853 84.194 74.6239 67.6584 85.9118C59.6643 91.3914 38.9675 111.227 38.9675 113.419C38.9675 114.296 42.2527 111.447 46.195 107.173C51.8893 101.035 53.6414 99.83 54.7365 101.474C55.8316 103.227 56.2696 103.227 57.3647 101.364C58.4598 99.6108 59.0073 99.6108 60.5404 101.145C62.0735 102.679 61.8545 103.337 59.6643 105.09C57.2552 106.953 57.1457 107.173 59.3358 107.173C60.6499 107.173 62.0735 106.296 62.5115 105.2C62.9496 104.104 64.4827 102.899 66.0158 102.46C67.5489 102.022 68.7534 100.597 68.6439 99.0628C68.5344 97.5285 68.2059 97.1998 67.7679 98.1861C66.7823 100.597 61.6355 100.487 61.6355 97.9669C61.6355 96.871 62.402 95.6655 63.3876 95.3367C64.7017 94.8983 64.7017 94.5695 63.3876 93.6928C62.402 93.0353 61.1974 93.6928 60.6499 95.2271C59.9929 96.6518 58.5693 97.9669 57.4742 98.1861C54.5175 98.734 66.5633 88.1036 73.2432 84.3775C76.3094 82.6241 78.7186 81.8569 78.7186 82.6241C78.7186 83.3912 77.4045 84.2679 75.8714 84.7063C73.0242 85.4734 71.8197 88.542 74.4478 88.542C75.2144 88.542 75.8714 87.8845 75.8714 87.1173C75.8714 86.3502 76.5285 85.6926 77.295 85.6926C78.0616 85.6926 78.7186 87.0077 78.7186 88.542C78.7186 90.2955 77.733 91.3914 76.3094 91.3914C74.4478 91.3914 74.3383 91.8298 75.5429 93.0353C76.857 94.3504 77.8426 94.2408 79.7042 92.4873C81.1278 91.2818 83.3179 89.9667 84.7415 89.4187C86.0556 88.9804 87.2602 87.7749 87.2602 86.7885C87.2602 85.4734 86.8221 85.4734 85.6176 86.679C83.5369 88.7612 80.1422 87.4461 80.1422 84.5967C80.1422 83.2816 80.9088 82.7337 82.4419 83.2816C83.8654 83.8296 84.413 83.5008 84.0845 82.4049C83.7559 81.4186 82.6609 80.761 81.7848 80.9802C78.8281 81.6377 80.1422 79.9939 84.0845 78.0212C89.6693 75.1718 94.4876 73.8567 94.2686 75.1718C93.7211 78.0212 94.5972 79.0075 95.8017 77.0349C96.7873 75.391 97.5538 75.2814 98.7584 76.5965C100.839 78.6788 99.306 81.309 96.1303 81.4186C94.0496 81.4186 94.0496 81.6377 95.8017 82.7337C98.4299 84.3775 98.4299 84.3775 87.9172 89.6379C74.7763 96.2134 51.7798 114.954 51.7798 119.008C51.7798 119.776 55.8316 116.488 60.7594 111.775C71.1626 101.693 85.8366 91.8298 97.9919 86.679C108.614 82.1857 123.726 78.1308 126.902 79.0075C128.654 79.4459 128.544 79.6651 126.354 79.7747C119.784 80.1035 105.438 86.2406 100.949 90.5147C97.8824 93.4736 95.5827 97.4189 94.4877 101.583L92.7355 108.049L86.7126 105.857C81.1278 103.885 80.1422 103.885 74.3383 106.077C65.0302 109.693 57.1457 116.05 49.5897 126.022C36.6678 143.338 29.0023 162.188 29.0023 176.873C29.0023 187.175 32.5065 195.284 37.5439 196.599C41.1576 197.586 41.1576 200.764 37.5439 201.641C28.7833 203.942 26.3741 222.573 32.397 240.436C34.2587 245.916 35.5728 250.628 35.3537 250.847C34.5872 251.614 28.8928 235.176 26.5932 225.532C23.1984 211.285 23.6365 183.448 27.4692 169.092C30.9734 155.941 38.5294 139.283 45.2094 129.968C51.8893 120.543 52.7654 118.789 49.1517 121.967C47.3995 123.502 44.6619 127.009 43.0192 129.639C40.2816 134.023 39.8435 134.351 38.858 131.831C37.8724 129.42 37.7629 129.42 37.6534 131.612C37.6534 133.036 36.6678 134.132 35.4632 134.132C32.6161 134.132 31.083 131.173 33.2731 129.858C34.5872 128.981 34.4777 128.653 32.7256 128.214C30.6449 127.776 30.8639 126.899 34.1492 122.077C36.2298 119.008 38.2009 117.255 38.5294 118.132C39.296 120.543 41.7052 120.324 41.7052 117.693C41.7052 116.488 42.3622 115.502 43.1287 115.502C45.5379 115.502 46.414 119.666 44.4428 121.967C43.1287 123.502 43.1288 124.05 44.3333 124.05C45.2094 124.05 46.414 122.954 46.852 121.529C47.29 120.104 48.9326 118.241 50.3562 117.145C51.7798 116.159 52.9844 114.625 52.9844 113.748C52.9844 112.762 52.2179 112.871 50.9038 113.967C48.4946 115.94 43.7858 114.734 45.2094 112.543C45.7569 111.775 46.7425 111.447 47.3995 111.885C48.1661 112.323 48.7136 111.995 48.7136 111.227C48.7136 108.926 44.7714 109.474 43.3478 111.995C42.6907 113.2 40.9386 114.406 39.515 114.625C32.9446 115.611 17.6136 144.653 12.5762 166.133C7.97692 185.531 6.99136 198.024 8.96249 213.257C12.2477 236.929 20.4608 259.286 32.2875 276.93C37.3249 284.382 58.6788 306.849 60.7594 306.849C61.526 306.849 60.9784 305.534 59.5548 303.999C57.2552 301.479 57.2552 301.15 59.3358 301.15C61.4165 301.15 62.402 303.67 61.8545 307.287C61.526 309.479 83.3179 322.52 94.4877 326.794C114.089 334.356 122.96 336 145.518 336C168.186 336 177.713 334.247 196.439 326.794C229.072 313.643 258.201 284.711 271.889 251.943C284.264 222.134 285.359 185.311 274.737 154.187C260.063 111.118 222.173 76.4869 178.151 65.7469C164.244 62.3496 138.729 60.9249 126.464 62.8976Z" fill="#F8F8F8"/>
</g>
<defs>
<clipPath id="clip0_353_3569">
<rect width="211" height="274" rx="4" fill="white"/>
</clipPath>
</defs>
</svg>
