<svg width="345" height="124" viewBox="0 0 345 124" fill="none" xmlns="http://www.w3.org/2000/svg">
<path fill-rule="evenodd" clip-rule="evenodd" d="M177.552 476.544C178.32 477.888 177.361 479.04 175.059 479.04C172.756 479.04 171.797 477.888 172.565 476.544C173.332 475.2 174.483 474.048 175.059 474.048C175.634 474.048 176.785 475.2 177.552 476.544ZM190.597 468.097C188.295 470.401 191.173 474.048 195.201 474.048C197.12 474.048 198.846 472.321 198.846 470.209C198.846 466.561 193.475 465.025 190.597 468.097ZM150.695 468.097C148.393 470.401 151.271 474.048 155.299 474.048C157.218 474.048 158.944 472.321 158.944 470.209C158.944 466.561 153.765 465.025 150.695 468.097ZM230.308 460.609C227.238 463.681 228.581 466.369 233.569 466.369C236.255 466.369 238.557 464.641 238.557 462.529C238.557 458.882 233.377 457.538 230.308 460.609ZM178.128 460.418C177.361 461.185 175.059 461.377 173.332 460.609C171.414 459.842 171.989 459.266 174.867 459.074C177.552 459.074 179.087 459.65 178.128 460.418ZM110.601 461.185C108.875 463.873 115.205 469.633 117.507 467.329C118.466 466.369 119.234 464.257 119.234 462.337C119.234 458.69 112.711 457.73 110.601 461.185ZM201.916 460.801C200.573 464.449 200.957 464.641 204.026 462.145C207.095 459.65 208.822 460.418 214.193 466.561C218.606 471.553 219.565 474.048 217.071 474.048C215.153 474.048 213.618 473.089 213.618 472.129C213.618 471.169 211.316 470.017 208.438 469.825C204.218 469.441 203.834 470.017 206.328 473.089C208.822 476.16 207.863 476.736 200.573 476.736C195.777 476.736 189.83 477.504 187.528 478.272C184.075 479.616 183.691 478.848 185.226 473.856C186.952 468.673 186.569 468.289 183.308 471.169C180.622 473.281 178.895 473.473 177.744 471.745C175.634 468.289 178.32 464.065 182.732 464.065C184.842 464.065 185.61 462.529 184.842 460.225C183.691 457.346 185.61 456.386 193.475 456.386C202.108 456.578 203.45 457.154 201.916 460.801ZM165.275 460.801C164.507 462.529 165.658 464.065 167.577 464.065C171.989 464.065 174.675 468.289 172.565 471.745C171.414 473.473 169.687 473.281 167.001 471.169C163.548 468.289 163.356 468.673 165.083 473.856C166.81 479.232 166.426 479.616 161.054 478.272C157.793 477.312 152.038 476.736 148.009 476.736C142.062 476.736 141.295 476.16 143.789 473.089C146.283 470.209 145.899 469.633 141.487 469.825C138.609 470.017 136.691 471.553 137.458 473.089C138.226 474.816 136.883 475.584 134.005 474.816C129.977 473.664 129.977 473.089 135.348 467.329C139.185 463.297 142.638 461.569 145.324 462.529C148.777 463.873 148.969 463.489 146.283 460.225C143.405 456.77 144.365 456.386 154.724 456.962C163.356 457.346 166.234 458.306 165.275 460.801ZM140.336 456.578C141.103 457.922 140.144 459.074 138.226 459.074C136.116 459.074 133.813 457.922 133.046 456.578C132.279 455.234 133.238 454.082 135.156 454.082C137.075 454.082 139.377 455.042 140.336 456.578ZM199.422 453.314C196.352 453.89 190.789 453.89 186.952 453.314C183.116 452.738 185.61 452.162 192.516 452.162C199.422 452.162 202.491 452.738 199.422 453.314ZM163.356 453.314C159.52 453.89 153.381 453.89 149.736 453.314C145.899 452.738 148.969 452.354 156.642 452.354C163.932 452.162 167.001 452.738 163.356 453.314ZM127.675 454.274C129.209 455.618 128.634 456.578 126.524 456.578C124.605 456.578 125.564 457.73 128.634 459.074C135.156 461.761 134.581 468.097 127.866 466.945C124.605 466.369 123.838 467.329 124.989 470.209C126.14 473.281 125.373 474.048 122.303 473.089C120.001 472.321 114.822 470.977 110.985 470.209C105.613 468.865 104.462 467.521 105.613 463.873C106.764 460.226 106.189 459.458 102.928 460.801C99.8582 461.953 99.0909 461.185 99.6664 457.73C100.242 454.466 102.352 453.122 106.189 453.698C109.834 454.082 111.177 453.314 110.217 451.586C108.299 447.938 124.03 450.626 127.675 454.274ZM241.434 449.858C239.132 452.546 239.9 453.122 245.079 451.97C250.451 451.01 251.41 451.586 250.642 455.426C250.067 458.114 248.34 459.842 246.614 459.458C245.079 459.074 243.736 460.034 243.736 461.377C243.736 462.721 245.271 463.873 247.381 463.873C249.3 463.873 251.602 462.721 252.561 461.377C254.479 458.306 258.7 458.114 258.7 460.993C258.7 462.913 234.912 471.361 229.157 471.361C227.622 471.361 226.279 469.441 226.279 467.329C226.279 464.065 225.512 463.873 222.634 466.369C219.565 468.865 218.606 468.673 217.263 464.833C216.304 462.337 213.81 458.882 211.699 457.154C208.246 454.466 208.246 454.082 212.083 454.082C214.385 454.082 216.495 455.042 216.495 456.578C216.495 458.114 218.989 459.074 222.059 459.074C226.279 459.074 226.855 458.498 224.553 456.002C222.059 453.506 223.402 452.354 230.883 450.05C243.161 446.019 244.696 446.019 241.434 449.858ZM267.141 446.787C264.647 451.01 270.402 455.81 273.855 452.354C276.732 449.474 275.006 444.099 271.169 444.099C269.826 443.907 268.1 445.251 267.141 446.787ZM104.27 446.403C107.532 448.514 107.34 448.898 103.887 448.898C101.585 448.898 98.899 447.746 98.1317 446.403C96.0215 443.331 99.2827 443.331 104.27 446.403ZM74.7275 447.362C71.6581 451.01 73.3846 453.89 78.5642 453.89C82.2092 453.89 83.1684 447.362 79.7153 445.251C78.3724 444.675 76.0703 445.635 74.7275 447.362ZM60.7234 446.403C61.4907 447.746 61.107 448.898 59.7642 448.898C58.4213 448.898 56.5029 447.746 55.7356 446.403C54.9682 445.059 55.3519 443.907 56.6948 443.907C58.0376 443.907 59.7642 445.059 60.7234 446.403ZM276.541 435.843C275.198 439.491 275.581 439.683 278.843 436.995C281.912 434.499 283.255 434.499 285.749 437.571C288.626 441.027 287.475 442.371 282.679 441.603C279.802 441.219 280.569 445.827 283.639 447.746C285.365 448.898 283.255 451.202 278.075 454.082C267.332 459.842 263.496 459.842 263.304 454.466C263.304 450.818 262.92 450.626 261.002 453.89C259.083 456.962 258.124 456.962 255.438 454.274C252.753 451.586 253.136 450.434 256.973 447.362C260.618 444.675 260.81 443.715 258.124 443.715C256.014 443.715 253.136 444.867 251.794 446.403C250.259 447.938 248.532 448.13 247.765 446.787C246.998 445.635 251.985 442.563 258.7 440.067C265.414 437.571 271.553 434.691 272.32 433.348C274.814 429.7 278.267 431.428 276.541 435.843ZM89.499 445.827C86.0459 448.706 86.0459 448.706 89.8827 447.362C92.1847 446.595 94.2949 446.787 94.4868 447.938C94.6786 449.09 95.0623 452.546 95.4459 455.426C95.8296 458.306 96.7888 461.953 97.5562 463.297C98.5153 464.833 97.1725 465.409 93.9112 464.449C90.65 463.681 89.6908 462.529 91.6092 461.377C93.5276 460.226 93.3357 458.69 90.8418 456.578C87.9643 454.082 87.0051 454.274 86.4296 457.346C85.6622 460.609 83.9357 460.418 74.3438 456.002C68.205 453.122 64.5601 450.242 66.2867 449.666C70.1234 448.13 70.5071 443.715 66.6703 444.483C65.1356 444.867 63.4091 443.715 62.6417 441.987C60.9152 437.379 69.356 434.883 72.0418 439.107C73.7683 441.987 74.152 441.987 74.3438 439.299C74.3438 437.379 72.2336 435.459 69.5479 434.691C66.8622 433.923 64.1764 432.004 63.6009 430.276C63.0254 428.548 69.356 430.66 77.9887 434.883C91.2255 441.603 92.9521 443.139 89.499 445.827ZM301.863 426.628C299.369 430.852 305.124 435.651 308.577 432.196C311.455 429.316 309.728 423.94 305.892 423.94C304.549 423.94 302.822 425.284 301.863 426.628ZM39.8131 427.396C36.7437 431.044 38.4702 433.924 43.6498 433.924C47.2947 433.924 48.2539 427.396 44.8008 425.284C43.458 424.708 41.3478 425.476 39.8131 427.396ZM333.516 402.822C334.667 408.197 339.08 408.581 340.039 403.398C340.614 400.71 339.271 398.982 336.778 398.982C334.475 398.982 333.133 400.518 333.516 402.822ZM8.35172 401.67C5.85783 405.894 11.613 410.693 15.066 407.238C17.9436 404.358 16.2171 398.982 12.3803 398.982C10.8456 398.982 9.11906 400.134 8.35172 401.67ZM-17.3545 372.872C-16.2035 378.248 -11.7912 378.632 -10.832 373.448C-10.2565 370.76 -11.5994 369.032 -14.0933 369.032C-16.3953 369.032 -17.7382 370.568 -17.3545 372.872ZM358.839 370.376C356.92 375.176 359.223 377.48 364.018 375.56C369.006 373.64 369.006 369.8 364.018 368.073C361.908 367.113 359.798 368.264 358.839 370.376ZM-7.76263 357.705C-7.76263 359.049 -5.07691 363.657 -1.81567 367.689C1.44556 371.72 4.32314 374.024 4.32314 372.68C4.32314 371.336 1.63741 366.729 -1.62383 362.697C-4.88507 358.665 -7.57079 356.361 -7.76263 357.705ZM-27.7137 360.201C-27.7137 362.313 -28.0974 364.041 -28.6729 364.041C-29.2484 364.041 -30.2076 362.313 -31.1668 360.201C-31.9342 358.089 -31.5505 356.361 -30.2076 356.361C-28.8648 356.553 -27.7137 358.089 -27.7137 360.201ZM380.133 357.129C378.023 360.969 376.872 361.737 376.104 359.433C375.529 357.513 376.488 355.018 378.406 353.866C383.202 350.602 383.394 350.986 380.133 357.129ZM349.247 362.121C345.41 368.073 335.051 380.36 326.035 389.575C317.018 398.79 311.071 406.47 312.606 406.47C318.361 406.47 360.565 355.785 357.496 352.714C356.92 351.946 353.084 356.169 349.247 362.121ZM-7.95447 348.298C12.5721 387.847 52.2825 414.149 73.9601 403.014C78.1806 400.71 81.8255 399.174 82.0173 399.558C82.0173 399.942 82.5928 403.974 83.3602 408.581C85.6622 425.86 100.817 438.915 127.866 446.787C136.499 449.282 140.336 451.202 136.691 451.202C126.332 451.394 83.3602 435.267 64.3683 423.94C54.5846 417.989 37.7029 404.742 26.96 394.566C16.2171 384.391 7.39253 376.904 7.39253 378.248C7.39253 381.895 36.7437 409.349 49.4049 417.797C55.3519 421.828 58.9968 425.476 57.4621 425.86C55.7356 426.436 56.1192 428.164 58.4213 430.66C61.4907 433.732 61.6825 435.267 59.1887 438.147C56.5029 441.411 55.9274 441.411 54.5846 437.379C53.4335 434.307 52.4743 433.924 51.1315 435.843C50.1723 437.379 50.1723 440.067 51.1315 441.603C52.2825 443.523 51.707 443.907 49.4049 442.371C37.7029 435.459 32.1396 430.276 33.2906 427.204C34.0579 425.284 33.4824 423.748 32.1396 423.748C30.7967 423.748 29.6457 422.02 29.6457 419.909C29.6457 415.301 38.662 414.917 40.3886 419.333C41.1559 421.252 41.7314 420.677 41.9233 417.989C42.1151 415.493 40.1967 412.805 37.7029 411.845C35.209 410.885 32.5232 408.773 31.3722 406.854C30.2212 404.934 27.5355 403.59 25.2334 403.59C21.7803 403.59 21.9722 404.166 26.0008 407.238C30.0294 410.117 30.2212 411.461 27.5355 414.149C24.8497 416.837 23.8906 416.837 21.9722 413.765C19.862 410.501 19.2865 410.501 17.1762 413.765C15.066 416.837 13.3395 416.261 6.62518 409.349C-0.280968 402.438 -0.856476 400.71 2.21292 398.79C4.70681 397.254 4.89864 396.294 2.78844 396.294C-1.62383 396.294 -1.04832 391.303 3.74762 389.575C5.85783 388.807 8.7354 389.575 9.88642 391.495C11.613 394.375 11.9966 394.183 12.1885 390.727C12.1885 388.423 10.4619 385.351 8.15988 384.199C5.85783 382.855 4.7068 380.36 5.47415 378.44C6.2415 376.136 5.09048 374.984 2.40475 374.984C-1.24016 374.984 -1.43199 375.752 0.870056 379.592C2.98027 383.047 2.78843 384.583 0.102707 386.311C-4.11772 388.999 -8.33814 387.079 -6.03609 383.815C-5.26874 382.471 -5.84426 381.511 -7.18712 381.511C-11.2157 381.511 -10.2565 388.999 -6.03609 390.535C-3.92588 391.303 -2.39118 393.031 -2.39118 394.566C-2.39118 398.598 -9.48917 391.687 -17.5463 379.976C-25.028 369.032 -26.5627 365.193 -22.5341 367.689C-21.1913 368.456 -19.4647 368.073 -18.6974 366.537C-17.93 365.193 -18.3137 364.041 -19.8484 364.041C-21.3831 364.041 -22.5341 362.313 -22.5341 360.201C-22.5341 355.018 -15.8198 355.401 -12.7504 360.777C-10.4484 364.809 -10.2565 364.809 -10.0647 360.969C-10.0647 358.665 -11.9831 355.593 -14.2851 354.25C-16.5872 352.906 -17.7382 350.986 -16.779 350.026C-15.8198 349.066 -13.3259 350.218 -11.2157 352.906C-6.41977 359.241 -6.41977 355.593 -11.2157 346.378C-13.3259 342.346 -14.4769 339.083 -13.7096 339.083C-12.9422 339.083 -10.6402 343.306 -7.95447 348.298ZM-37.6893 339.275C-37.6893 345.418 -31.9342 344.458 -30.5913 338.315C-30.2076 335.819 -31.3586 334.091 -33.6607 334.091C-35.9627 333.899 -37.6893 336.203 -37.6893 339.275ZM379.557 333.131C378.598 334.091 377.831 336.203 377.831 338.123C377.831 341.771 384.161 342.73 386.272 339.275C388.19 336.587 381.859 330.827 379.557 333.131ZM-32.126 326.028C-32.8933 329.675 -28.4811 330.059 -27.3301 326.412C-26.7545 324.876 -23.877 329.099 -20.6157 335.627C-16.2035 344.65 -15.8198 346.57 -18.8892 344.074C-22.5341 341.003 -22.726 341.387 -21.3831 347.338C-20.0402 352.906 -20.6157 354.058 -24.8362 354.058C-28.6729 354.058 -29.6321 352.906 -28.6729 349.642C-27.3301 345.61 -27.5219 345.61 -30.7831 349.45C-34.0444 353.29 -34.8117 352.714 -39.6077 342.538C-46.1301 329.099 -46.1301 328.716 -40.7587 330.827C-37.1138 332.171 -36.9219 331.787 -39.4158 328.715C-41.1424 326.604 -41.7179 324.108 -40.7587 323.148C-38.2648 320.46 -31.3586 322.764 -32.126 326.028ZM-45.1709 323.532C-45.1709 327.18 -45.5546 327.18 -47.6648 323.916C-50.7342 319.116 -50.7342 315.66 -47.6648 317.58C-46.322 318.54 -45.1709 321.228 -45.1709 323.532ZM-27.7137 319.692C-27.7137 320.844 -28.8648 321.036 -30.2076 320.076C-31.5505 319.308 -32.7015 316.62 -32.7015 314.317C-32.7015 310.669 -32.3178 310.669 -30.2076 313.933C-28.8648 316.044 -27.7137 318.732 -27.7137 319.692ZM381.284 312.589C382.051 314.509 381.092 316.62 379.365 317.388C377.063 318.348 376.488 317.196 377.255 313.933C378.79 307.981 379.557 307.789 381.284 312.589ZM-52.0771 300.686C-51.1179 306.253 -43.8281 307.021 -43.8281 301.646C-43.8281 299.534 -45.9383 297.614 -48.4322 297.038C-51.6934 296.27 -52.8444 297.23 -52.0771 300.686ZM391.451 296.654C388.957 300.878 394.712 305.677 398.166 302.221C401.043 299.342 399.317 293.966 395.48 293.966C394.137 293.966 392.41 295.31 391.451 296.654ZM-55.1465 284.175C-55.1465 285.519 -56.2975 286.479 -57.6404 286.479C-58.9832 286.479 -60.1343 284.751 -60.1343 282.639C-60.1343 280.527 -58.9832 279.375 -57.6404 280.335C-56.2975 281.295 -55.1465 282.831 -55.1465 284.175ZM407.757 280.335C407.757 282.447 406.606 283.599 405.264 282.639C403.921 281.679 403.345 279.951 404.112 278.799C406.415 275.344 407.757 275.92 407.757 280.335ZM-36.3464 292.43C-31.7423 309.901 -31.7423 309.133 -36.9219 307.213C-40.5668 305.869 -40.7587 306.253 -38.2648 309.325C-34.8117 313.549 -38.073 320.652 -42.2934 317.964C-43.8281 317.004 -44.4036 315.085 -43.4444 313.549C-42.4852 311.821 -43.6362 311.629 -46.8975 312.589C-50.9261 313.933 -52.2689 312.781 -53.6118 307.213C-54.571 303.373 -55.9138 298.382 -56.4894 295.886C-57.4485 292.622 -56.6812 291.854 -53.6118 293.198C-50.1587 294.542 -49.775 293.774 -51.1179 289.167C-52.6526 284.559 -52.0771 283.791 -48.2403 284.559C-45.5546 285.135 -43.8281 287.439 -44.0199 290.126C-44.4036 293.582 -43.6362 293.966 -41.526 291.854C-39.4158 289.742 -39.4158 287.823 -41.526 284.367C-43.0607 281.871 -43.8281 278.991 -42.8689 278.223C-40.9505 275.728 -40.375 277.071 -36.3464 292.43ZM-58.9832 259.217C-61.0935 262.673 -56.2975 267.472 -52.8444 265.36C-51.3097 264.4 -50.1587 262.097 -50.1587 259.985C-50.1587 255.953 -56.4894 255.185 -58.9832 259.217ZM158.56 240.786C160.287 241.554 162.589 241.362 163.356 240.594C164.124 239.826 162.781 239.25 160.095 239.25C157.026 239.25 156.45 239.826 158.56 240.786ZM410.251 246.738C410.251 257.681 409.676 259.025 406.606 256.529C402.386 253.073 397.782 255.185 397.782 260.561C397.782 263.248 399.317 264.016 402.77 263.056C407.374 261.905 408.141 262.673 407.566 268.24C407.566 269.2 405.839 269.776 403.921 269.392C401.619 268.816 400.851 269.968 402.002 272.848C403.153 275.92 402.386 276.687 398.933 275.919C396.247 275.344 394.329 273.04 394.521 270.736C394.712 268.432 393.753 267.088 392.41 268.048C391.068 268.816 390.492 271.696 391.259 274.192C392.027 276.879 391.451 278.991 390.3 278.991C389.149 278.991 388.19 281.487 388.382 284.559C388.574 288.399 388.957 288.975 389.725 286.095C391.068 281.103 397.206 278.223 399.317 281.679C400.084 283.023 399.892 285.327 398.933 287.055C397.782 288.975 398.549 289.55 401.235 288.399C406.223 286.479 406.223 286.479 402.578 300.302C400.659 307.981 398.741 310.861 396.439 309.901C394.329 309.133 392.986 310.285 392.986 312.781C392.986 315.085 391.643 316.428 389.917 315.852C388.19 315.277 386.847 312.205 387.039 309.325C387.231 305.677 386.08 304.333 383.778 305.101C381.092 306.061 380.708 305.101 382.051 300.878C383.01 297.806 385.888 283.983 388.19 270.352C390.684 256.529 392.602 246.738 392.794 248.466C392.986 250.193 393.945 251.537 395.288 251.537C396.439 251.537 397.015 249.234 396.247 246.546C395.288 242.706 396.247 241.554 400.276 241.554C403.153 241.554 405.455 242.706 405.455 244.05C405.455 245.394 404.304 246.546 402.77 246.546C401.235 246.546 400.851 247.698 401.619 249.042C404.304 253.457 408.333 248.658 406.798 242.898C405.647 238.098 406.798 234.067 409.484 234.067C409.868 234.067 410.251 239.826 410.251 246.738ZM393.753 240.402C391.835 245.586 390.3 245.01 390.3 238.866C390.3 235.987 391.451 234.451 392.602 235.219C394.137 235.987 394.521 238.29 393.753 240.402ZM-58.9832 219.284C-61.4771 223.507 -55.722 228.307 -52.2689 224.851C-49.3914 221.972 -51.1179 216.596 -54.9547 216.596C-56.2975 216.404 -58.0241 217.748 -58.9832 219.284ZM398.933 216.788C396.439 221.012 402.194 225.811 405.647 222.356C408.525 219.476 406.798 214.1 402.961 214.1C401.619 213.908 399.892 215.252 398.933 216.788ZM-40.9505 213.14C-41.9097 219.476 -42.4852 226.963 -42.4852 229.651C-42.4852 233.683 -43.2526 234.067 -45.9383 231.571C-48.8159 229.075 -49.1995 229.459 -48.2403 233.491C-47.473 236.371 -48.4322 238.866 -50.9261 239.826C-55.3383 241.554 -58.5996 237.906 -56.1057 234.067C-55.3383 232.723 -55.722 231.571 -57.2567 231.571C-62.82 231.571 -59.7506 241.746 -53.42 244.242C-49.1995 245.778 -47.473 248.082 -48.4322 250.385C-49.1995 252.497 -48.624 254.033 -47.0893 254.033C-45.5546 254.033 -44.9791 251.345 -45.5546 247.89C-46.1301 244.626 -45.7465 240.402 -44.5954 238.482C-43.2526 236.562 -42.4852 240.594 -42.4852 248.85C-42.4852 256.337 -41.9097 265.36 -41.1424 268.816C-40.375 272.272 -40.5668 273.616 -41.3342 271.888C-43.4444 267.28 -46.8975 268.048 -46.5138 273.04C-46.322 275.344 -48.2403 277.839 -50.9261 278.223C-54.571 278.991 -55.3383 278.223 -53.9955 274.96C-52.8444 271.888 -53.42 271.12 -55.9138 272.08C-60.1343 273.616 -62.4363 268.816 -62.4363 258.641C-62.4363 253.265 -61.4771 251.729 -58.7914 252.881C-56.6812 253.649 -55.1465 253.073 -55.1465 251.729C-55.1465 250.385 -56.873 247.506 -58.7914 245.394C-61.2853 242.898 -62.4363 236.562 -62.4363 225.043C-62.4363 209.685 -62.0526 208.533 -57.4485 210.069C-53.6118 211.22 -52.8444 210.836 -53.9955 207.573C-55.1465 204.501 -54.3791 203.733 -50.9261 204.309C-48.2403 204.885 -46.322 207.189 -46.5138 209.493C-46.7056 211.796 -45.7465 213.716 -44.4036 213.716C-43.0607 213.716 -42.4852 210.836 -43.0607 207.381C-43.6362 203.925 -43.0607 201.045 -41.7179 201.045C-40.375 201.429 -39.9913 206.037 -40.9505 213.14ZM402.194 199.701C403.345 196.246 407.757 197.973 407.757 201.813C407.757 203.157 406.798 203.733 405.455 202.965C404.304 202.197 402.578 203.349 401.619 205.653C400.468 208.341 401.235 209.301 403.537 208.341C407.374 206.805 409.868 213.332 410.059 224.659C410.059 229.651 409.1 230.995 406.415 230.035C403.729 228.883 403.153 229.651 404.304 232.915C405.455 236.179 404.88 236.946 401.235 236.179C398.549 235.603 396.631 233.299 396.823 230.995C397.015 228.691 396.247 226.771 394.904 226.771C393.561 226.771 392.602 228.115 392.41 229.843C392.027 233.491 388.382 220.052 387.998 213.716C387.806 211.028 388.957 209.877 391.259 210.836C393.753 211.796 394.521 210.836 393.561 207.189C392.794 204.309 391.068 202.389 389.725 202.581C388.382 202.965 386.655 201.813 386.08 200.085C385.312 197.781 386.847 197.781 392.986 200.085C399.508 202.197 401.427 202.005 402.194 199.701ZM-56.4894 198.741C-55.722 200.085 -56.1057 201.813 -57.6404 202.581C-58.9832 203.349 -60.1343 202.389 -60.1343 200.277C-60.1343 196.054 -58.5996 195.286 -56.4894 198.741ZM-51.5016 179.159C-53.9955 183.383 -48.2403 188.182 -44.7873 184.726C-41.9097 181.847 -43.6362 176.471 -47.473 176.471C-48.8159 176.471 -50.5424 177.815 -51.5016 179.159ZM392.027 175.703C388.574 179.159 390.492 184.15 395.48 184.15C398.933 184.15 400.468 182.807 399.892 179.927C399.125 175.319 394.712 173.015 392.027 175.703ZM-38.4566 172.055C-39.4158 175.511 -38.6485 176.663 -36.1546 175.511C-33.277 174.359 -32.8933 175.703 -34.2362 180.887C-36.5383 190.678 -39.7995 198.165 -39.9913 194.518C-39.9913 192.79 -41.3342 191.446 -42.8689 191.446C-44.4036 191.446 -44.9791 192.406 -44.2118 193.75C-43.4444 194.902 -44.4036 197.205 -46.322 198.933C-50.3506 202.389 -54.1873 198.357 -51.3097 193.75C-50.1587 191.83 -50.9261 191.254 -53.6118 192.406C-58.4077 194.326 -58.7914 191.638 -55.1465 178.391C-52.8444 169.944 -52.0771 169.176 -48.4322 172.055C-44.9791 174.935 -44.5954 174.743 -45.9383 171.095C-46.8975 168.792 -46.1301 166.488 -44.5954 165.72C-39.6077 163.992 -37.1138 166.68 -38.4566 172.055ZM391.451 166.872C390.492 168.408 391.643 168.792 394.712 167.832C398.933 166.488 399.892 168.024 402.194 177.623C404.304 187.03 404.112 188.758 401.427 187.798C399.508 187.03 397.398 187.606 396.631 188.95C395.863 190.294 396.439 191.254 397.782 191.254C399.317 191.254 400.468 192.406 400.468 193.942C400.468 195.478 398.549 196.246 396.055 195.67C393.753 195.094 391.835 192.79 392.027 190.486C392.219 187.222 391.643 186.838 389.341 188.758C387.039 190.678 385.504 189.718 383.394 184.918C379.941 177.239 379.557 170.52 383.01 172.631C384.545 173.591 384.737 172.439 383.97 169.944C383.01 167.64 383.778 164.952 385.696 163.8C389.725 161.304 393.561 163.416 391.451 166.872ZM379.174 183.575C389.341 222.74 388.766 267.472 377.639 303.373C373.035 318.156 373.035 320.076 376.488 323.532C380.133 327.18 380.517 327.18 380.517 323.148C380.517 320.46 382.435 318.924 385.504 318.924C391.068 318.924 392.219 322.956 387.423 324.684C385.696 325.26 385.121 326.604 386.08 327.564C388.766 330.443 393.178 326.604 393.178 321.228C393.178 318.54 394.329 316.428 395.672 316.428C399.125 316.428 399.125 316.62 391.643 333.707C387.998 341.962 383.97 348.106 382.627 347.338C381.284 346.57 379.365 347.338 378.214 349.066C377.063 350.794 374.378 351.562 372.076 350.602C368.814 349.258 368.623 347.914 370.733 344.074C373.035 339.851 372.651 339.275 369.39 340.619C365.745 341.962 365.745 341.579 369.39 334.475C371.5 330.251 373.227 325.26 373.227 323.532C373.035 319.884 358.647 346.378 358.647 350.218C358.647 351.562 360.182 350.602 362.292 347.914C364.402 345.226 365.937 344.458 365.937 346.186C365.937 347.914 364.21 350.986 362.1 353.098C359.99 355.209 359.223 358.089 360.182 359.817C361.333 361.737 362.292 361.353 362.867 358.281C363.251 355.785 365.169 353.866 367.088 353.866C371.884 353.866 374.57 359.049 370.733 361.353C368.431 362.889 368.623 363.465 371.692 364.233C375.337 365.001 374.953 366.345 369.39 374.6C364.21 382.279 362.292 383.623 359.414 381.128C356.537 378.824 355.961 379.016 355.961 382.471C355.961 384.775 354.618 386.311 352.892 385.735C351.165 385.159 349.822 382.279 350.014 379.208C350.206 371.912 348.096 372.488 341.573 381.32C335.818 389.191 334.092 394.375 339.08 389.383C343.3 385.159 348.48 385.543 348.48 390.151C348.48 392.263 347.329 393.991 345.794 393.991C344.259 393.991 343.876 395.334 345.027 396.87C346.178 398.79 348.288 398.022 351.549 393.991C354.043 390.727 356.729 388.615 357.304 389.191C357.88 389.767 353.276 395.718 347.137 402.246C337.929 412.037 335.243 413.765 332.365 411.269C329.871 409.157 328.72 409.157 328.72 411.077C328.72 412.613 326.994 413.957 325.075 413.957C319.896 413.957 320.28 407.238 325.651 404.166C329.871 401.67 329.68 401.67 325.651 401.478C323.157 401.478 320.663 403.014 319.896 404.934C319.128 406.854 316.443 408.965 313.757 409.733C311.071 410.501 308.961 412.997 308.961 415.685C308.961 419.333 309.537 419.525 311.263 416.837C312.414 414.917 315.292 413.957 317.402 414.917C322.773 417.029 322.582 421.636 317.21 421.636C313.949 421.636 313.565 422.404 315.867 424.708C318.169 427.012 319.896 426.436 323.924 422.212C326.802 419.141 329.871 416.837 330.831 416.837C333.9 417.029 313.373 434.116 300.904 441.795C294.381 445.827 289.01 447.938 289.01 446.595C289.01 445.251 291.888 442.947 295.149 441.603C298.602 440.259 301.288 438.147 301.288 436.611C301.288 432.964 296.875 433.348 295.532 437.187C294.573 439.683 293.614 439.683 290.928 436.995C288.051 434.116 288.243 433.156 292.079 430.276C294.573 428.356 295.532 426.244 294.19 425.476C292.847 424.708 290.545 425.668 288.818 427.78C287.092 429.892 284.022 431.428 281.912 431.428C279.802 431.428 284.79 427.012 293.039 421.636C306.851 412.613 313.757 406.47 309.728 406.47C308.769 406.47 303.973 409.733 298.986 413.573C278.459 429.7 227.238 451.778 211.124 451.202C207.863 451.01 212.083 449.09 220.332 446.595C247.189 438.915 263.687 424.516 263.687 408.581C263.687 399.75 265.414 398.598 273.279 402.822C298.026 415.685 336.969 386.311 362.292 335.819C382.435 295.694 383.202 261.713 364.402 246.738L357.496 241.17L365.745 233.107C370.157 228.691 374.953 222.548 376.104 219.284C379.557 210.452 378.79 188.566 374.57 174.743C370.349 160.728 369.965 158.424 373.227 163.8C373.994 166.104 376.872 174.935 379.174 183.575ZM-29.4403 166.68C-30.3995 170.52 -31.5505 171.095 -33.4689 168.984C-35.5791 166.872 -35.1954 165.528 -32.5097 163.8C-30.3995 162.456 -28.6729 161.496 -28.4811 161.496C-28.2892 161.496 -28.6729 163.8 -29.4403 166.68ZM397.782 162.456C397.782 163.608 396.247 163.224 394.137 161.496C392.027 159.768 391.068 157.273 392.027 155.929C393.561 153.433 397.782 158.04 397.782 162.456ZM-46.1301 163.416C-48.8159 166.104 -50.1587 162.264 -48.4322 157.465C-46.7056 153.049 -46.5138 152.857 -45.7465 157.273C-45.1709 159.768 -45.3628 162.456 -46.1301 163.416ZM-39.0321 141.722C-41.526 145.945 -35.7709 150.745 -32.3178 147.289C-29.4403 144.41 -31.1668 139.034 -35.0036 139.034C-36.3464 139.034 -38.073 140.186 -39.0321 141.722ZM379.557 138.266C376.488 141.338 378.023 146.521 381.668 146.521C383.778 146.521 385.312 144.985 385.312 142.874C385.504 138.65 381.859 135.962 379.557 138.266ZM-14.2851 132.698C-15.0525 134.81 -16.2035 136.538 -16.779 136.538C-17.3545 136.538 -17.7382 134.81 -17.7382 132.698C-17.7382 130.587 -16.5872 128.859 -15.2443 128.859C-13.9014 129.051 -13.5178 130.779 -14.2851 132.698ZM-23.3015 135.002C-24.0688 139.418 -23.4933 140.57 -20.9994 139.61C-18.3137 138.65 -18.5055 140.378 -21.9586 148.057C-27.7137 160.728 -27.7137 160.728 -30.3995 156.505C-32.3178 153.433 -32.7015 153.625 -32.7015 157.273C-32.7015 159.96 -34.6199 161.688 -37.6893 161.688C-43.0607 161.688 -44.7873 156.697 -39.6077 156.697C-37.6893 156.697 -38.2648 155.353 -40.9505 153.241C-45.1709 149.977 -45.1709 149.401 -41.1424 140.954C-37.8811 134.042 -36.1546 132.506 -33.6607 134.81C-31.1668 136.922 -30.3995 136.538 -30.3995 133.466C-30.3995 131.163 -28.6729 129.435 -26.3709 129.435C-23.3015 129.051 -22.5341 130.587 -23.3015 135.002ZM-27.7137 121.179C-27.7137 123.867 -29.4403 126.555 -31.3586 127.323C-34.428 128.475 -34.428 127.707 -32.126 122.523C-28.8648 115.228 -27.7137 114.844 -27.7137 121.179ZM-19.081 106.78C-21.5749 111.004 -15.8198 115.804 -12.3667 112.348C-9.48917 109.468 -11.2157 104.093 -15.0525 104.093C-16.3953 104.093 -18.1219 105.244 -19.081 106.78ZM358.263 104.861C355.194 108.508 356.92 111.388 362.1 111.388C365.745 111.388 366.704 104.861 363.251 102.749C362.1 102.173 359.798 103.133 358.263 104.861ZM154.916 87.1979C159.136 96.0292 159.136 96.9891 155.491 102.749C148.585 113.308 134.197 108.124 137.842 96.6051C138.801 93.7254 138.418 91.4215 137.075 91.4215C133.813 91.4215 124.222 103.709 124.222 107.74C124.222 109.468 126.524 113.692 129.401 117.34C136.115 125.979 152.805 126.555 161.438 118.491L167.193 113.116L165.467 123.291C163.548 134.426 171.03 178.007 174.291 174.743C178.32 170.52 183.883 132.698 181.773 123.291L179.663 114.076L185.993 119.067C199.997 130.011 222.059 123.099 222.059 107.74C222.059 100.637 215.153 91.4215 209.781 91.4215C207.095 91.4215 206.904 92.5735 209.206 96.7971C213.042 104.093 207.095 110.236 198.079 108.124C190.214 106.204 187.528 96.9891 191.94 87.5818C196.928 77.5986 201.916 75.1028 213.042 77.9826C240.667 84.894 235.487 129.051 200.189 188.182C191.365 202.965 184.075 217.172 184.075 219.476C184.075 221.78 182.924 224.467 181.581 225.235C180.238 226.003 179.087 228.115 179.087 229.651C179.087 234.643 198.079 206.229 210.548 182.807C218.989 166.68 227.622 154.969 241.242 141.146C263.304 118.491 273.855 113.884 288.243 120.987C304.741 129.051 304.165 149.209 287.283 155.161C281.336 157.273 279.61 156.889 275.581 151.897C270.018 144.985 271.553 139.994 280.377 136.922L287.092 134.618L279.994 131.738C270.21 127.899 266.565 128.283 260.81 133.85C253.52 141.146 254.287 153.241 262.536 161.88C266.181 165.72 270.785 168.984 272.512 168.984C278.843 168.984 275.773 173.015 266.949 176.087C257.549 179.543 226.279 206.997 230.308 208.341C234.336 209.685 274.238 193.942 279.61 188.758C284.79 183.959 284.79 183.958 283.639 191.062C281.72 204.693 293.422 218.9 306.851 218.9C313.182 218.9 320.471 209.301 320.28 200.853V192.79L315.675 198.357C310.112 205.077 307.235 205.269 302.055 200.085C296.684 194.71 297.067 190.102 303.59 184.15C313.949 174.551 328.337 178.583 332.941 192.79C341.765 219.86 304.932 236.371 233.377 237.714C213.618 238.098 193.859 238.674 189.83 239.058L182.348 239.634L190.981 241.746C195.777 242.898 215.92 243.858 235.871 243.858C288.051 244.05 320.088 252.881 330.639 269.776C336.202 278.799 335.435 289.55 328.72 297.038C323.157 303.181 309.345 302.989 303.014 296.654C296.875 290.51 296.875 288.783 302.822 281.295L307.618 275.344L314.141 281.487L320.663 287.631V280.911C320.663 274.384 311.071 261.905 306.084 261.905C293.614 261.905 281.72 276.879 284.406 289.742L285.749 296.846L276.349 290.702C267.524 284.751 231.075 270.928 229.349 272.848C227.238 274.96 257.165 300.302 267.716 305.101C277.308 309.517 278.459 310.669 274.047 311.437C270.977 311.821 265.606 315.661 262.153 319.884C247.573 337.355 261.961 359.625 281.336 349.258C286.324 346.57 286.324 346.378 278.651 343.114C269.443 339.275 269.059 337.163 275.581 329.291C279.61 324.3 281.336 323.724 287.283 325.836C303.781 331.595 304.549 350.986 288.626 360.393C276.541 367.497 264.838 363.081 245.079 344.458C227.622 327.948 223.785 322.956 200.957 283.407C192.324 268.432 184.842 257.297 184.267 258.833C183.116 262.097 192.516 280.911 206.328 303.565C225.32 334.859 235.295 376.328 227.622 391.495C220.14 406.086 202.875 409.349 193.859 398.022C187.336 389.767 187.336 381.703 193.667 375.944C197.887 372.104 199.614 371.912 205.177 374.408C209.397 376.328 211.124 378.632 210.165 381.128C205.177 393.607 205.177 393.031 210.74 389.959C219.757 385.159 223.977 376.328 221.291 369.032C216.495 356.361 196.928 352.906 186.377 362.697L180.622 368.264L182.156 358.665C183.691 349.066 177.744 310.285 174.099 306.445C170.838 303.181 163.356 346.57 165.275 357.705L167.001 367.689L159.712 362.313C143.405 350.218 119.617 362.313 126.524 379.208C128.25 383.239 132.279 387.847 135.54 389.191C141.295 391.879 141.295 391.687 138.801 385.927C136.691 381.32 136.883 379.016 139.185 375.944C146.091 367.689 157.601 374.792 157.218 387.079C156.642 404.358 138.993 410.693 124.989 398.598C118.466 393.031 118.083 391.303 118.083 374.216C118.275 350.986 124.989 330.827 142.638 300.878C156.258 277.647 169.303 251.729 167.961 250.385C166.618 249.042 150.695 274.576 137.65 298.382C115.589 337.931 80.0989 368.648 62.8336 362.313C54.2009 359.241 47.1029 350.602 47.1029 343.306C47.1029 335.051 56.8866 323.916 63.9846 323.916C75.6867 323.916 78.9479 340.235 68.0132 342.922C61.8744 344.458 61.6825 344.842 66.0948 347.914C72.8091 352.906 81.25 351.946 87.0051 345.802C96.597 335.435 91.4174 318.924 76.454 312.589L68.9724 309.325L79.9071 304.333C89.8827 299.726 120.96 274.384 118.85 272.272C115.973 269.392 74.9193 285.711 66.8622 293.006C63.2172 296.27 62.8336 295.886 63.0254 287.823C63.4091 275.919 58.2295 267.088 49.2131 263.824C45.1845 262.289 40.7723 261.137 39.6212 261.137C35.0171 261.137 27.5355 272.656 27.5355 279.567V287.055L32.5232 281.679C35.4008 278.607 38.4702 276.112 39.4294 276.112C43.2661 276.112 47.2947 282.255 47.2947 288.207C47.2947 301.646 26.5763 306.061 17.5599 294.542C6.62518 280.527 13.3395 265.744 35.7845 255.185C52.858 247.122 73.7683 243.858 110.793 243.474C150.311 243.09 162.589 240.402 136.883 237.714C126.524 236.755 111.56 236.371 103.311 237.138C95.0623 237.906 83.9357 237.522 78.3724 236.371C72.8091 235.219 64.1764 233.683 58.805 232.723C45.1845 230.611 26.1926 221.972 19.4783 214.676C11.4211 206.037 11.4211 190.102 19.4783 183.575C26.5763 177.815 34.2498 177.623 41.7314 182.807C48.4458 187.606 48.2539 198.165 41.3478 202.389C37.7029 204.693 35.9763 203.925 32.1396 198.933L27.3436 192.598V200.661C27.3436 209.301 34.4416 218.708 41.1559 218.708C54.3927 218.708 66.8622 202.773 63.6009 189.718L61.8744 182.999L69.356 189.334C75.8785 194.902 111.177 208.725 118.083 208.533C122.303 208.341 91.2255 181.271 81.4418 176.663C70.8907 171.671 69.9316 169.56 77.0295 167.256C83.7439 165.144 91.9929 154.009 91.9929 147.289C91.9929 139.418 82.7847 128.475 76.0704 128.475C73.001 128.475 68.3969 130.011 65.903 131.93C61.4907 135.194 61.6825 135.386 67.8213 136.922C72.6173 138.074 74.3438 140.186 74.3438 144.218C74.3438 156.889 60.5315 160.152 52.0907 149.401C42.8825 137.69 46.5274 125.403 61.107 119.451C69.356 115.996 70.6989 116.188 83.1683 122.331C97.5562 129.435 122.687 154.969 130.744 170.712C144.748 198.357 168.92 235.603 168.92 229.843C168.92 226.771 150.887 192.406 140.144 175.319C124.989 150.937 118.083 129.243 117.891 106.396C117.891 89.3097 118.275 87.5818 124.989 81.8223C130.36 77.2146 134.389 75.8707 141.103 76.4467C148.969 77.5986 150.887 79.1345 154.916 87.1979ZM7.20069 77.7906C7.20069 79.9024 8.92724 81.6303 10.8456 81.6303C12.9558 81.6303 14.4905 79.9024 14.4905 77.7906C14.4905 75.6787 12.764 73.9509 10.8456 73.9509C8.92724 73.9509 7.20069 75.6787 7.20069 77.7906ZM331.79 74.1428C329.296 78.3665 335.051 83.1662 338.504 79.7104C341.382 76.8306 339.655 71.4551 335.818 71.4551C334.475 71.4551 332.749 72.799 331.79 74.1428ZM127.291 65.1195C110.217 72.607 104.27 98.909 112.903 127.899C115.013 134.618 116.548 140.378 116.548 140.762C116.548 140.954 111.177 135.77 104.462 129.051C77.0295 101.405 53.2417 99.2929 35.209 123.099C29.6457 130.587 28.3028 134.618 28.4947 145.561C28.6865 156.505 27.9191 159 24.6579 159C13.1477 159 -0.472809 179.159 -0.472809 196.054C-0.472809 215.444 13.5313 227.923 45.3764 236.562L60.1478 240.594L42.8825 244.818C11.613 252.689 -2.00751 266.896 0.102707 289.358C1.44556 303.757 7.77621 313.357 19.4783 319.308C27.3436 323.34 27.9191 324.492 28.3028 336.395C28.6865 356.169 45.3764 373.832 63.9846 373.832C75.4948 373.832 95.2541 362.505 107.34 349.066C117.507 337.739 118.275 338.315 112.903 353.866C110.793 359.625 109.258 371.336 109.258 379.784C109.258 405.51 121.728 418.757 145.516 418.757C156.258 418.757 171.605 412.613 171.605 408.389C171.605 407.43 175.634 409.349 180.622 412.613C197.312 423.94 223.977 419.333 233.761 403.398C240.283 392.839 240.283 370.184 234.144 351.946L229.54 338.891L243.928 352.714C266.181 374.024 283.639 379.016 300.328 368.84C311.839 361.737 318.361 349.834 318.361 336.011C318.361 325.068 318.937 324.108 327.761 319.692C338.12 314.317 348.288 297.614 348.288 285.711C348.288 275.728 341.382 261.905 333.708 256.913C330.255 254.609 318.553 249.81 307.618 246.354L287.859 239.826L304.741 235.603C332.557 228.691 348.096 214.1 348.096 194.71C348.096 182.807 337.929 166.104 327.569 160.728C318.937 156.313 318.169 155.161 318.169 144.793C318.169 138.65 316.443 130.395 314.333 126.363C309.153 116.188 293.998 106.396 283.255 106.396C271.936 106.396 252.177 117.916 240.091 131.163C229.732 142.682 229.54 142.49 234.72 125.403C239.324 109.852 239.516 91.2296 234.912 80.2864C227.622 62.8157 198.079 55.7122 181.197 67.4234L172.565 73.3749L165.467 67.4234C157.409 60.5119 140.336 59.552 127.291 65.1195ZM343.684 83.3582C341.382 85.278 340.806 86.2379 342.341 85.47C343.876 84.702 345.986 85.086 346.945 86.6219C349.439 90.4616 341.19 92.5735 336.969 89.1177C334.667 87.1979 333.324 87.0059 333.324 88.7337C333.324 90.2696 335.435 92.9574 337.929 94.6853C340.422 96.4132 343.108 99.8689 344.067 102.365C345.027 104.861 347.137 106.78 348.671 106.78C350.974 106.78 351.165 106.204 348.671 103.709C344.451 99.4849 345.027 94.3013 349.439 94.3013C351.549 94.3013 353.084 95.4532 353.084 96.7971C353.084 98.141 354.235 99.2929 355.578 99.2929C359.798 99.2929 358.455 92.1895 353.659 89.6937C351.357 88.3498 350.014 86.4299 350.974 85.662C352.508 84.1261 373.035 109.276 373.035 112.732C373.035 113.692 371.116 114.46 368.623 114.652C365.937 114.844 365.553 115.42 367.472 116.188C371.884 117.916 371.308 124.443 366.704 124.443C364.594 124.443 362.1 122.523 361.333 120.219C359.798 116.38 359.606 116.38 358.263 120.411C356.92 124.059 355.578 123.291 350.398 115.228C346.945 109.852 338.12 99.101 331.022 91.2296C320.855 79.9024 318.937 76.8307 322.582 76.6387C326.802 76.4467 326.802 76.2547 322.773 75.2948C320.471 74.7188 318.361 72.607 318.361 70.6871C318.361 65.6955 323.541 63.1997 326.035 67.2314C327.186 69.1512 328.912 69.9192 329.68 68.9592C331.982 66.6554 328.529 62.0478 324.5 62.0478C322.582 62.0478 320.855 60.1279 320.855 57.8241C320.855 54.9443 325.075 57.8241 334.475 67.0394C346.753 78.7505 347.52 80.0944 343.684 83.3582ZM300.904 50.1447C300.904 52.0645 301.863 54.3684 303.206 55.1363C305.892 56.8642 311.455 50.5286 309.345 48.2248C306.084 45.1531 300.904 46.497 300.904 50.1447ZM284.406 50.3367C285.557 53.6004 284.981 53.6004 280.377 51.2966C272.512 47.0729 272.128 46.497 277.883 46.497C280.569 46.497 283.447 48.2248 284.406 50.3367ZM38.662 48.0328C35.209 51.4886 36.9355 56.8642 41.3478 55.9042C43.6498 55.5203 45.76 53.4084 45.76 51.4886C45.76 47.6489 41.3478 45.537 38.662 48.0328ZM313.949 55.5203C309.92 58.784 309.92 58.976 313.757 57.4401C316.635 56.4802 318.169 57.2481 318.169 59.7439C318.169 65.3115 311.263 67.0394 308.386 62.0478C306.084 58.0161 305.892 58.2081 305.892 62.4317C305.892 64.9276 308.002 67.6153 310.879 68.3833C313.565 69.1512 315.867 71.2631 315.867 73.1829C315.867 75.2948 310.304 72.415 302.247 66.0795C294.765 60.3199 289.777 55.1363 291.12 54.5603C292.463 53.9844 291.696 52.2565 289.202 50.3367C285.557 47.6489 285.365 46.4969 287.859 43.8092C290.545 41.1214 291.504 41.1214 293.23 44.0011C294.765 46.305 295.724 46.497 297.067 44.5771C298.026 43.0412 298.026 40.5454 297.067 39.0095C296.108 37.4736 300.52 39.7775 307.043 44.1931C317.786 51.4886 318.169 52.2565 313.949 55.5203ZM293.422 35.3618C293.422 38.2416 288.626 38.2416 287.667 35.3618C286.708 32.866 287.475 32.29 289.969 33.058C291.696 33.8259 293.422 34.9778 293.422 35.3618ZM203.642 34.2099C224.361 37.6656 241.051 44.9611 250.642 54.9443C259.467 63.9676 263.879 79.1345 257.932 79.1345C251.794 79.1345 246.038 87.7738 244.696 99.2929C242.777 115.612 245.847 118.683 257.165 111.772C268.867 104.477 274.43 96.0292 272.512 88.1578C270.785 81.2463 274.239 79.1345 286.516 79.1345C313.182 79.1345 352.508 122.331 367.855 168.408C373.994 187.03 374.57 211.22 369.006 222.932C364.21 233.107 360.182 234.835 351.549 230.419C347.137 228.115 342.724 227.731 337.929 229.075C329.488 231.571 315.675 239.442 315.675 241.938C315.675 245.01 336.778 254.033 343.684 254.033C347.329 254.033 352.125 252.113 354.235 250.001C358.072 246.162 358.839 246.354 364.594 252.113C386.08 273.808 367.855 337.739 328.72 378.056C313.182 393.991 299.561 401.67 286.708 401.67C274.622 401.67 271.553 399.558 271.745 390.919C271.745 383.047 265.798 375.368 255.63 370.184C245.463 364.809 243.736 365.769 243.736 376.52C243.736 390.151 247.573 398.79 255.055 402.246C260.234 404.55 261.194 406.47 260.043 411.269C257.357 421.636 251.602 428.356 238.94 435.267C195.969 458.69 109.834 450.434 91.9929 421.06C86.2377 411.461 85.4704 401.862 90.8418 401.862C96.7888 401.862 102.544 390.343 102.736 378.248C102.736 371.912 102.16 366.153 101.393 365.385C99.0909 363.081 82.401 374.216 77.9887 380.936C75.6867 384.391 74.7275 389.383 75.6867 392.839C77.4132 399.75 73.9601 401.862 60.7234 401.862C36.9355 401.862 7.39253 373.064 -12.5586 330.635C-29.4403 294.734 -30.7831 265.744 -16.3953 252.113C-10.832 246.738 -10.0647 246.738 -4.50139 250.385C2.02109 254.801 12.9558 252.881 23.8906 245.586C31.9477 240.402 31.3722 238.674 20.0538 232.339C8.54356 225.811 -0.856483 225.427 -6.41977 230.995C-10.2565 234.835 -11.0239 234.643 -16.779 228.883C-49.775 195.286 11.4211 79.1345 61.8744 79.1345C73.1928 79.1345 77.7969 82.2062 75.8785 88.3498C73.9601 94.3013 81.8255 105.053 91.9929 110.428C102.736 115.996 104.27 115.036 104.27 104.093C104.27 91.2296 98.3235 79.1345 91.801 79.1345C85.2785 79.1345 85.2785 71.0711 91.801 60.5119C105.038 38.6255 156.834 26.5305 203.642 34.2099ZM100.242 33.6339C101.009 34.7858 99.2827 36.5137 96.597 37.2817C92.3765 38.4336 91.9929 38.0496 94.4868 34.9778C97.9398 30.9461 98.5154 30.7541 100.242 33.6339ZM230.691 34.0179C276.541 46.8809 324.692 81.2463 349.631 119.067C353.084 124.251 357.112 128.091 358.839 127.515C360.374 126.939 362.867 128.859 364.21 131.93C365.553 135.002 368.431 137.882 370.349 138.458C373.419 139.418 373.419 138.842 370.925 136.154C366.704 131.546 367.088 126.363 371.5 126.363C373.61 126.363 375.145 128.283 375.145 130.587C375.145 134.042 375.721 134.234 378.214 131.738C380.708 129.243 380.516 127.899 376.872 125.211C374.186 123.099 373.418 121.179 374.953 120.219C376.296 119.259 380.9 125.211 385.121 133.658C393.753 150.745 393.945 151.705 389.149 149.785C386.463 148.825 385.888 149.785 387.039 153.625C388.766 160.152 381.668 160.728 378.023 154.393C375.721 150.361 375.529 150.361 375.337 154.201C375.337 156.505 376.296 159.192 377.831 159.96C379.174 160.728 380.325 163.992 380.133 167.064C379.941 170.712 379.557 171.287 378.598 168.792C373.61 155.161 362.676 133.274 361.525 134.426C360.757 135.194 362.484 140.57 365.361 146.329C368.239 152.089 370.349 157.273 369.774 157.656C369.39 158.04 364.594 150.169 359.414 139.994C348.671 119.067 321.814 88.3498 308.386 81.4383C294.19 74.3348 284.79 72.9909 275.006 77.2146C265.03 81.4383 263.304 80.6704 263.304 71.4551C263.304 54.1764 241.434 38.0496 207.287 30.3702C202.299 29.2183 202.299 29.2183 207.287 29.0263C210.357 29.2183 220.716 31.3301 230.691 34.0179ZM265.989 30.1782C265.989 32.098 266.949 34.4019 268.292 35.1698C270.977 36.8977 276.541 30.5622 274.43 28.2583C271.361 25.1866 265.989 26.3385 265.989 30.1782ZM188.295 28.2583C180.43 28.8343 167.577 28.8343 159.712 28.2583C151.846 27.6824 158.369 27.2984 174.099 27.2984C189.83 27.2984 196.161 27.8744 188.295 28.2583ZM73.5765 28.2583C70.5071 31.3301 71.8499 36.5137 75.6867 36.5137C77.7969 36.5137 79.3316 34.2099 79.3316 31.5221C79.3316 26.5305 76.6459 24.9946 73.5765 28.2583ZM212.467 24.0347C213.234 25.3786 212.275 26.5305 209.973 26.5305C207.671 26.5305 206.712 25.3786 207.479 24.0347C208.246 22.6908 209.397 21.5388 209.973 21.5388C210.548 21.5388 211.699 22.6908 212.467 24.0347ZM137.842 24.0347C138.609 25.3786 137.65 26.5305 135.54 26.5305C133.43 26.5305 131.703 25.3786 131.703 24.0347C131.703 22.6908 132.662 21.5388 134.005 21.5388C135.348 21.5388 136.883 22.6908 137.842 24.0347ZM272.704 24.2266C279.226 27.1064 283.255 29.9862 281.528 30.7541C279.802 31.3301 278.459 32.866 278.459 34.2099C278.459 35.5538 279.802 36.1297 281.528 35.9378C283.255 35.5538 284.598 37.0897 284.598 39.0095C284.598 41.1214 282.296 42.8492 279.61 42.8492C276.924 42.8492 273.855 43.8092 273.087 44.9611C272.32 46.113 267.141 44.7691 261.961 41.8893C256.589 39.0095 253.904 36.7057 256.014 36.5137C258.892 36.3217 258.891 35.7458 255.438 33.8259C249.108 30.1782 249.683 23.0747 256.206 24.8026C260.043 25.7625 261.002 25.1866 260.043 22.6908C258.316 18.0831 258.316 18.0831 272.704 24.2266ZM95.4459 19.043C94.6786 20.3869 92.7602 21.5388 91.6092 21.5388C90.2663 21.5388 89.3071 20.3869 89.3071 19.043C89.3071 17.6991 91.0337 16.5472 93.1439 16.5472C95.2541 16.5472 96.4051 17.6991 95.4459 19.043ZM256.014 17.8911C256.014 20.7709 251.218 20.7709 250.259 17.8911C249.3 15.3953 250.067 14.8194 252.561 15.5873C254.479 16.3552 256.014 17.5072 256.014 17.8911ZM109.258 17.6991C109.258 20.1949 110.793 21.5388 113.671 20.9629C118.85 20.003 118.658 15.5873 113.095 14.4354C110.793 14.0514 109.258 15.3953 109.258 17.6991ZM230.308 13.2835C227.238 16.3552 228.773 21.5388 232.418 21.5388C234.528 21.5388 236.063 20.003 236.063 17.8911C236.063 13.6674 232.61 10.9796 230.308 13.2835ZM121.728 13.0915C121.728 16.3552 122.495 16.5472 125.181 14.2434C127.675 12.1316 129.209 12.1316 130.36 14.0514C132.662 17.6991 126.715 24.4186 123.262 22.3068C121.536 21.3469 121.728 22.3068 123.646 24.6106C126.332 28.0664 125.756 28.8343 120.001 30.1782C116.164 31.1381 111.177 32.482 108.683 33.058C105.613 34.0179 104.846 33.25 105.805 30.5622C106.956 27.6824 105.997 27.1064 101.968 28.2583C98.3235 29.2183 96.7888 28.4503 96.7888 25.5705C96.7888 23.2667 98.5154 21.5388 100.817 21.5388C104.079 21.5388 104.27 20.7709 101.777 17.8911C99.2827 14.8194 100.242 13.8594 107.148 11.9396C119.234 8.29185 121.728 8.48384 121.728 13.0915ZM242.202 16.9312C241.051 20.3869 241.818 21.1549 244.696 20.003C247.189 19.043 248.532 19.811 248.532 22.3068C248.532 27.8744 243.928 29.9862 239.708 26.3385C237.022 24.0347 236.063 24.0347 236.063 26.1465C236.063 27.6824 237.789 29.6022 239.708 30.1782C241.818 30.7541 245.271 31.9061 247.573 32.674C249.875 33.4419 251.218 34.4019 250.642 34.9778C249.683 35.9378 220.908 28.8343 218.606 26.9144C218.03 26.3385 218.989 24.9946 221.1 23.6507C223.977 21.7308 223.593 21.3469 219.181 21.3469C213.426 21.3469 211.508 15.3953 216.112 12.5155C217.455 11.7476 218.606 12.3235 218.606 13.8594C218.606 15.3953 219.757 15.9713 220.908 15.2033C222.251 14.4354 222.634 12.1316 222.059 10.4037C221.1 7.7159 223.018 7.52391 232.226 9.82773C241.626 11.9396 243.353 13.0915 242.202 16.9312ZM218.606 7.52391C218.606 8.09987 216.879 9.05979 214.961 10.0197C212.85 10.7877 211.316 10.4037 211.316 9.05979C211.316 7.71589 213.042 6.56398 214.961 6.56398C216.879 6.56398 218.606 6.94795 218.606 7.52391ZM188.871 10.0197C188.871 11.9396 189.83 14.2434 191.173 15.0113C193.859 16.7392 199.422 10.4037 197.312 8.09986C194.05 5.22008 188.871 6.372 188.871 10.0197ZM149.352 10.4037C150.503 15.7793 154.916 16.1633 155.875 10.9796C156.45 8.29185 155.107 6.56398 152.614 6.56398C150.311 6.56398 148.969 8.09987 149.352 10.4037ZM134.005 9.05979C134.005 10.4037 133.046 11.5556 131.703 11.5556C130.36 11.5556 128.634 10.4037 127.866 9.05979C127.099 7.71589 128.058 6.56398 130.169 6.56398C132.279 6.56398 134.005 7.71589 134.005 9.05979ZM196.928 4.06817C204.985 4.06817 206.52 4.64413 204.218 7.13994C199.997 11.3636 200.381 15.3953 204.601 11.9396C207.287 9.63575 208.438 10.0197 209.397 12.7075C211.124 17.3152 207.287 20.003 201.916 18.0831C199.23 16.9312 198.463 17.6991 199.422 20.3869C200.573 23.4587 198.655 24.2266 189.446 24.2266C179.087 24.2266 178.32 23.8427 181.389 20.003C183.308 17.6991 183.691 16.5472 182.156 17.3152C177.744 20.003 172.756 15.2033 174.675 10.2117C176.21 6.372 176.785 6.18001 178.703 9.25178C179.854 11.1716 181.773 12.1316 182.732 11.1716C183.691 10.2117 182.924 7.52391 181.005 5.22008C177.936 1.38038 178.128 1.18839 182.156 2.72427C184.65 3.30023 191.365 4.06817 196.928 4.06817ZM175.059 4.06817C174.291 5.41207 172.373 6.56398 171.222 6.56398C169.879 6.56398 168.92 5.41207 168.92 4.06817C168.92 2.72427 170.646 1.57236 172.756 1.57236C174.867 1.57236 176.018 2.72427 175.059 4.06817ZM162.589 6.75597C161.438 10.4037 161.822 11.5556 163.74 10.4037C168.344 7.52391 172.181 11.3636 168.728 15.3953C167.193 17.3152 164.891 18.2751 163.548 17.5072C162.397 16.7392 161.246 17.5072 161.246 19.043C161.246 20.9629 163.548 21.3469 167.385 20.3869C170.646 19.619 174.099 20.003 175.059 21.3469C176.018 22.8827 170.454 23.8427 160.095 23.8427C148.969 23.8427 144.173 22.8827 145.324 21.1549C146.283 19.619 145.516 18.6591 143.597 19.043C136.691 20.003 134.005 18.851 134.005 14.8194C134.005 12.3235 135.348 11.3636 137.65 12.1316C142.446 13.8594 144.94 9.82773 140.911 7.13994C138.993 5.79604 142.446 4.45214 150.12 3.6842C157.026 2.91626 162.973 1.95633 163.356 1.76435C163.932 1.76435 163.548 3.87619 162.589 6.75597ZM140.528 1.57236C104.462 7.33192 66.4785 22.1148 37.511 41.8893C23.5069 51.4886 -12.7504 86.2379 -12.7504 90.0776C-12.7504 91.6135 -6.99528 86.6219 -0.0891266 79.1345C9.88642 68.3833 12.9558 66.2714 14.8742 69.1512C16.7926 72.223 17.5599 72.223 19.4783 68.9592C21.3967 65.8875 22.3559 65.8875 25.0416 68.5753C27.7273 71.2631 27.3436 72.415 23.5069 75.4867C19.2865 78.7505 19.0946 79.1345 22.9314 79.1345C25.2334 79.1345 27.7273 77.5986 28.4947 75.6787C29.262 73.7589 31.9477 71.647 34.6335 70.8791C37.3192 70.1112 39.4294 67.6153 39.2376 64.9276C39.0457 62.2398 38.4702 61.6638 37.7029 63.3917C35.9763 67.6153 26.96 67.4234 26.96 63.0077C26.96 61.0878 28.3028 58.976 30.0294 58.4C32.3314 57.6321 32.3314 57.0561 30.0294 55.5203C28.3028 54.3684 26.1926 55.5203 25.2334 58.2081C24.0824 60.7039 21.5885 63.0077 19.6701 63.3917C14.4905 64.3516 35.5927 45.729 47.2947 39.2015C52.6662 36.1297 56.8866 34.7858 56.8866 36.1297C56.8866 37.4736 54.5846 39.0095 51.8988 39.7775C46.9111 41.1214 44.8008 46.497 49.4049 46.497C50.7478 46.497 51.8988 45.345 51.8988 44.0011C51.8988 42.6572 53.0499 41.5053 54.3927 41.5053C55.7356 41.5053 56.8866 43.8092 56.8866 46.497C56.8866 49.5687 55.1601 51.4886 52.6662 51.4886C49.4049 51.4886 49.2131 52.2565 51.3233 54.3684C53.6254 56.6722 55.3519 56.4802 58.6131 53.4084C61.107 51.2966 64.9438 48.9928 67.4377 48.0328C69.7397 47.2649 71.8499 45.1531 71.8499 43.4252C71.8499 41.1214 71.0826 41.1214 68.9724 43.2332C65.3275 46.8809 59.3805 44.5771 59.3805 39.5855C59.3805 37.2817 60.7234 36.3217 63.4091 37.2817C65.903 38.2416 66.8622 37.6656 66.2867 35.7458C65.7111 34.0179 63.7928 32.866 62.258 33.25C57.0784 34.4019 59.3805 31.5221 66.2867 28.0664C76.0704 23.0747 84.5112 20.7709 84.1275 23.0747C83.1683 28.0663 84.703 29.7942 86.8132 26.3385C88.5398 23.4587 89.8826 23.2667 91.9929 25.5705C95.6378 29.2183 92.9521 33.8259 87.3888 34.0179C83.7439 34.0179 83.7439 34.4019 86.8132 36.3217C91.4174 39.2015 91.4174 39.2015 73.001 48.4168C49.9805 59.9359 9.69458 92.7654 9.69458 99.8689C9.69458 101.213 16.7926 95.4532 25.4253 87.1979C43.6498 69.5352 69.356 52.2565 90.65 43.2332C109.258 35.3618 135.732 28.2583 141.295 29.7942C144.365 30.5622 144.173 30.9461 140.336 31.1381C128.826 31.7141 103.695 42.4653 95.8296 49.9527C90.4582 55.1363 86.4296 62.0478 84.5112 69.3432L81.4418 80.6704L70.8907 76.8306C61.107 73.3749 59.3805 73.3749 49.2131 77.2146C32.9069 83.5501 19.0946 94.6853 5.85783 112.156C-16.779 142.49 -30.2076 175.511 -30.2076 201.237C-30.2076 219.284 -24.0688 233.491 -15.2443 235.795C-8.91366 237.522 -8.91366 243.09 -15.2443 244.626C-30.5913 248.658 -34.8117 281.295 -24.2607 312.589C-20.9994 322.188 -18.6974 330.443 -19.081 330.827C-20.4239 332.171 -30.3995 303.373 -34.428 286.479C-40.375 261.521 -39.6077 212.756 -32.8933 187.606C-26.7545 164.568 -13.5178 135.386 -1.81567 119.067C9.88642 102.557 11.4211 99.4849 5.09048 105.053C2.02109 107.74 -2.77486 113.884 -5.65242 118.491C-10.4484 126.171 -11.2157 126.747 -12.9422 122.331C-14.6688 118.108 -14.8606 118.108 -15.0525 121.947C-15.0525 124.443 -16.779 126.363 -18.8892 126.363C-23.877 126.363 -26.5627 121.179 -22.726 118.875C-20.4239 117.34 -20.6157 116.764 -23.6851 115.996C-27.3301 115.228 -26.9464 113.692 -21.1913 105.244C-17.5463 99.8689 -14.0933 96.7971 -13.5178 98.333C-12.1749 102.557 -7.95447 102.173 -7.95447 97.5651C-7.95447 95.4532 -6.80345 93.7254 -5.46059 93.7254C-1.24016 93.7254 0.29454 101.021 -3.15854 105.053C-5.46058 107.74 -5.46058 108.7 -3.35037 108.7C-1.81567 108.7 0.29454 106.78 1.06189 104.285C1.82924 101.789 4.70681 98.525 7.20069 96.6051C9.69458 94.8773 11.8048 92.1895 11.8048 90.6536C11.8048 88.9257 10.4619 89.1177 8.15988 91.0376C3.93945 94.4933 -4.30956 92.3815 -1.81567 88.5418C-0.856483 87.1979 0.870056 86.6219 2.02108 87.3898C3.36395 88.1578 4.32314 87.5818 4.32314 86.2379C4.32314 82.2062 -2.58302 83.1662 -5.07691 87.5818C-6.22794 89.6937 -9.29733 91.8055 -11.7912 92.1895C-23.3015 93.9174 -50.1587 144.793 -58.9832 182.423C-67.0404 216.404 -68.767 238.29 -65.3139 264.976C-59.5588 306.445 -45.1709 345.61 -24.4525 376.52C-15.628 389.575 21.7803 428.932 25.4253 428.932C26.7681 428.932 25.8089 426.628 23.315 423.94C19.2865 419.525 19.2865 418.949 22.9314 418.949C26.5763 418.949 28.3028 423.364 27.3436 429.7C26.7681 433.54 64.9438 456.386 84.5112 463.873C118.85 477.12 134.389 480 173.907 480C213.618 480 230.308 476.928 263.112 463.873C320.28 440.835 371.308 390.151 395.288 332.747C416.966 280.527 418.884 216.02 400.276 161.496C374.57 86.0459 308.194 25.3786 231.075 6.56398C206.712 0.612435 162.014 -1.88338 140.528 1.57236Z" fill="#F8F8F8"/>
</svg>
