<svg width="258" height="258" viewBox="0 0 258 258" fill="none" xmlns="http://www.w3.org/2000/svg">
<path d="M186.068 7.15108H231.191L203.852 129.778C198.543 153.086 194.916 167.388 192.969 172.685C200.047 205.173 210.311 221.418 223.759 221.418C239.685 221.418 247.914 210.471 248.444 188.576H258C257.469 209.058 253.709 225.611 246.719 238.236C239.729 250.861 230.572 257.173 219.247 257.173C209.868 257.173 202.879 253.377 198.278 245.784C193.677 238.192 188.722 222.654 183.414 199.17C165.01 237.839 134.928 257.173 93.1667 257.173C64.677 257.173 42.0267 246.093 25.216 223.934C8.40535 201.775 0 170.036 0 128.719C0 88.1081 9.20165 56.5022 27.6049 33.9013C46.0082 11.3004 68.1276 3.05176e-05 93.963 3.05176e-05C112.189 3.05176e-05 127.142 6.4448 138.821 19.3344C150.5 32.2239 160.852 53.2356 169.877 82.3696L186.068 7.15108ZM162.71 110.974C154.393 82.5461 145.103 60.3426 134.84 44.363C124.576 28.3835 112.278 20.3938 97.9444 20.3938C65.5617 20.3938 49.3704 58.1796 49.3704 133.751C49.3704 205.438 64.8539 241.282 95.821 241.282C122.718 241.282 142.626 209.676 155.543 146.464L162.71 110.974Z" fill="#D7F1FF"/>
</svg>
