<svg width="22" height="20" viewBox="0 0 22 20" fill="none" xmlns="http://www.w3.org/2000/svg">
<path d="M11 3.99922C14.79 3.99922 18.17 6.12922 19.82 9.49922C19.23 10.7192 18.4 11.7692 17.41 12.6192L18.82 14.0292C20.21 12.7992 21.31 11.2592 22 9.49922C20.27 5.10922 16 1.99922 11 1.99922C9.73 1.99922 8.51 2.19922 7.36 2.56922L9.01 4.21922C9.66 4.08922 10.32 3.99922 11 3.99922ZM9.93 5.13922L12 7.20922C12.57 7.45922 13.03 7.91922 13.28 8.48922L15.35 10.5592C15.43 10.2192 15.49 9.85922 15.49 9.48922C15.5 7.00922 13.48 4.99922 11 4.99922C10.63 4.99922 10.28 5.04922 9.93 5.13922ZM1.01 1.86922L3.69 4.54922C2.06 5.82922 0.77 7.52922 0 9.49922C1.73 13.8892 6 16.9992 11 16.9992C12.52 16.9992 13.98 16.7092 15.32 16.1792L18.74 19.5992L20.15 18.1892L2.42 0.449219L1.01 1.86922ZM8.51 9.36922L11.12 11.9792C11.08 11.9892 11.04 11.9992 11 11.9992C9.62 11.9992 8.5 10.8792 8.5 9.49922C8.5 9.44922 8.51 9.41922 8.51 9.36922ZM5.11 5.96922L6.86 7.71922C6.63 8.26922 6.5 8.86922 6.5 9.49922C6.5 11.9792 8.52 13.9992 11 13.9992C11.63 13.9992 12.23 13.8692 12.77 13.6392L13.75 14.6192C12.87 14.8592 11.95 14.9992 11 14.9992C7.21 14.9992 3.83 12.8692 2.18 9.49922C2.88 8.06922 3.9 6.88922 5.11 5.96922Z" fill="#D0D2D3"/>
</svg>
