<svg width="20" height="20" viewBox="0 0 20 20" fill="none" xmlns="http://www.w3.org/2000/svg">
<path d="M10 0C4.48003 0 3.05176e-05 4.48 3.05176e-05 10C3.05176e-05 15.52 4.48003 20 10 20C15.52 20 20 15.52 20 10C20 4.48 15.52 0 10 0ZM11 17H9.00003V15H11V17ZM13.07 9.25L12.17 10.17C11.45 10.9 11 11.5 11 13H9.00003V12.5C9.00003 11.4 9.45003 10.4 10.17 9.67L11.41 8.41C11.78 8.05 12 7.55 12 7C12 5.9 11.1 5 10 5C8.90003 5 8.00003 5.9 8.00003 7H6.00003C6.00003 4.79 7.79003 3 10 3C12.21 3 14 4.79 14 7C14 7.88 13.64 8.68 13.07 9.25Z" fill="#D6D6D6"/>
</svg>
